<svg width="20" height="20" viewBox="0 0 35 42" fill="none" xmlns="http://www.w3.org/2000/svg"><path d="M17.5379 12.5V0H4.9718C3.86088 0 2.79546 0.438987 2.00993 1.22039C1.22439 2.00179 0.783081 3.0616 0.783081 4.16667V37.5C0.783081 38.6051 1.22439 39.6649 2.00993 40.4463C2.79546 41.2277 3.86088 41.6667 4.9718 41.6667H30.1041C31.215 41.6667 32.2804 41.2277 33.066 40.4463C33.8515 39.6649 34.2928 38.6051 34.2928 37.5V16.6667H21.7267C20.6157 16.6667 19.5503 16.2277 18.7648 15.4463C17.9793 14.6649 17.5379 13.6051 17.5379 12.5ZM7.06616 21.3542C7.06616 20.9398 7.23165 20.5423 7.52622 20.2493C7.8208 19.9563 8.22033 19.7917 8.63692 19.7917C9.05352 19.7917 9.45305 19.9563 9.74763 20.2493C10.0422 20.5423 10.2077 20.9398 10.2077 21.3542C10.2077 21.7686 10.0422 22.166 9.74763 22.459C9.45305 22.752 9.05352 22.9167 8.63692 22.9167C8.22033 22.9167 7.8208 22.752 7.52622 22.459C7.23165 22.166 7.06616 21.7686 7.06616 21.3542ZM7.06616 27.6042C7.06616 27.1898 7.23165 26.7923 7.52622 26.4993C7.8208 26.2063 8.22033 26.0417 8.63692 26.0417C9.05352 26.0417 9.45305 26.2063 9.74763 26.4993C10.0422 26.7923 10.2077 27.1898 10.2077 27.6042C10.2077 28.0186 10.0422 28.416 9.74763 28.709C9.45305 29.002 9.05352 29.1667 8.63692 29.1667C8.22033 29.1667 7.8208 29.002 7.52622 28.709C7.23165 28.416 7.06616 28.0186 7.06616 27.6042ZM7.06616 33.8542C7.06616 33.4398 7.23165 33.0423 7.52622 32.7493C7.8208 32.4563 8.22033 32.2917 8.63692 32.2917C9.05352 32.2917 9.45305 32.4563 9.74763 32.7493C10.0422 33.0423 10.2077 33.4398 10.2077 33.8542C10.2077 34.2686 10.0422 34.666 9.74763 34.959C9.45305 35.252 9.05352 35.4167 8.63692 35.4167C8.22033 35.4167 7.8208 35.252 7.52622 34.959C7.23165 34.666 7.06616 34.2686 7.06616 33.8542ZM13.3492 21.3542C13.3492 20.9398 13.5147 20.5423 13.8093 20.2493C14.1039 19.9563 14.5034 19.7917 14.92 19.7917H26.439C26.8556 19.7917 27.2551 19.9563 27.5497 20.2493C27.8442 20.5423 28.0097 20.9398 28.0097 21.3542C28.0097 21.7686 27.8442 22.166 27.5497 22.459C27.2551 22.752 26.8556 22.9167 26.439 22.9167H14.92C14.5034 22.9167 14.1039 22.752 13.8093 22.459C13.5147 22.166 13.3492 21.7686 13.3492 21.3542ZM13.3492 27.6042C13.3492 27.1898 13.5147 26.7923 13.8093 26.4993C14.1039 26.2063 14.5034 26.0417 14.92 26.0417H26.439C26.8556 26.0417 27.2551 26.2063 27.5497 26.4993C27.8442 26.7923 28.0097 27.1898 28.0097 27.6042C28.0097 28.0186 27.8442 28.416 27.5497 28.709C27.2551 29.002 26.8556 29.1667 26.439 29.1667H14.92C14.5034 29.1667 14.1039 29.002 13.8093 28.709C13.5147 28.416 13.3492 28.0186 13.3492 27.6042ZM13.3492 33.8542C13.3492 33.4398 13.5147 33.0423 13.8093 32.7493C14.1039 32.4563 14.5034 32.2917 14.92 32.2917H26.439C26.8556 32.2917 27.2551 32.4563 27.5497 32.7493C27.8442 33.0423 28.0097 33.4398 28.0097 33.8542C28.0097 34.2686 27.8442 34.666 27.5497 34.959C27.2551 35.252 26.8556 35.4167 26.439 35.4167H14.92C14.5034 35.4167 14.1039 35.252 13.8093 34.959C13.5147 34.666 13.3492 34.2686 13.3492 33.8542ZM20.6795 12.5V1.04167L33.2456 13.5417H21.7267C21.4489 13.5417 21.1826 13.4319 20.9862 13.2366C20.7898 13.0412 20.6795 12.7763 20.6795 12.5Z" fill="#00D4BB"></path></svg>
