<svg width="20" height="20" viewBox="0 0 39 35" fill="none" xmlns="http://www.w3.org/2000/svg"><path d="M11.1467 14.0752H9.93193C8.27425 14.0156 6.62195 14.2956 5.07756 14.8977C3.53318 15.4997 2.12966 16.4111 0.954115 17.5752L0.619019 17.9641V29.4641H6.31567V22.9364L7.0836 22.0752L7.43266 21.6725C9.25046 19.8148 11.5136 18.4479 14.0089 17.7002C12.7596 16.7546 11.7742 15.5067 11.1467 14.0752V14.0752Z" fill="#00D4BB"></path><path d="M38.1498 17.5336C36.9743 16.3695 35.5708 15.4581 34.0264 14.856C32.482 14.2539 30.8297 13.974 29.172 14.0336C28.6636 14.035 28.1556 14.0629 27.6501 14.1169C27.0108 15.4599 26.0524 16.6278 24.8577 17.5197C27.5217 18.2528 29.9349 19.6932 31.8388 21.6864L32.1879 22.0753L32.9419 22.9364V29.4781H38.443V17.9225L38.1498 17.5336Z" fill="#00D4BB"></path><path d="M9.89 11.367H10.3228C10.1217 9.64924 10.4247 7.91033 11.1952 6.36014C11.9658 4.80995 13.1709 3.51473 14.6651 2.63085C14.1235 1.80772 13.3762 1.13863 12.4965 0.689105C11.6168 0.239576 10.6348 0.0250183 9.64669 0.0664395C8.65857 0.107861 7.6982 0.403841 6.85963 0.925399C6.02106 1.44696 5.33304 2.17621 4.86292 3.04175C4.39281 3.90729 4.15674 4.87944 4.17781 5.863C4.19888 6.84657 4.47639 7.80783 4.98314 8.65266C5.4899 9.49749 6.20854 10.1969 7.06869 10.6825C7.92884 11.168 8.90101 11.423 9.89 11.4225V11.367Z" fill="#00D4BB"></path><path d="M28.5019 10.3253C28.5188 10.6445 28.5188 10.9644 28.5019 11.2836C28.7698 11.3259 29.0404 11.3491 29.3117 11.3531H29.577C30.5616 11.3008 31.5159 10.9959 32.3469 10.4679C33.1779 9.9399 33.8573 9.20687 34.319 8.34016C34.7806 7.47345 35.0088 6.5026 34.9813 5.52213C34.9538 4.54165 34.6716 3.58497 34.162 2.74521C33.6525 1.90546 32.9331 1.21125 32.0738 0.730175C31.2145 0.249099 30.2446 -0.00244947 29.2586 1.79789e-05C28.2725 0.00248543 27.3039 0.258886 26.4471 0.744256C25.5902 1.22963 24.8743 1.92743 24.369 2.76972C25.6327 3.59046 26.6719 4.71042 27.3932 6.02912C28.1145 7.34782 28.4955 8.82402 28.5019 10.3253V10.3253Z" fill="#00D4BB"></path><path d="M19.3425 16.5475C22.7894 16.5475 25.5837 13.768 25.5837 10.3392C25.5837 6.91043 22.7894 4.13086 19.3425 4.13086C15.8956 4.13086 13.1013 6.91043 13.1013 10.3392C13.1013 13.768 15.8956 16.5475 19.3425 16.5475Z" fill="#00D4BB"></path><path d="M19.6777 19.853C17.8543 19.7798 16.0348 20.0743 14.3287 20.7187C12.6227 21.3632 11.0654 22.3443 9.75043 23.603L9.40137 23.9919V32.7836C9.40682 33.07 9.46893 33.3525 9.58415 33.6149C9.69938 33.8774 9.86547 34.1148 10.0729 34.3134C10.2804 34.512 10.5251 34.668 10.7932 34.7725C11.0613 34.8771 11.3475 34.928 11.6353 34.9225H27.6781C27.966 34.928 28.2522 34.8771 28.5203 34.7725C28.7883 34.668 29.0331 34.512 29.2406 34.3134C29.448 34.1148 29.6141 33.8774 29.7293 33.6149C29.8445 33.3525 29.9067 33.07 29.9121 32.7836V24.0197L29.577 23.603C28.2706 22.3404 26.7187 21.3565 25.0164 20.7117C23.3142 20.0669 21.4975 19.7747 19.6777 19.853V19.853Z" fill="#00D4BB"></path></svg>
