<svg width="20" height="20" viewBox="0 0 50 50" fill="none" xmlns="http://www.w3.org/2000/svg"><path d="M9.375 0H12.5V9.375H9.375V0Z" fill="#00D4BB"></path><path d="M34.375 0H37.5V9.375H34.375V0Z" fill="#00D4BB"></path><path d="M28.125 44.0625C28.125 43.75 28.125 43.75 28.125 44.0625L3.125 43.75V18.75H43.75V22.5C45 22.8125 45.9375 23.4375 46.875 24.375V3.125H40.625V12.5H31.25V3.125H15.625V12.5H6.25V3.125H0V46.875H28.125V44.0625Z" fill="#00D4BB"></path><path d="M46.875 31.25C46.8938 32.0823 46.7462 32.91 46.4407 33.6845C46.1352 34.4589 45.6781 35.1645 45.0962 35.7599C44.5143 36.3553 43.8193 36.8284 43.052 37.1515C42.2848 37.4746 41.4607 37.6411 40.6281 37.6413C39.7956 37.6415 38.9715 37.4754 38.204 37.1527C37.4366 36.83 36.7413 36.3572 36.1591 35.7621C35.5769 35.1671 35.1195 34.4617 34.8136 33.6874C34.5078 32.913 34.3597 32.0854 34.3781 31.2531C34.4142 29.6201 35.0882 28.0661 36.2557 26.9238C37.4233 25.7815 38.9916 25.1417 40.625 25.1413C42.2584 25.1409 43.8271 25.7799 44.9952 26.9217C46.1633 28.0634 46.8381 29.617 46.875 31.25Z" fill="#00D4BB"></path><path d="M43.4375 37.5H37.8125C34.375 37.5 31.25 40.3125 31.25 44.0625V50H50V44.0625C50 40.3125 47.1875 37.5 43.4375 37.5Z" fill="#00D4BB"></path><path d="M22.4219 33.6816V35H16.5859V33.875L19.3457 30.916C19.623 30.6074 19.8418 30.3359 20.002 30.1016C20.1621 29.8633 20.2773 29.6504 20.3477 29.4629C20.4219 29.2715 20.459 29.0898 20.459 28.918C20.459 28.6602 20.416 28.4395 20.3301 28.2559C20.2441 28.0684 20.1172 27.9238 19.9492 27.8223C19.7852 27.7207 19.582 27.6699 19.3398 27.6699C19.082 27.6699 18.8594 27.7324 18.6719 27.8574C18.4883 27.9824 18.3477 28.1562 18.25 28.3789C18.1562 28.6016 18.1094 28.8535 18.1094 29.1348H16.416C16.416 28.627 16.5371 28.1621 16.7793 27.7402C17.0215 27.3145 17.3633 26.9766 17.8047 26.7266C18.2461 26.4727 18.7695 26.3457 19.375 26.3457C19.9727 26.3457 20.4766 26.4434 20.8867 26.6387C21.3008 26.8301 21.6133 27.1074 21.8242 27.4707C22.0391 27.8301 22.1465 28.2598 22.1465 28.7598C22.1465 29.041 22.1016 29.3164 22.0117 29.5859C21.9219 29.8516 21.793 30.1172 21.625 30.3828C21.4609 30.6445 21.2617 30.9102 21.0273 31.1797C20.793 31.4492 20.5332 31.7285 20.248 32.0176L18.7656 33.6816H22.4219Z" fill="#00D4BB"></path><path d="M27.5898 26.4512V35H25.9023V28.3965L23.875 29.041V27.7109L27.4082 26.4512H27.5898Z" fill="#00D4BB"></path></svg>
