<svg width="20" height="20" viewBox="0 0 81 54" fill="none" xmlns="http://www.w3.org/2000/svg"><path fill-rule="evenodd" clip-rule="evenodd" d="M4.94304 0H76.057C78.7591 0 81 2.14486 81 4.73131V49.2687C81 51.8551 78.7591 54 76.057 54H4.94304C2.24085 54 0 51.8551 0 49.2687V4.73131C0 2.14486 2.24085 0 4.94304 0ZM46.0692 39.9322H64.8527V42.4556H46.0692V39.9322ZM46.0692 33.4977H71.8389V36.021H46.0692V33.4977ZM60.7006 22.0794H64.3914C64.5891 22.0794 64.7209 22.2056 64.7209 22.3949V29.3341C64.7209 29.5234 64.5891 29.6495 64.3914 29.6495H60.7006C60.5028 29.6495 60.371 29.5234 60.371 29.3341V22.3949C60.371 22.2687 60.5028 22.0794 60.7006 22.0794ZM46.4646 17.8528H50.1554C50.3531 17.8528 50.4849 17.979 50.4849 18.1682V29.3972C50.4849 29.5864 50.3531 29.7126 50.1554 29.7126H46.4646C46.2669 29.7126 46.1351 29.5864 46.1351 29.3972V18.1682C46.0692 17.979 46.2669 17.8528 46.4646 17.8528ZM53.5826 15.4556H57.2734C57.4711 15.4556 57.6029 15.5818 57.6029 15.771V29.3972C57.6029 29.5864 57.4711 29.7126 57.2734 29.7126H53.5826C53.3849 29.7126 53.2531 29.5864 53.2531 29.3972V15.771C53.2531 15.5818 53.3849 15.4556 53.5826 15.4556ZM25.9015 30.4065L37.1058 30.5958C37.1058 34.4439 35.1286 37.9766 31.8332 40.1215L25.9015 30.4065ZM24.7811 28.5771L24.6493 16.0864V15.2664L25.5061 15.3294C26.5606 15.3925 27.6151 15.5818 28.6037 15.8341C29.5924 16.0864 30.5151 16.465 31.4378 16.9065C35.9854 19.1776 39.1489 23.7196 39.4125 28.8925L39.4784 29.7126H38.6216L25.6379 29.3341H24.9129L24.7811 28.5771ZM26.2311 16.8435L26.3629 27.8201L37.7648 28.1355C37.3035 23.8458 34.5354 20.1238 30.7128 18.1682C29.9219 17.7897 29.0651 17.4743 28.2083 17.222C27.4833 17.0958 26.8902 16.9696 26.2311 16.8435ZM23.6607 29.7757L30.0537 40.3738C28.0765 41.4463 25.9015 42.014 23.6607 42.014C16.6086 42.014 10.8747 36.5257 10.8747 29.7757C10.8747 23.215 16.2791 17.7897 23.1334 17.5374L23.6607 29.7757ZM76.1888 8.89486H4.74532V49.521H76.1888V8.89486Z" fill="#00D4BB"></path></svg>
