<svg width="20" height="20" viewBox="0 0 59 64" fill="none" xmlns="http://www.w3.org/2000/svg"><path d="M34.9115 1.02145C34.5468 1.37601 34.4967 1.51233 34.4088 2.52097C34.2831 3.81569 34.233 3.93857 33.8182 3.93857C33.253 3.93857 31.4682 4.49729 30.5514 4.96065L29.6469 5.41057L28.8805 4.48385C27.7117 3.06625 27.3978 3.07969 25.8272 4.53825C24.872 5.42402 24.8472 5.46497 24.8472 6.05121C24.8472 6.59649 24.9228 6.76033 25.5511 7.56417L26.255 8.46401L25.7523 9.22753C25.1871 10.1133 24.4578 11.6538 24.2195 12.4576C24.1316 12.7578 24.0313 13.0439 23.9805 13.0848C23.9428 13.1258 23.4531 13.1258 22.8997 13.0714C21.178 12.9075 20.9143 13.1667 20.7131 15.2659C20.5874 16.7111 20.7131 17.2698 21.2783 17.5559C21.5421 17.6787 26.3293 18.2509 27.209 18.2509C27.4727 18.2509 27.4857 18.2099 27.4857 16.7789C27.4857 15.1571 27.6492 14.3258 28.2268 12.9895C29.8227 9.28193 33.7055 7.29217 37.337 8.30081C40.1265 9.07777 42.4133 11.4906 43.1296 14.4346C43.532 16.0704 43.4942 17.4061 43.0039 19.4778L42.9284 19.8183L45.9569 20.1184C47.9422 20.3226 49.0856 20.3776 49.2868 20.2957C49.8019 20.0775 50.0031 19.5597 50.1287 18.1146C50.2167 16.9831 50.2043 16.697 50.0408 16.3565C49.7771 15.7837 49.5635 15.6883 48.3322 15.5795L47.2643 15.4976L47.0507 14.2573C46.8749 13.2487 46.41 11.7767 45.8819 10.5363C45.8442 10.4544 46.1964 10.0595 46.6483 9.66401C47.9298 8.51905 47.9552 8.04225 46.8118 6.51521C45.5427 4.81153 45.1657 4.75713 43.7461 6.07937C43.3945 6.39297 43.0552 6.66561 43.0045 6.66561C42.9538 6.66561 42.6399 6.44737 42.3136 6.18881C41.6097 5.63009 39.9512 4.71681 39.2102 4.47169L38.6822 4.30785L38.7577 3.05409C38.871 1.14561 38.6444 0.887054 36.5841 0.736654L35.315 0.641294L34.9115 1.02145Z" fill="#00D4BB"></path><path d="M4.42732 7.82337C3.82434 8.05505 3.25853 8.73665 3.15823 9.36385C2.98241 10.345 3.3842 11.3677 4.08807 11.7626C4.27628 11.8579 5.74656 12.3623 7.36788 12.88C9.73024 13.6295 10.3208 13.8611 10.4087 14.0928C10.4713 14.2426 12.0672 22.5575 13.9771 32.5619C15.8869 42.5664 17.533 50.9901 17.6463 51.2896C17.7719 51.6032 18.061 51.9578 18.3625 52.176L18.8652 52.5306L34.5722 52.4762C51.6733 52.4218 50.6308 52.4762 51.2715 51.6448C52.0757 50.6087 51.7111 48.9191 50.5553 48.3194C50.1659 48.1287 48.7581 48.1011 35.6153 48.1011H21.1019L21.014 47.7197C20.8629 47.0381 20.1974 43.4259 20.1974 43.2487C20.1974 43.0989 22.9114 43.0579 35.5652 43.0304L50.9199 42.9895L51.5482 42.6759C52.3023 42.2944 52.8049 41.8035 53.1188 41.1354C53.3826 40.6042 55.883 27.1098 55.883 26.2784C55.883 25.5699 55.28 24.3975 54.664 23.8797C54.3502 23.6346 53.8475 23.3888 53.4705 23.3075C53.1064 23.2256 44.5491 22.3264 34.4589 21.3178C24.3687 20.3091 16.0002 19.4643 15.8621 19.4503C15.6361 19.4093 15.5229 18.9735 14.832 15.3203C14.0402 11.177 13.9399 10.8499 13.2738 10.3181C12.9977 10.0998 6.17431 7.83745 5.3076 7.68769C5.10582 7.64609 4.70403 7.71393 4.42732 7.82337Z" fill="#00D4BB"></path><path d="M23.4891 55.0522C22.6218 55.5296 21.9185 56.3059 21.5291 57.2192C21.1397 58.1459 21.1645 59.9181 21.5792 60.8448C22.0064 61.8125 22.9362 62.7392 23.8035 63.0938C24.7959 63.5027 26.1405 63.4343 27.0456 62.9299C27.7117 62.5619 28.5914 61.6352 28.9053 60.9671C29.4457 59.8087 29.4333 58.1594 28.8675 56.9459C27.8993 54.9024 25.3989 54.016 23.4891 55.0522Z" fill="#00D4BB"></path><path d="M43.129 54.9568C41.8977 55.5974 41.244 56.4422 40.8546 57.8598C40.3265 59.8227 41.2564 62.0307 43.0157 62.9715C43.5308 63.2442 43.8199 63.2986 44.7621 63.2986C46.0814 63.2986 46.7351 63.0259 47.5894 62.1126C48.3812 61.2947 48.7706 60.2592 48.783 59.0048C48.783 58.1056 48.7205 57.8464 48.3682 57.0554C48.1045 56.4832 47.7652 55.9782 47.426 55.6922C46.5215 54.8877 46.1191 54.7379 44.8878 54.6835C43.8954 54.6298 43.6819 54.6701 43.129 54.9568Z" fill="#00D4BB"></path></svg>
