<svg width="20" height="20" viewBox="0 0 50 40" fill="none" xmlns="http://www.w3.org/2000/svg"><path fill-rule="evenodd" clip-rule="evenodd" d="M47 3H3V26H47V3ZM3 0C1.34315 0 0 1.34315 0 3V26C0 27.6569 1.34315 29 3 29H47C48.6569 29 50 27.6569 50 26V3C50 1.34315 48.6569 0 47 0H3Z" fill="#00D4BB"></path><path fill-rule="evenodd" clip-rule="evenodd" d="M40 6.5H9C8.17157 6.5 7.5 7.17157 7.5 8V21C7.5 21.8284 8.17157 22.5 9 22.5H40C40.8284 22.5 41.5 21.8284 41.5 21V8C41.5 7.17157 40.8284 6.5 40 6.5ZM9 5C7.34315 5 6 6.34315 6 8V21C6 22.6569 7.34315 24 9 24H40C41.6569 24 43 22.6569 43 21V8C43 6.34315 41.6569 5 40 5H9Z" fill="#00D4BB"></path><rect width="28" height="32" transform="translate(11 8)" fill="white"></rect><path d="M28.5 16H26.75C26.75 14.6739 26.2891 13.4021 25.4686 12.4645C24.6481 11.5268 23.5353 11 22.375 11C21.2147 11 20.1019 11.5268 19.2814 12.4645C18.4609 13.4021 18 14.6739 18 16H16.25C16.25 14.1435 16.8953 12.363 18.044 11.0503C19.1926 9.7375 20.7505 9 22.375 9C23.9995 9 25.5574 9.7375 26.706 11.0503C27.8547 12.363 28.5 14.1435 28.5 16Z" fill="#00D4BB"></path><path d="M32.875 23C32.423 23.0019 31.9793 23.1398 31.5888 23.4C31.3529 22.9724 31.0262 22.6198 30.6392 22.3751C30.2522 22.1303 29.8173 22.0013 29.375 22C28.923 22.0019 28.4793 22.1398 28.0888 22.4C27.7704 21.8275 27.2917 21.3952 26.7308 21.1737C26.1698 20.9521 25.5597 20.9543 25 21.18V16C25 15.2044 24.7234 14.4413 24.2312 13.8787C23.7389 13.3161 23.0712 13 22.375 13C21.6788 13 21.0111 13.3161 20.5189 13.8787C20.0266 14.4413 19.75 15.2044 19.75 16V27.1L17.7988 25.58C17.3515 25.1993 16.8077 24.9957 16.25 25C15.7294 24.9985 15.2201 25.174 14.787 25.5042C14.3538 25.8344 14.0164 26.3043 13.8175 26.8542C13.6187 27.4041 13.5674 28.0092 13.6702 28.5925C13.7731 29.1758 14.0254 29.711 14.395 30.13L21.395 37.43C22.386 38.4437 23.67 39.0029 25 39H29.375C30.9995 39 32.5574 38.2625 33.706 36.9497C34.8547 35.637 35.5 33.8565 35.5 32V26C35.5 25.2044 35.2234 24.4413 34.7312 23.8787C34.2389 23.3161 33.5712 23 32.875 23ZM33.75 32C33.75 33.3261 33.2891 34.5979 32.4686 35.5355C31.6481 36.4732 30.5353 37 29.375 37H25C24.1156 37.0122 23.2573 36.6568 22.585 36L15.6288 28.7C15.4671 28.5137 15.376 28.2623 15.375 28C15.375 27.8143 15.4203 27.6322 15.5057 27.4743C15.5911 27.3163 15.7134 27.1886 15.8587 27.1056C16.004 27.0225 16.1667 26.9874 16.3286 27.004C16.4904 27.0207 16.645 27.0886 16.775 27.2L21.5 30.9V16C21.5 15.7348 21.5922 15.4804 21.7563 15.2929C21.9204 15.1054 22.1429 15 22.375 15C22.6071 15 22.8296 15.1054 22.9937 15.2929C23.1578 15.4804 23.25 15.7348 23.25 16V27H25V24C25 23.7348 25.0922 23.4804 25.2563 23.2929C25.4204 23.1054 25.6429 23 25.875 23C26.1071 23 26.3296 23.1054 26.4937 23.2929C26.6578 23.4804 26.75 23.7348 26.75 24V27H28.5V25C28.5 24.7348 28.5922 24.4804 28.7563 24.2929C28.9204 24.1054 29.1429 24 29.375 24C29.6071 24 29.8296 24.1054 29.9937 24.2929C30.1578 24.4804 30.25 24.7348 30.25 25V27H32V26C32 25.7348 32.0922 25.4804 32.2563 25.2929C32.4204 25.1054 32.6429 25 32.875 25C33.1071 25 33.3296 25.1054 33.4937 25.2929C33.6578 25.4804 33.75 25.7348 33.75 26V32Z" fill="#00D4BB"></path></svg>
