<svg width="24" height="24" viewBox="0 0 77 73" fill="none" xmlns="http://www.w3.org/2000/svg"><g clip-path="url(#clip0_18_179)"><path d="M53.5203 20.6499H71.2789H74.1426C74.1802 20.6499 74.224 20.6438 74.2742 20.6254L63.2205 3.36176C63.139 3.23884 63.0387 3.06062 62.9447 2.88853L62.9134 2.82093C62.857 2.7103 62.8257 2.59353 62.8069 2.47676H14.2056C14.1179 2.47676 14.1806 2.67343 14.0615 2.88853C13.9738 3.04218 13.8861 3.20197 13.7858 3.36176L2.72583 20.6254C2.77596 20.6438 2.81982 20.6499 2.85742 20.6499H5.72111H23.4797C23.7805 17.0608 25.391 13.8404 27.8411 11.4374C30.5669 8.76393 34.3392 7.10456 38.5 7.10456C42.6608 7.10456 46.4331 8.75779 49.1589 11.4374C51.6091 13.8342 53.2132 17.0608 53.5203 20.6499ZM33.6562 59.0429C34.2139 59.0429 34.665 59.4854 34.665 60.0323C34.665 60.5793 34.2139 61.0218 33.6562 61.0218C33.0985 61.0218 32.6473 60.5793 32.6473 60.0323C32.6473 59.4854 33.0985 59.0429 33.6562 59.0429ZM37.0838 14.4673H39.9162C40.4488 14.4673 40.8812 14.8913 40.8812 15.4137V19.556H45.1047C45.6373 19.556 46.0697 19.98 46.0697 20.5024V23.2804C46.0697 23.8027 45.6373 24.2268 45.1047 24.2268H40.8812V28.3691C40.8812 28.8915 40.4488 29.3155 39.9162 29.3155H37.0838C36.5512 29.3155 36.1188 28.8915 36.1188 28.3691V24.2268H31.8953C31.3627 24.2268 30.9303 23.8027 30.9303 23.2804V20.5024C30.9303 19.98 31.3627 19.556 31.8953 19.556H36.1188V15.4137C36.1188 14.8913 36.5512 14.4673 37.0838 14.4673ZM23.4797 23.1267H6.9869V70.5171H28.286V51.7662C28.286 50.2605 28.9126 48.89 29.9215 47.9005C30.9303 46.911 32.3277 46.2964 33.863 46.2964H43.137C44.6723 46.2964 46.0697 46.911 47.0785 47.9005C48.0874 48.89 48.714 50.2605 48.714 51.7662V70.5171H70.0131V23.1267H53.5203C53.2195 26.7159 51.6091 29.9363 49.1589 32.3393C46.4331 35.0127 42.6608 36.6721 38.5 36.6721C34.3392 36.6721 30.5669 35.0189 27.8411 32.3393C25.391 29.9424 23.7868 26.7159 23.4797 23.1267ZM47.3668 13.1889C45.0984 10.9641 41.959 9.58747 38.5 9.58747C35.0347 9.58747 31.9016 10.9641 29.6332 13.1889C27.3648 15.4137 25.9612 18.4928 25.9612 21.8853C25.9612 25.2777 27.3648 28.3568 29.6332 30.5816C31.9016 32.8064 35.041 34.183 38.5 34.183C41.9653 34.183 45.0984 32.8064 47.3668 30.5816C49.6352 28.3568 51.0388 25.2777 51.0388 21.8853C51.0388 18.4928 49.6414 15.4137 47.3668 13.1889ZM30.8175 70.5232H46.1887V51.7662C46.1887 50.9427 45.8441 50.199 45.2926 49.6582C44.7412 49.1174 43.9767 48.7793 43.1433 48.7793H33.8692C33.0295 48.7793 32.2713 49.1174 31.7199 49.6582C31.1685 50.199 30.8238 50.9488 30.8238 51.7662V70.5232H30.8175ZM55.2748 49.0067H64.5677C65.2633 49.0067 65.8335 49.5599 65.8335 50.2482V60.776C65.8335 61.4582 65.2695 62.0174 64.5677 62.0174H55.2748C54.5793 62.0174 54.009 61.4643 54.009 60.776V50.2482C54.009 49.566 54.573 49.0067 55.2748 49.0067ZM63.2957 51.4896H56.5406V59.5407H63.3019V51.4896H63.2957ZM55.2748 29.9916H64.5677C65.2633 29.9916 65.8335 30.5447 65.8335 31.233V41.7608C65.8335 42.443 65.2695 43.0023 64.5677 43.0023H55.2748C54.5793 43.0023 54.009 42.4492 54.009 41.7608V31.233C54.009 30.5508 54.573 29.9916 55.2748 29.9916ZM63.2957 32.4745H56.5406V40.5255H63.3019V32.4745H63.2957ZM12.4386 49.0067H21.7314C22.427 49.0067 22.9972 49.5599 22.9972 50.2482V60.776C22.9972 61.4582 22.4333 62.0174 21.7314 62.0174H12.4386C11.743 62.0174 11.1728 61.4643 11.1728 60.776V50.2482C11.1728 49.566 11.7367 49.0067 12.4386 49.0067ZM20.4657 51.4896H13.7043V59.5407H20.4657V51.4896ZM12.4386 29.9916H21.7314C22.427 29.9916 22.9972 30.5447 22.9972 31.233V41.7608C22.9972 42.443 22.4333 43.0023 21.7314 43.0023H12.4386C11.743 43.0023 11.1728 42.4492 11.1728 41.7608V31.233C11.1728 30.5508 11.7367 29.9916 12.4386 29.9916ZM20.4657 32.4745H13.7043V40.5255H20.4657V32.4745ZM4.45532 23.1267H2.85742C2.30599 23.1267 1.69816 22.9362 1.20939 22.635C0.90861 22.4507 0.63916 22.2171 0.432373 21.9467C0.162923 21.5903 0 21.1846 0 20.7483C0 20.4164 0.0939942 20.0845 0.294515 19.7649L11.6427 2.04656C11.7179 1.92979 11.7869 1.80687 11.8495 1.6901C12.3508 0.805102 12.8083 0 14.1994 0H62.7944C64.1917 0 64.6429 0.805102 65.1442 1.6901V1.69625C65.2006 1.79458 65.257 1.89906 65.3573 2.04656L76.7055 19.7711C76.9123 20.0907 77 20.4225 77 20.7544C77 21.1908 76.8371 21.5964 76.5676 21.9529C76.3859 22.1925 76.1478 22.4076 75.8783 22.5859L75.7906 22.6412C75.3018 22.9423 74.694 23.1329 74.1426 23.1329H72.5384V71.7647C72.5384 72.4469 71.9744 73.0061 71.2726 73.0061H47.4482H29.5518H5.72111C5.02555 73.0061 4.45532 72.453 4.45532 71.7647V23.1267Z" fill="#00D4BB"></path></g><defs><clipPath id="clip0_18_179"><rect width="77" height="73" fill="white"></rect></clipPath></defs></svg>
