<svg width="20" height="20" viewBox="0 0 75 59" fill="none" xmlns="http://www.w3.org/2000/svg"><path fill-rule="evenodd" clip-rule="evenodd" d="M5.07812 0H69.9219C72.7173 0 75 2.41793 75 5.37892V53.6211C75 56.5756 72.7173 59 69.9219 59H5.07812C2.28271 59 0 56.5756 0 53.6211V5.37892C0 2.41793 2.28271 0 5.07812 0ZM55.1514 23.3905L57.3608 25.7309C57.9407 26.3451 57.9407 27.3536 57.3608 27.9678L55.5847 29.8491C56.073 30.8189 56.4514 31.8662 56.6895 32.9653H58.9905C59.8145 32.9653 60.4858 33.6764 60.4858 34.5492V37.8528C60.4858 38.7256 59.8145 39.4368 58.9905 39.4368H56.4758C56.1707 40.5164 55.7251 41.5314 55.1758 42.4624L56.8054 44.1886C57.3853 44.8028 57.3853 45.8113 56.8054 46.4255L54.5959 48.7658C54.0161 49.38 53.064 49.38 52.4841 48.7658L50.708 46.8845C49.7925 47.4017 48.8037 47.8025 47.7661 48.0547V50.492C47.7661 51.3648 47.0947 52.0759 46.2708 52.0759H43.1519C42.3279 52.0759 41.6565 51.3648 41.6565 50.492V47.8284C40.6372 47.5051 39.679 47.0332 38.8 46.4513L37.1704 48.1775C36.5906 48.7917 35.6384 48.7917 35.0586 48.1775L32.8491 45.8372C32.2693 45.223 32.2693 44.2144 32.8491 43.6003L34.6252 41.7189C34.137 40.7492 33.7585 39.7018 33.5205 38.6028H31.2195C30.3955 38.6028 29.7241 37.8916 29.7241 37.0188V33.7152C29.7241 32.8489 30.3955 32.1313 31.2195 32.1313H33.7341C34.0454 31.0516 34.4849 30.0366 35.0342 29.1056L33.4045 27.3795C32.8247 26.7653 32.8247 25.7567 33.4045 25.1426L35.614 22.8022C36.1938 22.188 37.146 22.188 37.7258 22.8022L39.502 24.6835C40.4175 24.1663 41.4062 23.7655 42.4438 23.5134V21.076C42.4438 20.2033 43.1152 19.4921 43.9392 19.4921H47.0581C47.8821 19.4921 48.5535 20.2033 48.5535 21.076V23.7332C49.5728 24.0564 50.531 24.5284 51.4099 25.1102L53.0396 23.3841C53.6194 22.7764 54.5654 22.7764 55.1514 23.3905ZM45.0989 29.2802C48.4863 29.2802 51.2329 32.1895 51.2329 35.7776C51.2329 39.3657 48.4863 42.2749 45.0989 42.2749C41.7114 42.2749 38.9648 39.3657 38.9648 35.7776C38.9648 32.1895 41.7114 29.2802 45.0989 29.2802ZM32.6416 15.0571V16.641C32.6416 17.4233 32.0374 18.0698 31.2927 18.0698H29.0283C28.7476 19.0396 28.3508 19.9576 27.8564 20.798L29.3274 22.3561C29.8523 22.9121 29.8523 23.8172 29.3274 24.3732L27.3376 26.4808C26.8127 27.0368 25.9583 27.0368 25.4333 26.4808L23.8342 24.787C23.0103 25.2525 22.1191 25.6145 21.1853 25.8408V28.0389C21.1853 28.8212 20.5811 29.4677 19.8364 29.4677H17.0227C16.2842 29.4677 15.6738 28.8276 15.6738 28.0389V25.6404C14.7583 25.343 13.8916 24.9227 13.0981 24.3991L11.6272 25.9572C11.1023 26.5131 10.2478 26.5131 9.7229 25.9572L7.73315 23.8495C7.20825 23.2936 7.20825 22.3885 7.73315 21.8325L9.33228 20.1386C8.89282 19.2658 8.55103 18.3219 8.3374 17.3328H6.26221C5.52368 17.3328 4.91333 16.6927 4.91333 15.904V15.07H3.22876V54.1577C3.22876 54.5714 3.38135 54.9335 3.6377 55.2115C3.89404 55.483 4.24194 55.6446 4.63257 55.6446H70.575C70.9656 55.6446 71.3074 55.483 71.5698 55.2115C71.8323 54.9335 71.9788 54.5714 71.9788 54.1577V15.0571H72.0032H32.6416ZM13.2568 15.0571C13.3972 18.1603 15.8142 20.6364 18.7805 20.6364C21.7468 20.6364 24.1638 18.1603 24.3042 15.0571H13.2568ZM65.0879 6.04482C66.4734 6.04482 67.5964 7.23439 67.5964 8.70195C67.5964 10.1695 66.4734 11.3591 65.0879 11.3591C63.7024 11.3591 62.5793 10.1695 62.5793 8.70195C62.5854 7.23439 63.7085 6.04482 65.0879 6.04482ZM48.0957 6.04482C49.4812 6.04482 50.6043 7.23439 50.6043 8.70195C50.6043 10.1695 49.4812 11.3591 48.0957 11.3591C46.7102 11.3591 45.5872 10.1695 45.5872 8.70195C45.5872 7.23439 46.7102 6.04482 48.0957 6.04482ZM56.5918 6.04482C57.9773 6.04482 59.1003 7.23439 59.1003 8.70195C59.1003 10.1695 57.9773 11.3591 56.5918 11.3591C55.2063 11.3591 54.0833 10.1695 54.0833 8.70195C54.0833 7.23439 55.2063 6.04482 56.5918 6.04482Z" fill="#00D4BB"></path></svg>
