<svg width="20" height="20" viewBox="0 0 62 56" fill="none" xmlns="http://www.w3.org/2000/svg"><path d="M17.9378 54.3525H13.1915V46.5939C13.1915 46.4543 13.1389 46.3204 13.0453 46.2217C12.9517 46.123 12.8248 46.0675 12.6924 46.0675H6.71839C6.58312 46.0673 6.4529 46.1217 6.35451 46.2196C6.25611 46.3175 6.19701 46.4515 6.18935 46.5939V54.3525H5.3459V55.9789H56.3524V54.3525H55.5089V46.5939C55.5013 46.4515 55.4422 46.3175 55.3438 46.2196C55.2454 46.1217 55.1152 46.0673 54.9799 46.0675H49.0308C48.9632 46.064 48.8956 46.0749 48.8321 46.0998C48.7687 46.1246 48.7107 46.1628 48.6617 46.2121C48.6126 46.2613 48.5736 46.3205 48.547 46.3862C48.5204 46.4518 48.5067 46.5225 48.5068 46.5939V54.3525H37.3372V43.3831C37.3379 43.2838 37.3197 43.1854 37.2837 43.0937C37.2477 43.002 37.1947 42.9189 37.1277 42.8492C37.0607 42.7795 36.9811 42.7247 36.8936 42.688C36.8062 42.6513 36.7127 42.6335 36.6186 42.6356H25.0148C24.8282 42.6356 24.6492 42.7138 24.5172 42.853C24.3853 42.9922 24.3111 43.181 24.3111 43.3778V54.3472H16.4006V17.3018H1.68262V54.3525H5.37086V55.9789H0.889072C0.702437 55.9789 0.523445 55.9007 0.391474 55.7616C0.259503 55.6224 0.185362 55.4336 0.185362 55.2368V16.8438C0.183878 16.7006 0.210112 16.5586 0.262459 16.4265C0.314806 16.2944 0.392165 16.1749 0.489804 16.0753C0.58401 15.974 0.696682 15.8937 0.821045 15.8395C0.945409 15.7852 1.0789 15.758 1.21348 15.7595H16.4006V1.18453C16.428 0.88172 16.5551 0.598606 16.76 0.384461C16.8764 0.25986 17.0156 0.16154 17.1692 0.0954833C17.3228 0.0294263 17.4875 -0.00298676 17.6533 0.000216214H44.02C44.1814 -0.00102282 44.3414 0.0318765 44.4906 0.0969698C44.6397 0.162063 44.775 0.25803 44.8884 0.379198L44.9433 0.442361C45.1445 0.677868 45.2565 0.983304 45.2577 1.30033V15.749H60.4798C60.6144 15.7475 60.7479 15.7747 60.8723 15.8289C60.9966 15.8832 61.1093 15.9634 61.2035 16.0648C61.3011 16.1643 61.3785 16.2838 61.4308 16.416C61.4832 16.5481 61.5094 16.6901 61.5079 16.8333V55.2578C61.5079 55.4547 61.4338 55.6434 61.3018 55.7826C61.1699 55.9218 60.9909 56 60.8042 56H56.3474V54.3735H60.0356V17.3018H45.2527V54.3525H43.7106V1.62141H17.9378V54.3525ZM8.38533 20.5284H4.5823C4.55236 20.5284 4.52241 20.5705 4.52241 20.6231V23.2234C4.52241 23.276 4.55236 23.3234 4.5823 23.3234H8.38533C8.41527 23.3234 8.44522 23.2813 8.44522 23.2234V20.5968C8.44522 20.5442 8.41527 20.5021 8.38533 20.5021V20.5284ZM8.38533 38.5668H4.5823C4.55236 38.5668 4.52241 38.6142 4.52241 38.6616V41.2618C4.52241 41.3092 4.55236 41.3618 4.5823 41.3618H8.38533C8.41527 41.3618 8.44522 41.3145 8.44522 41.2618V38.6353C8.44522 38.5879 8.41527 38.5405 8.38533 38.5405V38.5668ZM14.8036 38.5668H11.0005C10.9656 38.5668 10.9406 38.6142 10.9406 38.6616V41.2618C10.9406 41.3092 10.9656 41.3618 11.0005 41.3618H14.8036C14.8335 41.3618 14.8585 41.3145 14.8585 41.2618V38.6353C14.8585 38.5879 14.8585 38.5405 14.8036 38.5405V38.5668ZM8.38533 32.5242H4.5823C4.55236 32.5242 4.52241 32.5716 4.52241 32.6242V35.2244C4.52241 35.2771 4.55236 35.3245 4.5823 35.3245H8.38533C8.41527 35.3245 8.44522 35.2823 8.44522 35.2244V32.6347C8.44522 32.5768 8.41527 32.5347 8.38533 32.5347V32.5242ZM8.38533 26.5131H4.5823C4.55236 26.5131 4.52241 26.5552 4.52241 26.6131V29.2134C4.52241 29.2607 4.55236 29.3134 4.5823 29.3134H8.38533C8.41527 29.3134 8.44522 29.266 8.44522 29.2134V26.6131C8.44522 26.5552 8.41527 26.5131 8.38533 26.5131ZM14.8036 20.5284H11.0005C10.9656 20.5284 10.9406 20.5705 10.9406 20.6231V23.2234C10.9406 23.276 10.9656 23.3234 11.0005 23.3234H14.8036C14.8335 23.3234 14.8585 23.2813 14.8585 23.2234V20.5968C14.8585 20.5442 14.8585 20.5021 14.8036 20.5021V20.5284ZM14.8036 32.5505H11.0005C10.9656 32.5505 10.9406 32.5979 10.9406 32.6505V35.2508C10.9406 35.3034 10.9656 35.3508 11.0005 35.3508H14.8036C14.8335 35.3508 14.8585 35.3087 14.8585 35.2508V32.6347C14.8585 32.5768 14.8585 32.5347 14.8036 32.5347V32.5505ZM14.8036 26.5394H11.0005C10.9656 26.5394 10.9406 26.5816 10.9406 26.6395V29.2134C10.9406 29.2607 10.9656 29.3134 11.0005 29.3134H14.8036C14.8335 29.3134 14.8585 29.266 14.8585 29.2134V26.6131C14.8585 26.5552 14.8585 26.5131 14.8036 26.5131V26.5394ZM53.313 20.5284H57.116C57.1459 20.5284 57.1759 20.5705 57.1759 20.6231V23.2234C57.1759 23.276 57.1459 23.3234 57.116 23.3234H53.313C53.283 23.3234 53.2531 23.2813 53.2531 23.2234V20.5968C53.2531 20.5442 53.283 20.5021 53.313 20.5021V20.5284ZM53.313 38.5668H57.116C57.1459 38.5668 57.1759 38.6142 57.1759 38.6616V41.2618C57.1759 41.3092 57.1459 41.3618 57.116 41.3618H53.313C53.283 41.3618 53.2531 41.3145 53.2531 41.2618V38.6353C53.2531 38.5879 53.283 38.5405 53.313 38.5405V38.5668ZM46.8947 38.5668H50.6978C50.7327 38.5668 50.7576 38.6142 50.7576 38.6616V41.2618C50.7576 41.3092 50.7576 41.3618 50.6978 41.3618H46.8947C46.8648 41.3618 46.8398 41.3145 46.8398 41.2618V38.6353C46.8398 38.5879 46.8398 38.5405 46.8947 38.5405V38.5668ZM53.313 32.5505H57.116C57.1459 32.5505 57.1759 32.5979 57.1759 32.6505V35.2508C57.1759 35.3034 57.1459 35.3508 57.116 35.3508H53.313C53.283 35.3508 53.2531 35.3087 53.2531 35.2508V32.6347C53.2531 32.5768 53.283 32.5347 53.313 32.5347V32.5505ZM53.313 26.5394H57.116C57.1459 26.5394 57.1759 26.5816 57.1759 26.6395V29.2134C57.1759 29.2607 57.1459 29.3134 57.116 29.3134H53.313C53.283 29.3134 53.2531 29.266 53.2531 29.2134V26.6131C53.2531 26.5552 53.283 26.5131 53.313 26.5131V26.5394ZM46.8947 20.5284H50.6978C50.7327 20.5284 50.7576 20.5705 50.7576 20.6231V23.2234C50.7576 23.276 50.7576 23.3234 50.6978 23.3234H46.8947C46.8648 23.3234 46.8398 23.2813 46.8398 23.2234V20.5968C46.8398 20.5442 46.8398 20.5021 46.8947 20.5021V20.5284ZM46.8947 32.5505H50.6978C50.7327 32.5505 50.7576 32.5979 50.7576 32.6505V35.2508C50.7576 35.3034 50.7576 35.3508 50.6978 35.3508H46.8947C46.8648 35.3508 46.8398 35.3087 46.8398 35.2508V32.6347C46.8398 32.5768 46.8398 32.5347 46.8947 32.5347V32.5505ZM46.8947 26.5394H50.6978C50.7327 26.5394 50.7576 26.5816 50.7576 26.6395V29.2134C50.7576 29.2607 50.7576 29.3134 50.6978 29.3134H46.8947C46.8648 29.3134 46.8398 29.266 46.8398 29.2134V26.6131C46.8398 26.5552 46.8398 26.5131 46.8947 26.5131V26.5394ZM21.646 5.70599H25.7834C25.8144 5.70597 25.8441 5.71855 25.8664 5.74111C25.8887 5.76368 25.9019 5.79447 25.9032 5.82706V10.1959C25.9019 10.2285 25.8887 10.2593 25.8664 10.2818C25.8441 10.3044 25.8144 10.317 25.7834 10.3169H21.646C21.6156 10.3169 21.5864 10.3042 21.5648 10.2815C21.5433 10.2588 21.5312 10.228 21.5312 10.1959V5.82706C21.5312 5.79495 21.5433 5.76416 21.5648 5.74145C21.5864 5.71875 21.6156 5.70599 21.646 5.70599ZM35.8749 5.70599H40.0123C40.0433 5.70597 40.073 5.71855 40.0953 5.74111C40.1176 5.76368 40.1308 5.79447 40.1321 5.82706V10.1959C40.1308 10.2285 40.1176 10.2593 40.0953 10.2818C40.073 10.3044 40.0433 10.317 40.0123 10.3169H35.8699C35.839 10.317 35.8093 10.3044 35.787 10.2818C35.7646 10.2593 35.7514 10.2285 35.7502 10.1959V5.82706C35.7514 5.79447 35.7646 5.76368 35.787 5.74111C35.8093 5.71855 35.839 5.70597 35.8699 5.70599H35.8749ZM28.758 5.70599H32.9004C32.9308 5.70599 32.96 5.71875 32.9816 5.74145C33.0031 5.76416 33.0152 5.79495 33.0152 5.82706V10.1959C33.0152 10.228 33.0031 10.2588 32.9816 10.2815C32.96 10.3042 32.9308 10.3169 32.9004 10.3169H28.758C28.7279 10.3156 28.6994 10.3025 28.6782 10.28C28.6569 10.2576 28.6444 10.2276 28.6432 10.1959V5.82706C28.6444 5.79536 28.6569 5.76532 28.6782 5.74289C28.6994 5.72046 28.7279 5.70729 28.758 5.70599ZM21.646 15.1595H25.7834C25.8152 15.1595 25.8457 15.1728 25.8681 15.1965C25.8906 15.2202 25.9032 15.2523 25.9032 15.2858V19.6494C25.9032 19.6659 25.9001 19.6824 25.8941 19.6977C25.8881 19.713 25.8793 19.727 25.8681 19.7387C25.857 19.7504 25.8438 19.7597 25.8293 19.7661C25.8147 19.7724 25.7992 19.7757 25.7834 19.7757H21.646C21.6305 19.7757 21.6152 19.7724 21.6009 19.766C21.5866 19.7596 21.5738 19.7502 21.563 19.7384C21.5523 19.7266 21.544 19.7126 21.5385 19.6973C21.533 19.682 21.5306 19.6657 21.5312 19.6494V15.2647C21.5349 15.2354 21.5486 15.2086 21.5697 15.1892C21.5909 15.1698 21.618 15.1592 21.646 15.1595ZM35.8749 15.1595H40.0123C40.0374 15.1636 40.0606 15.176 40.0785 15.195C40.0965 15.2139 40.1082 15.2383 40.1122 15.2647V19.6283C40.1122 19.6618 40.0995 19.6939 40.0771 19.7176C40.0546 19.7413 40.0242 19.7546 39.9924 19.7546H35.8699C35.8382 19.7546 35.8077 19.7413 35.7852 19.7176C35.7628 19.6939 35.7502 19.6618 35.7502 19.6283V15.2647C35.7502 15.2312 35.7628 15.1991 35.7852 15.1754C35.8077 15.1517 35.8382 15.1384 35.8699 15.1384L35.8749 15.1595ZM28.758 15.1595H32.9004C32.9159 15.1595 32.9312 15.1628 32.9455 15.1692C32.9598 15.1756 32.9726 15.185 32.9834 15.1968C32.9941 15.2086 33.0024 15.2226 33.0079 15.2379C33.0134 15.2532 33.0158 15.2695 33.0152 15.2858V19.6494C33.0158 19.6657 33.0134 19.682 33.0079 19.6973C33.0024 19.7126 32.9941 19.7266 32.9834 19.7384C32.9726 19.7502 32.9598 19.7596 32.9455 19.766C32.9312 19.7724 32.9159 19.7757 32.9004 19.7757H28.758C28.7271 19.7743 28.6979 19.7604 28.6765 19.7369C28.6551 19.7133 28.6432 19.682 28.6432 19.6494V15.2647C28.6432 15.2321 28.6551 15.2008 28.6765 15.1772C28.6979 15.1537 28.7271 15.1398 28.758 15.1384V15.1595ZM21.646 34.0717H25.7834C25.8152 34.0717 25.8457 34.085 25.8681 34.1087C25.8906 34.1324 25.9032 34.1645 25.9032 34.198V38.5616C25.9032 38.5951 25.8906 38.6272 25.8681 38.6509C25.8457 38.6746 25.8152 38.6879 25.7834 38.6879H21.646C21.6305 38.6879 21.6152 38.6846 21.6009 38.6782C21.5866 38.6718 21.5738 38.6624 21.563 38.6506C21.5523 38.6388 21.544 38.6248 21.5385 38.6095C21.533 38.5942 21.5306 38.5779 21.5312 38.5616V34.2138C21.5306 34.1975 21.533 34.1812 21.5385 34.1659C21.544 34.1506 21.5523 34.1366 21.563 34.1248C21.5738 34.113 21.5866 34.1036 21.6009 34.0972C21.6152 34.0908 21.6305 34.0875 21.646 34.0875V34.0717ZM35.8749 34.0717H40.0123C40.0433 34.0769 40.0711 34.0947 40.0898 34.1213C40.1084 34.1478 40.1165 34.1811 40.1122 34.2138V38.5774C40.1122 38.6109 40.0995 38.643 40.0771 38.6667C40.0546 38.6904 40.0242 38.7037 39.9924 38.7037H35.8699C35.8382 38.7037 35.8077 38.6904 35.7852 38.6667C35.7628 38.643 35.7502 38.6109 35.7502 38.5774V34.2138C35.7502 34.1803 35.7628 34.1482 35.7852 34.1245C35.8077 34.1008 35.8382 34.0875 35.8699 34.0875L35.8749 34.0717ZM28.758 34.0717H32.9004C32.9159 34.0717 32.9312 34.075 32.9455 34.0814C32.9598 34.0878 32.9726 34.0972 32.9834 34.109C32.9941 34.1208 33.0024 34.1348 33.0079 34.1501C33.0134 34.1654 33.0158 34.1817 33.0152 34.198V38.5616C33.0158 38.5779 33.0134 38.5942 33.0079 38.6095C33.0024 38.6248 32.9941 38.6388 32.9834 38.6506C32.9726 38.6624 32.9598 38.6718 32.9455 38.6782C32.9312 38.6846 32.9159 38.6879 32.9004 38.6879H28.758C28.7271 38.6866 28.6979 38.6726 28.6765 38.6491C28.6551 38.6256 28.6432 38.5942 28.6432 38.5616V34.2138C28.6432 34.1812 28.6551 34.1499 28.6765 34.1263C28.6979 34.1028 28.7271 34.0889 28.758 34.0875V34.0717ZM21.646 24.6182H25.7834C25.8144 24.6182 25.8441 24.6308 25.8664 24.6533C25.8887 24.6759 25.9019 24.7067 25.9032 24.7393V29.1081C25.9032 29.1245 25.9001 29.1406 25.894 29.1557C25.8879 29.1707 25.879 29.1843 25.8678 29.1956C25.8567 29.2069 25.8434 29.2157 25.8289 29.2215C25.8144 29.2273 25.7989 29.2299 25.7834 29.2292H21.646C21.6156 29.2292 21.5864 29.2164 21.5648 29.1937C21.5433 29.171 21.5312 29.1402 21.5312 29.1081V24.7393C21.5312 24.7072 21.5433 24.6764 21.5648 24.6537C21.5864 24.631 21.6156 24.6182 21.646 24.6182ZM35.8749 24.6182H40.0123C40.0397 24.6231 40.0646 24.6378 40.0828 24.6599C40.101 24.682 40.1114 24.71 40.1122 24.7393V29.1081C40.1122 29.1245 40.1091 29.1406 40.103 29.1557C40.0969 29.1707 40.088 29.1843 40.0768 29.1956C40.0656 29.2069 40.0524 29.2157 40.0378 29.2215C40.0233 29.2273 40.0079 29.2299 39.9924 29.2292H35.8699C35.8545 29.2299 35.839 29.2273 35.8245 29.2215C35.81 29.2157 35.7967 29.2069 35.7855 29.1956C35.7743 29.1843 35.7654 29.1707 35.7593 29.1557C35.7533 29.1406 35.7501 29.1245 35.7502 29.1081V24.7393C35.7514 24.7067 35.7646 24.6759 35.787 24.6533C35.8093 24.6308 35.839 24.6182 35.8699 24.6182H35.8749ZM28.758 24.6182H32.9004C32.9308 24.6182 32.96 24.631 32.9816 24.6537C33.0031 24.6764 33.0152 24.7072 33.0152 24.7393V29.1081C33.0152 29.1402 33.0031 29.171 32.9816 29.1937C32.96 29.2164 32.9308 29.2292 32.9004 29.2292H28.758C28.7421 29.2306 28.7261 29.2286 28.711 29.2232C28.6959 29.2177 28.682 29.209 28.6703 29.1977C28.6585 29.1863 28.6492 29.1724 28.6428 29.157C28.6364 29.1416 28.6331 29.1249 28.6332 29.1081V24.7393C28.6344 24.7076 28.6469 24.6776 28.6682 24.6551C28.6895 24.6327 28.7179 24.6195 28.748 24.6182H28.758Z" fill="#00D4BB"></path></svg>
