<svg width="24" height="24" viewBox="0 0 45 45" fill="none" xmlns="http://www.w3.org/2000/svg" style="position: relative;"><path d="M26.7719 13.8889H7.22461C6.8543 13.8889 6.49916 13.7425 6.23732 13.4821C5.97547 13.2216 5.82837 12.8683 5.82837 12.5V6.94443C5.82837 6.57607 5.97547 6.22281 6.23732 5.96234C6.49916 5.70187 6.8543 5.55554 7.22461 5.55554H26.7719C27.1422 5.55554 27.4974 5.70187 27.7592 5.96234C28.0211 6.22281 28.1682 6.57607 28.1682 6.94443V12.5C28.1682 12.8683 28.0211 13.2216 27.7592 13.4821C27.4974 13.7425 27.1422 13.8889 26.7719 13.8889ZM8.62084 11.1111H25.3757V8.24998H8.62084V11.1111Z" fill="#00D4BB"></path><path d="M26.7719 16.7778H7.22461C6.8543 16.7778 6.49916 16.9241 6.23732 17.1846C5.97547 17.445 5.82837 17.7983 5.82837 18.1667V23.6111C5.82837 23.9795 5.97547 24.3327 6.23732 24.5932C6.49916 24.8537 6.8543 25 7.22461 25H23.0859L28.1682 19.8611V18.1667C28.1682 17.7983 28.0211 17.445 27.7592 17.1846C27.4974 16.9241 27.1422 16.7778 26.7719 16.7778ZM25.3757 22.2222H8.62084V19.4444H25.3757V22.2222Z" fill="#00D4BB"></path><path d="M12.8933 40.9861V40.9028L13.3401 38.9722H3.03588V2.77778H30.9606V17.0139L33.7531 14.3889V1.38889C33.7531 1.02053 33.606 0.667263 33.3442 0.406796C33.0823 0.146329 32.7272 0 32.3569 0H1.63965C1.26934 0 0.914202 0.146329 0.652357 0.406796C0.390511 0.667263 0.243408 1.02053 0.243408 1.38889V40.2778C0.243408 40.6461 0.390511 40.9994 0.652357 41.2599C0.914202 41.5203 1.26934 41.6667 1.63965 41.6667H12.8096C12.8211 41.4381 12.8491 41.2107 12.8933 40.9861V40.9861Z" fill="#00D4BB"></path><path d="M28.1682 23.8472L27.0791 24.9444C27.3493 24.889 27.5969 24.7553 27.7908 24.56C27.9846 24.3647 28.1159 24.1167 28.1682 23.8472Z" fill="#00D4BB"></path><path d="M5.82837 34.6389C5.82837 35.0072 5.97547 35.3605 6.23732 35.621C6.49916 35.8814 6.8543 36.0278 7.22461 36.0278H13.9824L14.4013 34.2222L14.5828 33.4583V33.3889H8.62085V30.5555H17.473L20.2655 27.7778H7.22461C6.8543 27.7778 6.49916 27.9241 6.23732 28.1846C5.97547 28.445 5.82837 28.7983 5.82837 29.1667V34.6389Z" fill="#00D4BB"></path><path d="M44.211 20.375L39.5057 15.6945C39.2968 15.4862 39.0488 15.3209 38.7756 15.2082C38.5025 15.0954 38.2097 15.0374 37.9139 15.0374C37.6182 15.0374 37.3254 15.0954 37.0523 15.2082C36.7791 15.3209 36.5311 15.4862 36.3222 15.6945L17.1798 34.8472L15.6021 41.5278C15.543 41.816 15.5417 42.113 15.5982 42.4017C15.6547 42.6904 15.7679 42.9652 15.9313 43.2104C16.0947 43.4555 16.3051 43.6661 16.5505 43.8302C16.7959 43.9944 17.0714 44.1087 17.3613 44.1667C17.5052 44.1811 17.6503 44.1811 17.7942 44.1667C17.9652 44.1944 18.1397 44.1944 18.3108 44.1667L25.0825 42.6806L44.211 23.6111C44.4199 23.4046 44.5858 23.159 44.699 22.8884C44.8121 22.6179 44.8704 22.3278 44.8704 22.0347C44.8704 21.7417 44.8121 21.4516 44.699 21.181C44.5858 20.9105 44.4199 20.6649 44.211 20.4584V20.375ZM23.6584 40.1528L18.5481 41.2778L19.7908 36.2361L34.1441 21.8056L38.0815 25.7222L23.6584 40.1528ZM39.6592 24.1528L35.7219 20.2361L37.9419 18.0556L41.9072 22L39.6592 24.1528Z" fill="#00D4BB"></path></svg>
