<svg width="20" height="20" viewBox="0 0 30 42" fill="none" xmlns="http://www.w3.org/2000/svg"><path fill-rule="evenodd" clip-rule="evenodd" d="M3.70233 5.20833C3.4246 5.20833 3.15824 5.31808 2.96186 5.51343C2.76548 5.70878 2.65515 5.97373 2.65515 6.25V38.5417C2.65515 38.8179 2.76548 39.0829 2.96186 39.2782C3.15824 39.4736 3.4246 39.5833 3.70233 39.5833H26.7402C27.018 39.5833 27.2843 39.4736 27.4807 39.2782C27.6771 39.0829 27.7874 38.8179 27.7874 38.5417V6.25C27.7874 5.97373 27.6771 5.70878 27.4807 5.51343C27.2843 5.31808 27.018 5.20833 26.7402 5.20833H20.8938V3.125H26.7402C27.5734 3.125 28.3725 3.45424 28.9616 4.04029C29.5508 4.62634 29.8818 5.4212 29.8818 6.25V38.5417C29.8818 39.3705 29.5508 40.1653 28.9616 40.7514C28.3725 41.3374 27.5734 41.6667 26.7402 41.6667H3.70233C2.86914 41.6667 2.07008 41.3374 1.48092 40.7514C0.891773 40.1653 0.560791 39.3705 0.560791 38.5417V6.25C0.560791 5.4212 0.891773 4.62634 1.48092 4.04029C2.07008 3.45424 2.86914 3.125 3.70233 3.125H9.54872V5.20833H3.70233Z" fill="#00D4BB"></path><path fill-rule="evenodd" clip-rule="evenodd" d="M7.89099 3.125C7.89099 2.2962 8.22197 1.50134 8.81113 0.915291C9.40028 0.32924 10.1993 0 11.0325 0H19.41C20.2431 0 21.0422 0.32924 21.6314 0.915291C22.2205 1.50134 22.5515 2.2962 22.5515 3.125V5.20833C22.5515 6.03713 22.2205 6.83199 21.6314 7.41804C21.0422 8.00409 20.2431 8.33333 19.41 8.33333H11.0325C10.1993 8.33333 9.40028 8.00409 8.81113 7.41804C8.22197 6.83199 7.89099 6.03713 7.89099 5.20833V3.125ZM11.0325 2.08333C10.7548 2.08333 10.4884 2.19308 10.2921 2.38843C10.0957 2.58378 9.98535 2.84873 9.98535 3.125V5.20833C9.98535 5.4846 10.0957 5.74955 10.2921 5.9449C10.4884 6.14025 10.7548 6.25 11.0325 6.25H19.41C19.6877 6.25 19.954 6.14025 20.1504 5.9449C20.3468 5.74955 20.4571 5.4846 20.4571 5.20833V3.125C20.4571 2.84873 20.3468 2.58378 20.1504 2.38843C19.954 2.19308 19.6877 2.08333 19.41 2.08333H11.0325Z" fill="#00D4BB"></path><path fill-rule="evenodd" clip-rule="evenodd" d="M5.79663 17.7084C5.79663 17.4321 5.90696 17.1671 6.10334 16.9718C6.29973 16.7764 6.56608 16.6667 6.84381 16.6667H14.1741C14.4518 16.6667 14.7181 16.7764 14.9145 16.9718C15.1109 17.1671 15.2212 17.4321 15.2212 17.7084C15.2212 17.9846 15.1109 18.2496 14.9145 18.4449C14.7181 18.6403 14.4518 18.75 14.1741 18.75H6.84381C6.56608 18.75 6.29973 18.6403 6.10334 18.4449C5.90696 18.2496 5.79663 17.9846 5.79663 17.7084Z" fill="#00D4BB"></path><path fill-rule="evenodd" clip-rule="evenodd" d="M5.79663 12.5C5.79663 12.2237 5.90696 11.9588 6.10334 11.7634C6.29973 11.5681 6.56608 11.4583 6.84381 11.4583H23.0751C23.3528 11.4583 23.6192 11.5681 23.8155 11.7634C24.0119 11.9588 24.1223 12.2237 24.1223 12.5C24.1223 12.7763 24.0119 13.0412 23.8155 13.2366C23.6192 13.4319 23.3528 13.5417 23.0751 13.5417H6.84381C6.56608 13.5417 6.29973 13.4319 6.10334 13.2366C5.90696 13.0412 5.79663 12.7763 5.79663 12.5Z" fill="#00D4BB"></path><path fill-rule="evenodd" clip-rule="evenodd" d="M7.89099 26.0416V28.125H9.98534V26.0416H7.89099ZM6.84381 23.9583C6.56608 23.9583 6.29973 24.0681 6.10334 24.2634C5.90696 24.4588 5.79663 24.7237 5.79663 25V29.1666C5.79663 29.4429 5.90696 29.7079 6.10334 29.9032C6.29973 30.0986 6.56608 30.2083 6.84381 30.2083H11.0325C11.3102 30.2083 11.5766 30.0986 11.773 29.9032C11.9694 29.7079 12.0797 29.4429 12.0797 29.1666V25C12.0797 24.7237 11.9694 24.4588 11.773 24.2634C11.5766 24.0681 11.3102 23.9583 11.0325 23.9583H6.84381Z" fill="#00D4BB"></path><path fill-rule="evenodd" clip-rule="evenodd" d="M19.41 26.0417C19.5513 26.0481 19.6924 26.026 19.8249 25.9767C19.9574 25.9273 20.0785 25.8518 20.1808 25.7547C20.2831 25.6575 20.3646 25.5407 20.4203 25.4114C20.4761 25.2821 20.5049 25.1428 20.505 25.0021C20.5051 24.8614 20.4766 24.7221 20.4212 24.5927C20.3657 24.4632 20.2845 24.3463 20.1823 24.249C20.0802 24.1516 19.9593 24.0758 19.8269 24.0263C19.6945 23.9767 19.5534 23.9543 19.4121 23.9604C19.1427 23.9721 18.8883 24.0868 18.7017 24.2804C18.5152 24.4741 18.4109 24.7318 18.4106 25C18.4104 25.2683 18.5141 25.5262 18.7003 25.7203C18.8864 25.9143 19.1406 26.0294 19.41 26.0417V26.0417ZM19.41 28.125C20.2432 28.125 21.0422 27.7958 21.6314 27.2097C22.2205 26.6237 22.5515 25.8288 22.5515 25C22.5515 24.1712 22.2205 23.3763 21.6314 22.7903C21.0422 22.2042 20.2432 21.875 19.41 21.875C18.5768 21.875 17.7777 22.2042 17.1886 22.7903C16.5994 23.3763 16.2684 24.1712 16.2684 25C16.2684 25.8288 16.5994 26.6237 17.1886 27.2097C17.7777 27.7958 18.5768 28.125 19.41 28.125V28.125Z" fill="#00D4BB"></path><path fill-rule="evenodd" clip-rule="evenodd" d="M15.2213 32.5833C15.2396 32.562 15.2588 32.5415 15.2789 32.5218C15.4506 32.3552 15.7815 32.1343 16.3009 31.9145C17.3481 31.4718 18.6403 31.25 19.41 31.25C20.1797 31.25 21.4719 31.4718 22.5191 31.9145C23.0385 32.1333 23.3694 32.3552 23.5411 32.5218C23.5612 32.5411 23.5804 32.5613 23.5987 32.5823V34.375H15.2213V32.5833ZM19.41 29.1666C17.3125 29.1666 13.127 30.277 13.127 32.4812V36.4583H25.6931V32.4812C25.6931 30.277 21.5075 29.1666 19.41 29.1666Z" fill="#00D4BB"></path></svg>
