<svg width="20" height="20" viewBox="0 0 29 40" fill="none" xmlns="http://www.w3.org/2000/svg"><path fill-rule="evenodd" clip-rule="evenodd" d="M7.87292 3C7.87292 2.20435 8.19067 1.44129 8.75625 0.87868C9.32184 0.316071 10.0889 0 10.8888 0H18.9311C19.731 0 20.4981 0.316071 21.0637 0.87868C21.6293 1.44129 21.947 2.20435 21.947 3V5C21.947 5.79565 21.6293 6.55871 21.0637 7.12132C20.4981 7.68393 19.731 8 18.9311 8H10.8888C10.0889 8 9.32184 7.68393 8.75625 7.12132C8.19067 6.55871 7.87292 5.79565 7.87292 5V3ZM10.8888 2C10.6222 2 10.3665 2.10536 10.178 2.29289C9.98942 2.48043 9.88351 2.73478 9.88351 3V5C9.88351 5.26522 9.98942 5.51957 10.178 5.70711C10.3665 5.89464 10.6222 6 10.8888 6H18.9311C19.1978 6 19.4535 5.89464 19.642 5.70711C19.8305 5.51957 19.9364 5.26522 19.9364 5V3C19.9364 2.73478 19.8305 2.48043 19.642 2.29289C19.4535 2.10536 19.1978 2 18.9311 2H10.8888Z" fill="#00D4BB"></path><path fill-rule="evenodd" clip-rule="evenodd" d="M8.87827 3H3.85181C3.05195 3 2.28485 3.31607 1.71927 3.87868C1.15368 4.44129 0.835938 5.20435 0.835938 6V37C0.835938 37.7956 1.15368 38.5587 1.71927 39.1213C2.28485 39.6839 3.05195 40 3.85181 40H25.9682C26.7681 40 27.5352 39.6839 28.1008 39.1213C28.6663 38.5587 28.9841 37.7956 28.9841 37V6C28.9841 5.20435 28.6663 4.44129 28.1008 3.87868C27.5352 3.31607 26.7681 3 25.9682 3H20.9418V5C20.9418 5.53043 20.7299 6.03914 20.3529 6.41421C19.9758 6.78929 19.4644 7 18.9312 7H10.8888C10.3556 7 9.84421 6.78929 9.46715 6.41421C9.09009 6.03914 8.87827 5.53043 8.87827 5V3ZM5.86239 17C5.86239 16.7348 5.96831 16.4804 6.15684 16.2929C6.34536 16.1054 6.60106 16 6.86768 16H13.9047C14.1713 16 14.427 16.1054 14.6156 16.2929C14.8041 16.4804 14.91 16.7348 14.91 17C14.91 17.2652 14.8041 17.5196 14.6156 17.7071C14.427 17.8946 14.1713 18 13.9047 18H6.86768C6.60106 18 6.34536 17.8946 6.15684 17.7071C5.96831 17.5196 5.86239 17.2652 5.86239 17ZM6.86768 11C6.60106 11 6.34536 11.1054 6.15684 11.2929C5.96831 11.4804 5.86239 11.7348 5.86239 12C5.86239 12.2652 5.96831 12.5196 6.15684 12.7071C6.34536 12.8946 6.60106 13 6.86768 13H22.4497C22.7163 13 22.972 12.8946 23.1605 12.7071C23.3491 12.5196 23.455 12.2652 23.455 12C23.455 11.7348 23.3491 11.4804 23.1605 11.2929C22.972 11.1054 22.7163 11 22.4497 11H6.86768ZM7.87297 25V27H9.88356V25H7.87297ZM6.86768 23C6.60106 23 6.34536 23.1054 6.15684 23.2929C5.96831 23.4804 5.86239 23.7348 5.86239 24V28C5.86239 28.2652 5.96831 28.5196 6.15684 28.7071C6.34536 28.8946 6.60106 29 6.86768 29H10.8888C11.1555 29 11.4112 28.8946 11.5997 28.7071C11.7882 28.5196 11.8941 28.2652 11.8941 28V24C11.8941 23.7348 11.7882 23.4804 11.5997 23.2929C11.4112 23.1054 11.1555 23 10.8888 23H6.86768ZM21.947 25C21.947 25.7956 21.6293 26.5587 21.0637 27.1213C20.4981 27.6839 19.731 28 18.9312 28C18.1313 28 17.3642 27.6839 16.7986 27.1213C16.233 26.5587 15.9153 25.7956 15.9153 25C15.9153 24.2044 16.233 23.4413 16.7986 22.8787C17.3642 22.3161 18.1313 22 18.9312 22C19.731 22 20.4981 22.3161 21.0637 22.8787C21.6293 23.4413 21.947 24.2044 21.947 25V25ZM18.9312 29.318C16.9176 29.318 12.8994 30.384 12.8994 32.5V35H24.9629V32.5C24.9629 30.384 20.9448 29.318 18.9312 29.318Z" fill="#00D4BB"></path></svg>
