<svg width="24" height="24" viewBox="0 0 38 38" fill="none" xmlns="http://www.w3.org/2000/svg"><path d="M2.09436 20.8333H14.6605C15.216 20.8333 15.7487 20.6138 16.1414 20.2231C16.5342 19.8324 16.7549 19.3025 16.7549 18.75V2.08333C16.7549 1.5308 16.5342 1.00089 16.1414 0.610194C15.7487 0.219493 15.216 0 14.6605 0H2.09436C1.5389 0 1.00619 0.219493 0.613423 0.610194C0.220655 1.00089 0 1.5308 0 2.08333V18.75C0 19.3025 0.220655 19.8324 0.613423 20.2231C1.00619 20.6138 1.5389 20.8333 2.09436 20.8333ZM0 35.4167C0 35.9692 0.220655 36.4991 0.613423 36.8898C1.00619 37.2805 1.5389 37.5 2.09436 37.5H14.6605C15.216 37.5 15.7487 37.2805 16.1414 36.8898C16.5342 36.4991 16.7549 35.9692 16.7549 35.4167V27.0833C16.7549 26.5308 16.5342 26.0009 16.1414 25.6102C15.7487 25.2195 15.216 25 14.6605 25H2.09436C1.5389 25 1.00619 25.2195 0.613423 25.6102C0.220655 26.0009 0 26.5308 0 27.0833V35.4167ZM20.9436 35.4167C20.9436 35.9692 21.1642 36.4991 21.557 36.8898C21.9498 37.2805 22.4825 37.5 23.0379 37.5H35.6041C36.1595 37.5 36.6922 37.2805 37.085 36.8898C37.4778 36.4991 37.6984 35.9692 37.6984 35.4167V20.8333C37.6984 20.2808 37.4778 19.7509 37.085 19.3602C36.6922 18.9695 36.1595 18.75 35.6041 18.75H23.0379C22.4825 18.75 21.9498 18.9695 21.557 19.3602C21.1642 19.7509 20.9436 20.2808 20.9436 20.8333V35.4167ZM23.0379 14.5833H35.6041C36.1595 14.5833 36.6922 14.3638 37.085 13.9731C37.4778 13.5824 37.6984 13.0525 37.6984 12.5V2.08333C37.6984 1.5308 37.4778 1.00089 37.085 0.610194C36.6922 0.219493 36.1595 0 35.6041 0H23.0379C22.4825 0 21.9498 0.219493 21.557 0.610194C21.1642 1.00089 20.9436 1.5308 20.9436 2.08333V12.5C20.9436 13.0525 21.1642 13.5824 21.557 13.9731C21.9498 14.3638 22.4825 14.5833 23.0379 14.5833Z" fill="#00D4BB"></path></svg>
