<svg width="20" height="20" viewBox="0 0 52 46" fill="none" xmlns="http://www.w3.org/2000/svg"><g clip-path="url(#clip0_8_250)"><path d="M43.9469 28.9613C44.1516 28.9614 44.3517 29.0326 44.5225 29.166C44.6932 29.2993 44.8271 29.489 44.9075 29.7114L51.8772 44.1846C52.0677 44.6197 51.983 45.4949 51.9746 46H0.0211182V44.7497C0.0234769 44.5251 0.0776101 44.3055 0.177694 44.1146L7.24475 29.6114C7.33272 29.4137 7.46478 29.2481 7.62663 29.1326C7.78849 29.0171 7.97398 28.9562 8.16305 28.9563H21.1588L18.2854 23.1C18.1181 22.8573 17.9667 22.5998 17.8326 22.3298L17.3841 21.4046C17.345 21.4513 17.3009 21.4916 17.2529 21.5247L16.5081 22.0248L16.3769 22.0948C15.9616 22.3216 15.4948 22.3809 15.0482 22.2634C14.6017 22.1459 14.2002 21.8582 13.9056 21.4446C13.8521 21.5314 13.7845 21.6045 13.7067 21.6597L12.9619 22.1598C12.9201 22.1866 12.8761 22.2084 12.8307 22.2248C12.3838 22.4666 11.8796 22.517 11.4047 22.3673C10.9298 22.2177 10.5138 21.8773 10.2281 21.4046C10.208 21.4416 10.1838 21.4752 10.1562 21.5047L9.41142 22.0048L9.28023 22.0748C7.05432 23.075 5.89482 20.6745 4.98075 18.7241L4.73108 18.2239L3.60543 16.0035L3.57157 15.9334C2.71676 14.003 2.75061 12.3177 2.7887 10.3972C2.7887 10.0722 2.7887 9.7471 2.7887 9.292C2.7887 9.292 2.7887 9.292 2.7887 9.262C2.76948 8.32912 2.92708 7.40298 3.24996 6.55141C3.54868 5.79212 4.03962 5.16125 4.65491 4.74602L11.0787 0.35006C11.3734 0.132149 11.7119 0.0112245 12.0594 -0.000205672C12.4068 -0.0116359 12.7505 0.0868437 13.055 0.285046C13.7144 0.718892 14.2816 1.32429 14.7138 2.05543L22.039 6.09131H22.0686C22.1617 6.14132 22.2633 6.19133 22.3733 6.25634L25.691 4.00085L37.887 28.9613H43.9469ZM21.582 24.4253L25.3906 32.297C25.6339 32.1303 25.9026 32.022 26.1814 31.9783C26.4602 31.9346 26.7435 31.9563 27.0152 32.0423C27.2868 32.1282 27.5415 32.2767 27.7645 32.4792C27.9875 32.6816 28.1745 32.9342 28.3147 33.2222L33.2786 29.8365C32.996 29.2552 32.9197 28.5652 33.0664 27.9176C33.2131 27.27 33.5709 26.7174 34.0615 26.3807L26.11 10.0722C25.6174 10.4064 25.033 10.4967 24.4843 10.3233C23.9356 10.15 23.4673 9.72707 23.1816 9.14697L19.373 11.7525L19.5253 12.0576L22.6145 18.404C22.9452 17.9397 23.3419 17.547 23.7867 17.2437C24.5171 16.7445 25.3563 16.5124 26.1982 16.5769C27.0402 16.6413 27.847 16.9994 28.5168 17.6058C29.1865 18.2123 29.689 19.0398 29.9608 19.9837C30.2325 20.9277 30.2613 21.9457 30.0435 22.909C29.8257 23.8723 29.371 24.7376 28.737 25.3955C28.103 26.0534 27.3182 26.4743 26.4817 26.605C25.6453 26.7358 24.7949 26.5704 24.038 26.1299C23.281 25.6894 22.6517 24.9935 22.2295 24.1302L22.1998 24.0702L22.0813 24.1502C21.9169 24.2641 21.7423 24.3564 21.5608 24.4253H21.582ZM18.1035 9.17698L20.7356 7.37159L13.9352 4.00085C13.8419 3.94954 13.7617 3.87022 13.7024 3.7708C13.3644 3.16736 12.9216 2.6559 12.4033 2.27048C12.2818 2.18455 12.1428 2.13917 12.0013 2.13917C11.8597 2.13917 11.7207 2.18455 11.5992 2.27048L5.42932 6.5014C5.03662 6.77322 4.72472 7.18201 4.53642 7.67165C4.31213 8.22177 4.37984 8.7969 4.37984 9.63208C4.38169 9.647 4.38169 9.66216 4.37984 9.67709C4.37984 9.99216 4.37984 10.4022 4.37984 10.7973C4.34599 12.5127 4.15979 13.4979 4.8665 15.1183L5.96676 17.2637C5.98839 17.2896 6.00563 17.3202 6.01754 17.3538C6.01754 17.3838 6.13179 17.5888 6.26298 17.8539C6.95276 19.2992 7.79911 21.0896 9.02209 20.5495L9.56799 20.1744C9.37756 19.7643 9.1956 19.3392 9.02209 18.9291C8.84859 18.519 8.72164 18.2039 8.56083 17.8789C8.51999 17.7958 8.49339 17.704 8.48255 17.6088C8.47172 17.5136 8.47686 17.4167 8.49769 17.3239C8.51851 17.231 8.55462 17.1439 8.60393 17.0675C8.65325 16.9911 8.71482 16.9269 8.78512 16.8787C8.85541 16.8304 8.93307 16.7989 9.01365 16.7861C9.09423 16.7733 9.17615 16.7794 9.25474 16.804C9.33333 16.8286 9.40705 16.8713 9.47169 16.9296C9.53633 16.9879 9.59062 17.0606 9.63147 17.1437C9.79228 17.4738 9.96155 17.8689 10.1351 18.279C10.7275 19.6843 11.4046 21.2796 12.4075 20.8595L13.1184 20.3594C13.1596 20.3347 13.202 20.313 13.2454 20.2944C13 19.7943 12.7757 19.2942 12.5641 18.7941C12.4075 18.424 12.2636 18.0739 12.1028 17.7438C12.0516 17.6617 12.0155 17.5677 11.9969 17.4681C11.9783 17.3684 11.9775 17.2652 11.9947 17.1652C12.0119 17.0652 12.0467 16.9705 12.0968 16.8873C12.1468 16.8042 12.2111 16.7343 12.2854 16.6823C12.3598 16.6304 12.4425 16.5973 12.5283 16.5855C12.614 16.5736 12.701 16.5831 12.7835 16.6134C12.8659 16.6436 12.9421 16.694 13.0071 16.7613C13.0721 16.8285 13.1245 16.9111 13.1608 17.0037C13.3216 17.3288 13.4866 17.7288 13.6643 18.1389C14.2526 19.5392 14.9339 21.1396 15.9326 20.7195L16.6477 20.2194C16.6949 20.1851 16.7463 20.1598 16.8001 20.1444L15.594 17.7038C15.5115 17.536 15.4888 17.3364 15.5309 17.1488C15.573 16.9613 15.6763 16.8011 15.8183 16.7036C15.9603 16.6061 16.1292 16.5793 16.2879 16.629C16.4467 16.6787 16.5822 16.8009 16.6647 16.9687L18.9287 21.5997C19.4703 22.7099 20.1982 23.155 20.833 23.1C21.0581 23.0865 21.2773 23.0093 21.472 22.875C21.5709 22.8096 21.662 22.7289 21.7428 22.6349C21.7428 22.5749 21.7893 22.5449 21.8444 22.5099C21.8871 22.4559 21.9253 22.3973 21.9586 22.3348C22.1303 21.9755 22.2205 21.5698 22.2205 21.1571C22.2205 20.7444 22.1303 20.3387 21.9586 19.9793V19.9393C21.9163 19.8343 21.8655 19.7243 21.8147 19.6143L17.0752 10.0022C16.9974 9.84112 16.9741 9.65132 17.0098 9.4708C17.0455 9.29027 17.1375 9.13234 17.2675 9.02863C17.3976 8.92492 17.556 8.8831 17.711 8.91154C17.866 8.93997 18.0062 9.03657 18.1035 9.18198V9.17698ZM22.3352 31.4268H8.76819L2.76754 43.5094H49.2493L43.3248 31.4068H36.0419L29.1103 36.1578H35.5087C35.6513 36.1471 35.7942 36.171 35.9287 36.2281C36.0631 36.2852 36.1862 36.3743 36.2904 36.4898C36.3946 36.6053 36.4777 36.7449 36.5344 36.8998C36.5912 37.0547 36.6205 37.2218 36.6205 37.3906C36.6205 37.5594 36.5912 37.7265 36.5344 37.8814C36.4777 38.0364 36.3946 38.1759 36.2904 38.2914C36.1862 38.407 36.0631 38.496 35.9287 38.5531C35.7942 38.6102 35.6513 38.6341 35.5087 38.6234H18.0146C17.8726 38.6341 17.7302 38.6103 17.5963 38.5534C17.4624 38.4966 17.3398 38.4079 17.236 38.2928C17.1322 38.1778 17.0495 38.0388 16.993 37.8845C16.9364 37.7302 16.9073 37.5638 16.9073 37.3956C16.9073 37.2275 16.9364 37.0611 16.993 36.9067C17.0495 36.7524 17.1322 36.6135 17.236 36.4984C17.3398 36.3833 17.4624 36.2946 17.5963 36.2378C17.7302 36.1809 17.8726 36.1571 18.0146 36.1678H24.667L22.3522 31.4368L22.3352 31.4268Z" fill="#00D4BB"></path></g><defs><clipPath id="clip0_8_250"><rect width="52" height="46" fill="white"></rect></clipPath></defs></svg>
