<svg width="20" height="20" viewBox="0 0 72 66" fill="none" xmlns="http://www.w3.org/2000/svg"><path fill-rule="evenodd" clip-rule="evenodd" d="M15.2094 57.3363V32.3816H25.2506C29.5059 33.233 33.7618 35.8158 38.0172 38.8097H45.8157C49.3461 39.0455 51.1955 43.048 47.7627 45.6763C45.0298 47.9207 41.4209 47.7921 37.7215 47.4206C35.1704 47.2784 35.0618 51.1114 37.7215 51.1244C38.6474 51.2056 39.6499 50.9627 40.5259 50.9627C45.1384 50.9549 48.9412 49.969 51.2681 45.8925L52.4357 42.8447L64.0359 36.4172C69.8397 34.2812 73.9684 41.0672 69.6887 45.7919C61.2855 52.6252 52.6703 58.2487 43.8576 62.7909C37.456 67.1441 31.0533 66.9947 24.6575 62.7909L15.2094 57.3363ZM53.731 17.9784C54.9269 17.9784 55.8842 18.3616 56.6137 19.1207C57.3398 19.8838 57.7063 20.8963 57.7063 22.1621C57.7063 23.4233 57.3398 24.4396 56.6137 25.1995C55.8842 25.9619 54.9269 26.3418 53.731 26.3418C52.535 26.3418 51.5731 25.9619 50.8447 25.1995C50.1186 24.4357 49.7556 23.4233 49.7556 22.1621C49.7556 20.8963 50.1186 19.8838 50.8447 19.1207C51.5731 18.3616 52.5356 17.9784 53.731 17.9784ZM48.1722 0C57.3253 0 64.7457 8.29592 64.7457 18.5304C64.7457 28.7642 57.3253 37.0608 48.1722 37.0608C39.0191 37.0608 31.5987 28.7649 31.5987 18.5304C31.5987 8.29592 39.0191 0 48.1722 0ZM48.1722 3.49268C55.5996 3.49268 61.6213 10.2254 61.6213 18.5304C61.6213 26.8354 55.5996 33.5681 48.1722 33.5681C40.7437 33.5681 34.7226 26.8361 34.7226 18.5311C34.7226 10.226 40.7437 3.49268 48.1722 3.49268ZM51.2908 11.3262H54.5261L45.0513 25.7346H41.8159L51.2908 11.3262ZM53.731 20.8723C53.3813 20.8723 53.1129 20.9879 52.9276 21.208C52.7441 21.4386 52.6494 21.7497 52.6494 22.1666C52.6494 22.5777 52.7435 22.8933 52.9276 23.1193C53.1123 23.3453 53.3813 23.4557 53.731 23.4557C54.0771 23.4557 54.3461 23.3408 54.5308 23.1193C54.7143 22.8933 54.809 22.5777 54.809 22.1666C54.809 21.7497 54.7138 21.434 54.5308 21.208C54.3507 20.9827 54.0818 20.8723 53.731 20.8723ZM42.5687 13.6246C42.2179 13.6246 41.9524 13.7395 41.7689 13.961C41.5853 14.1863 41.4906 14.5026 41.4906 14.9137C41.4906 15.3254 41.5847 15.6463 41.7689 15.8716C41.9524 16.0924 42.2179 16.208 42.5687 16.208C42.9184 16.208 43.1867 16.0924 43.3709 15.8716C43.5544 15.6411 43.6445 15.3254 43.6445 14.9137C43.6445 14.5026 43.555 14.1863 43.3709 13.961C43.192 13.7395 42.923 13.6246 42.5687 13.6246ZM42.5676 10.73C43.7635 10.73 44.7254 11.1093 45.455 11.873C46.1799 12.6361 46.5429 13.6486 46.5429 14.9104C46.5429 16.1762 46.1799 17.1887 45.455 17.9518C44.7254 18.7148 43.7635 19.0941 42.5676 19.0941C41.3727 19.0941 40.4143 18.711 39.6848 17.9518C38.9587 17.1887 38.5922 16.1762 38.5922 14.9104C38.5922 13.6492 38.9587 12.6329 39.6848 11.873C40.4143 11.1099 41.3733 10.73 42.5676 10.73ZM0.0793457 29.9826H12.1866V59.8437H0.0793457V29.9826Z" fill="#00D4BB"></path></svg>
