<svg width="20" height="20" viewBox="0 0 60 62" fill="none" xmlns="http://www.w3.org/2000/svg"><g clip-path="url(#clip0_12_145)"><path d="M0 29.6074V27.0241L20.0017 44.5928L0.261197 60.1332C0.0891463 59.7404 0.00020139 59.316 0 58.8869L0 29.6226V29.6074ZM41.1888 26.5801C41.158 27.6387 40.9892 28.6888 40.6865 29.7033C40.4201 30.5872 39.9982 31.416 39.4408 32.1504C38.9314 32.8273 38.2729 33.3764 37.5169 33.7549C36.7557 34.1235 35.9209 34.3133 35.0758 34.3099C34.7153 34.3124 34.3559 34.27 34.0059 34.1838C33.6705 34.1018 33.3478 33.9745 33.0465 33.8054C32.7531 33.6427 32.4856 33.4369 32.2528 33.1948C32.1266 33.0663 32.0107 32.928 31.9062 32.7811C31.4893 33.2609 30.9717 33.6418 30.3906 33.8966C29.8096 34.1513 29.1795 34.2735 28.5458 34.2544C28.1161 34.2572 27.6888 34.1908 27.28 34.0576C26.8827 33.9203 26.5109 33.7173 26.18 33.4572C25.8445 33.1897 25.5545 32.8694 25.3211 32.5086C25.0643 32.1146 24.8632 31.6867 24.7233 31.2372C24.4196 30.2122 24.3256 29.136 24.447 28.0736C24.5592 27.0449 24.8058 26.0355 25.1804 25.0715C25.5194 24.2054 25.9999 23.4023 26.6019 22.695C27.1545 22.0386 27.8393 21.5072 28.6111 21.1359C29.3658 20.7902 30.1878 20.6178 31.0172 20.6314C31.6388 20.6266 32.2585 20.7029 32.8606 20.8584C33.4245 21.0075 33.9617 21.2441 34.4529 21.5597L35.2717 22.1097C35.3192 22.1425 35.3572 22.1872 35.3819 22.2395C35.4066 22.2918 35.4171 22.3497 35.4123 22.4074L34.7141 29.9505C34.6308 30.3295 34.6823 30.7259 34.8598 31.0707C34.9534 31.1821 35.073 31.2686 35.208 31.3223C35.343 31.376 35.4891 31.3953 35.6333 31.3784C35.9266 31.377 36.2112 31.2776 36.442 31.0959C36.7497 30.8338 36.9981 30.5087 37.1704 30.1423C37.4192 29.6644 37.6033 29.1554 37.7179 28.6286C37.8561 27.9932 37.9351 27.3462 37.9539 26.6961C38.0376 25.4421 37.9275 24.1826 37.6275 22.9624C37.3748 21.9627 36.901 21.0331 36.2411 20.2428C35.6086 19.4987 34.8028 18.9233 33.8954 18.5677C32.8556 18.1746 31.7512 17.9828 30.6404 18.0026C29.8849 17.9979 29.1325 18.0998 28.4052 18.3053C27.7097 18.5072 27.0478 18.8115 26.4412 19.2085C25.8169 19.6175 25.2552 20.1155 24.7735 20.6869C24.2667 21.2911 23.838 21.9574 23.4977 22.6698C23.1314 23.4381 22.8469 24.2431 22.6488 25.0715C22.4416 25.9696 22.3172 26.8851 22.2771 27.8062C22.191 29.1103 22.3011 30.4201 22.6036 31.6913C22.8517 32.721 23.3272 33.6815 23.995 34.5016C24.6364 35.2631 25.4588 35.8497 26.3859 36.207C27.4732 36.6129 28.6268 36.8097 29.7865 36.7873C30.149 36.787 30.5112 36.7667 30.8715 36.7267C31.2432 36.6864 31.63 36.6208 32.0167 36.5401C32.4035 36.4593 32.7602 36.3736 33.0816 36.2777C33.3721 36.1924 33.6573 36.0896 33.9355 35.9699C33.9744 35.9533 34.0162 35.9445 34.0585 35.9442C34.1008 35.9438 34.1427 35.9518 34.1819 35.9677C34.2211 35.9837 34.2568 36.0072 34.2869 36.037C34.317 36.0668 34.341 36.1023 34.3575 36.1414C34.3619 36.1699 34.3619 36.1988 34.3575 36.2272L34.8648 38.3464C34.8772 38.4111 34.8705 38.4781 34.8455 38.539C34.8205 38.6 34.7783 38.6523 34.7241 38.6895C34.4081 38.893 34.0713 39.0621 33.7195 39.194C33.3161 39.3529 32.9014 39.4811 32.4789 39.5775C32.027 39.6867 31.5691 39.7693 31.1076 39.8247C30.6491 39.8791 30.1879 39.9061 29.7262 39.9054C27.6031 39.972 25.4985 39.4908 23.6132 38.5078C22.7871 38.0545 22.0419 37.4662 21.4081 36.7671C20.7673 36.0486 20.2435 35.2329 19.856 34.3503C19.4384 33.3915 19.1463 32.3824 18.987 31.3482C18.8014 30.1587 18.7358 28.9534 18.7911 27.7507C18.8356 26.5823 19.004 25.4219 19.2934 24.2894C19.5668 23.217 19.9646 22.1806 20.4789 21.2015C20.9662 20.2798 21.5744 19.4279 22.2871 18.6686C22.9862 17.9165 23.7878 17.2676 24.6681 16.7412C25.5547 16.2132 26.5097 15.8108 27.5061 15.5454C28.5404 15.2715 29.6059 15.1341 30.6756 15.1367C32.69 15.084 34.6825 15.5661 36.4521 16.5344C37.2536 16.9897 37.979 17.5686 38.6019 18.2498C39.217 18.9415 39.725 19.7222 40.1088 20.5658C40.5261 21.4644 40.8233 22.4145 40.9929 23.3913C41.1765 24.4486 41.2422 25.5233 41.1888 26.5952V26.5801ZM28.2796 28.0938C28.2369 28.562 28.2369 29.0332 28.2796 29.5015C28.3057 29.8324 28.3873 30.1565 28.5207 30.4601C28.6113 30.6634 28.7555 30.8378 28.9376 30.9647C29.1167 31.0765 29.3246 31.1327 29.5354 31.1261C29.6899 31.1258 29.8426 31.0914 29.9824 31.0252C30.1471 30.9398 30.2951 30.8253 30.4194 30.6872C30.5828 30.509 30.7229 30.3107 30.8363 30.0969C30.9742 29.8415 31.0902 29.5748 31.1829 29.2997L31.6852 23.7495H31.5998C31.4761 23.7413 31.3519 23.7413 31.2281 23.7495C30.8374 23.7425 30.4504 23.8271 30.0979 23.9968C29.7664 24.1669 29.4818 24.4164 29.2691 24.7233C28.9984 25.1429 28.795 25.6026 28.6664 26.0856C28.4871 26.7466 28.3644 27.4218 28.2997 28.1039L28.2796 28.0938ZM0.0753453 21.9331C0.502302 20.2529 2.87317 19.1732 4.1892 18.2347V11.0246C4.1892 10.2217 4.50673 9.45167 5.07193 8.88393C5.63713 8.31619 6.4037 7.99724 7.20301 7.99724H18.4897L29.2641 0.287608C29.5399 0.0940399 29.8686 -0.00892485 30.205 -0.00711773C30.5414 -0.00531061 30.869 0.10118 31.1427 0.297699L41.7313 7.99724H52.7819C53.5812 7.99724 54.3478 8.31619 54.913 8.88393C55.4782 9.45167 55.7957 10.2217 55.7957 11.0246V18.2145C57.2122 19.2236 59.9849 20.596 59.9849 22.4982V22.5739L52.797 28.674V11.0145H7.20301V28.1694L0.0753453 21.9331ZM60 27.6397V58.8869C60.0012 59.6115 59.7487 60.3134 59.2867 60.8698L39.3503 45.1226L60 27.6397ZM54.4747 62H4.14902L22.9602 47.1913L28.5609 52.1107C28.9205 52.4275 29.3848 52.5984 29.8631 52.59C30.3414 52.5816 30.7994 52.3946 31.1478 52.0653L36.3315 47.6807L54.4596 62H54.4747Z" fill="#00D4BB"></path></g><defs><clipPath id="clip0_12_145"><rect width="60" height="62" fill="white"></rect></clipPath></defs></svg>
