<svg width="24" height="24" viewBox="0 0 81 70" fill="none" xmlns="http://www.w3.org/2000/svg"><path fill-rule="evenodd" clip-rule="evenodd" d="M12.6859 44.1243V68.8591C12.679 69.1556 12.5519 69.4378 12.3317 69.6451C12.1115 69.8525 11.8158 69.9686 11.5078 69.9685H1.36326C1.0564 69.9686 0.761606 69.8534 0.541591 69.6474C0.321576 69.4414 0.193704 69.1608 0.185181 68.8654L0.185181 44.1243H12.6859ZM27.0191 1.53085e-06C29.686 1.83348e-06 32.2929 0.761726 34.5102 2.18883C36.7275 3.61594 38.4556 5.64431 39.4759 8.0174C40.4961 10.3905 40.7628 13.0017 40.242 15.5207C39.7212 18.0398 38.4365 20.3535 36.5503 22.1693C34.6641 23.985 32.2612 25.2212 29.6454 25.7215C27.0296 26.2219 24.3186 25.9638 21.8551 24.98C19.3916 23.9963 17.2864 22.3309 15.8057 20.1947C14.325 18.0585 13.5354 15.5473 13.5367 12.9788C13.5367 11.2739 13.8855 9.58567 14.5631 8.0106C15.2408 6.43552 16.234 5.00446 17.486 3.79919C18.7381 2.59391 20.2244 1.63802 21.8601 0.986147C23.4958 0.33427 25.2489 -0.00082651 27.0191 1.53085e-06ZM25.8672 6.69428V5.38947H27.7325V6.65016C27.9616 6.65016 28.1907 6.65016 28.387 6.70689C28.8648 6.75732 29.3098 6.81405 29.696 6.88969C30.0821 6.96533 30.4944 7.03467 30.8282 7.11031V9.66952C30.2981 9.62539 29.7025 9.58757 29.0415 9.56236C28.3805 9.53715 27.7783 9.51824 27.2416 9.51824C26.9521 9.51673 26.663 9.53993 26.3777 9.58757C26.1598 9.61551 25.9562 9.70803 25.7952 9.85232C25.7205 9.92973 25.6633 10.0213 25.6272 10.1211C25.5912 10.2209 25.5771 10.3269 25.5858 10.4322V10.6024C25.578 10.7208 25.5988 10.8393 25.6465 10.9486C25.6942 11.058 25.7675 11.1552 25.8607 11.2328C26.1083 11.3952 26.4064 11.4708 26.705 11.4471H27.8438C28.5421 11.422 29.235 11.5742 29.853 11.8883C30.3707 12.1635 30.792 12.5803 31.0638 13.086C31.3389 13.618 31.4759 14.2063 31.4631 14.8005V15.3489C31.5353 16.1848 31.3558 17.023 30.946 17.7632C30.5749 18.324 30.0014 18.7327 29.336 18.9104C28.8128 19.0522 28.2751 19.1388 27.7325 19.1688V20.5997H25.8672V19.1499H25.7101C25.3502 19.1499 24.9902 19.0932 24.6433 19.0491C24.2965 19.005 23.9888 18.9545 23.6354 18.8978C23.282 18.8411 22.9809 18.778 22.6995 18.7024V16.1369C23.0922 16.1369 23.5176 16.1999 23.9692 16.2188C24.4208 16.2377 24.8855 16.2566 25.3502 16.2692H26.6592C26.9775 16.2726 27.2955 16.2452 27.6082 16.1873C27.8189 16.1489 28.0153 16.0576 28.1776 15.9226C28.2421 15.8547 28.2921 15.7752 28.3246 15.6886C28.3572 15.6021 28.3717 15.5102 28.3674 15.4183V15.2229C28.3741 15.1171 28.353 15.0114 28.3061 14.9156C28.2592 14.8197 28.188 14.7368 28.099 14.6745C27.9086 14.5441 27.6779 14.4796 27.4445 14.4917H26.5283C25.4432 14.5642 24.3667 14.2626 23.4914 13.6407C22.802 13.0776 22.4573 12.1321 22.4573 10.8041V10.2747C22.4235 9.76832 22.5096 9.2612 22.7092 8.79163C22.9087 8.32206 23.2165 7.90232 23.6092 7.56416C24.2639 7.0828 25.0468 6.78993 25.8672 6.7195V6.69428ZM0.185181 36.0495L14.0407 24.3755L14.5904 24.9302C16.8685 27.1272 19.7307 28.6778 22.8631 29.412L15.0944 36.0495H0.185181ZM38.7344 25.5416C40.6979 27.5714 42.609 29.5633 44.5659 31.4228L65.9872 10.7159L59.089 4.04683L80.6085 2.48357L79.378 23.6002L72.7808 17.2274C68.0292 21.8604 56.7917 32.0783 52.0401 36.661C46.0254 42.4475 43.1588 42.5547 37.144 36.7618L30.4225 29.557C33.517 28.961 36.388 27.5741 38.7344 25.5416ZM73.9131 29.9541V68.8717C73.9113 69.1715 73.7865 69.4585 73.5657 69.6699C73.345 69.8813 73.0463 70 72.735 70H62.5905C62.2797 69.9984 61.982 69.8792 61.7616 69.6681C61.5412 69.457 61.4158 69.171 61.4124 68.8717V39.4408C63.3758 37.6317 65.6076 35.5326 67.9114 33.3958L72.7154 28.9392L72.9182 29.122C73.2266 29.4222 73.5593 29.6983 73.9131 29.9478V29.9541ZM53.5062 46.299V68.8654C53.5028 69.1647 53.3773 69.4507 53.1569 69.6618C52.9366 69.8728 52.6389 69.9921 52.3281 69.9937H42.1836C41.8723 69.9937 41.5736 69.875 41.3528 69.6636C41.1321 69.4522 41.0072 69.1652 41.0055 68.8654V48.6943C42.2117 48.9759 43.4492 49.1135 44.6903 49.104C47.8555 49.059 50.9303 48.0799 53.4996 46.299H53.5062ZM33.0928 44.471V68.8654C33.091 69.1652 32.9661 69.4522 32.7454 69.6636C32.5247 69.875 32.226 69.9937 31.9147 69.9937H21.7832C21.4724 69.9921 21.1748 69.8728 20.9544 69.6618C20.734 69.4507 20.6086 69.1647 20.6052 68.8654V42.3908C20.8146 42.2458 21.0109 42.0882 21.2073 41.9244L26.2796 37.5939L30.3635 41.9685L30.6777 42.29C31.5024 43.0842 32.3139 43.8154 33.1058 44.471H33.0928Z" fill="#00D4BB"></path></svg>
