<svg width="20" height="20" viewBox="0 0 54 60" fill="none" xmlns="http://www.w3.org/2000/svg"><g clip-path="url(#clip0_16_172)"><path fill-rule="evenodd" clip-rule="evenodd" d="M27.3238 55.7067L27.6626 37.6673C27.6892 36.5124 28.1667 35.4148 28.991 34.6137C29.8152 33.8127 30.9195 33.3731 32.063 33.3909L48.9936 33.7088C50.137 33.734 51.2239 34.2147 52.0175 35.0462C52.8111 35.8777 53.2471 36.9924 53.2303 38.1475L52.8915 56.1869C52.8661 57.3427 52.3891 58.4415 51.5647 59.2436C50.7403 60.0457 49.6353 60.4859 48.4911 60.4681L31.5604 60.1501C30.4163 60.1249 29.3286 59.6435 28.5349 58.8111C27.7412 57.9786 27.3058 56.8626 27.3238 55.7067V55.7067ZM29.4933 7.89106L38.4187 16.6597L29.3318 16.4891L29.4933 7.89106V7.89106ZM11 34.6874C10.7413 34.6971 10.4968 34.8094 10.3195 35C10.1422 35.1906 10.0464 35.4441 10.0529 35.7055C10.0423 35.8352 10.0576 35.9658 10.0978 36.0895C10.138 36.2132 10.2023 36.3275 10.287 36.4256C10.3716 36.5238 10.4749 36.6038 10.5907 36.6609C10.7065 36.7181 10.8325 36.7512 10.9611 36.7584L22.3627 36.9725L22.4016 34.9015L11 34.6874ZM10.8607 42.1046C10.602 42.1143 10.3575 42.2266 10.1802 42.4172C10.0029 42.6078 9.9071 42.8613 9.91359 43.1227C9.90301 43.2525 9.91827 43.3831 9.95847 43.5067C9.99868 43.6304 10.063 43.7447 10.1477 43.8429C10.2323 43.941 10.3356 44.021 10.4514 44.0782C10.5672 44.1353 10.6932 44.1685 10.8218 44.1756L22.2234 44.3898L22.2623 42.3188L10.8607 42.1046ZM11.2787 19.8482C11.02 19.8579 10.7755 19.9702 10.5982 20.1608C10.4209 20.3514 10.3251 20.6049 10.3316 20.8663C10.3216 20.9959 10.3374 21.1263 10.3778 21.2497C10.4183 21.3731 10.4826 21.4871 10.5672 21.5851C10.6517 21.6832 10.7547 21.7632 10.8702 21.8205C10.9857 21.8779 11.1114 21.9114 11.2398 21.9192L21.7832 22.1173C22.0407 22.1064 22.2838 21.9943 22.4607 21.805C22.6376 21.6157 22.7344 21.3641 22.7303 21.1038C22.7403 20.974 22.7246 20.8434 22.6842 20.7197C22.6438 20.596 22.5795 20.4817 22.495 20.3833C22.4105 20.2849 22.3076 20.2045 22.1921 20.1466C22.0766 20.0888 21.9508 20.0546 21.8221 20.0462L11.2787 19.8482ZM11.418 12.431C11.1593 12.4407 10.9148 12.553 10.7375 12.7436C10.5602 12.9342 10.4644 13.1877 10.4709 13.4491C10.4603 13.5788 10.4756 13.7094 10.5158 13.8331C10.556 13.9568 10.6203 14.0711 10.705 14.1692C10.7896 14.2674 10.8929 14.3474 11.0087 14.4045C11.1245 14.4617 11.2504 14.4948 11.3791 14.502L17.1773 14.6109C17.436 14.6012 17.6805 14.4889 17.8578 14.2983C18.0351 14.1077 18.131 13.8542 18.1245 13.5928C18.1338 13.4633 18.1176 13.3332 18.0769 13.2101C18.0362 13.0869 17.9718 12.9731 17.8874 12.8753C17.803 12.7774 17.7002 12.6974 17.585 12.6398C17.4698 12.5822 17.3445 12.5483 17.2162 12.5399L11.418 12.431ZM11.1393 27.2701C10.8806 27.2798 10.6361 27.3922 10.4588 27.5827C10.2815 27.7733 10.1857 28.0268 10.1922 28.2882C10.1829 28.4177 10.199 28.5478 10.2397 28.671C10.2804 28.7941 10.3448 28.9079 10.4293 29.0058C10.5137 29.1036 10.6165 29.1837 10.7316 29.2412C10.8468 29.2988 10.9722 29.3328 11.1004 29.3412L28.931 29.676C29.1893 29.6651 29.4331 29.5525 29.6102 29.3621C29.7872 29.1718 29.8834 28.919 29.8782 28.6579C29.8881 28.5283 29.8724 28.398 29.8319 28.2746C29.7915 28.1512 29.7271 28.0371 29.6426 27.9391C29.558 27.8411 29.455 27.7611 29.3395 27.7037C29.224 27.6464 29.0984 27.6128 28.9699 27.605L11.1393 27.2701ZM43.4608 17.9871C43.4675 17.6544 43.3664 17.3287 43.1729 17.0594C42.9795 16.7901 42.7043 16.592 42.3891 16.4952L29.2357 3.07246C29.0992 2.89389 28.9246 2.74867 28.7248 2.64755C28.5251 2.54643 28.3054 2.49201 28.082 2.48832L4.72234 2.04961C4.365 2.04229 4.00972 2.10621 3.67681 2.23771C3.3439 2.36922 3.03991 2.56573 2.78222 2.81601C2.52453 3.06629 2.31821 3.36542 2.17506 3.69628C2.0319 4.02714 1.95473 4.38325 1.94795 4.74422L1.06454 51.7825C1.05708 52.1438 1.12052 52.5029 1.25118 52.8393C1.38185 53.1756 1.57716 53.4824 1.82585 53.742C2.32862 54.264 3.01481 54.5649 3.7358 54.5794L22.0673 54.9237L22.1249 51.8546L4.10886 51.5163L4.98003 5.12926L26.4982 5.53339L26.2649 17.9595C26.2572 18.3683 26.4106 18.7635 26.6914 19.0579C26.9721 19.3524 27.3572 19.5221 27.762 19.5297L40.3788 19.7667L40.1901 29.8172L43.2376 29.8744L43.4608 17.9871ZM39.5854 41.2567C39.5843 41.074 39.6276 40.8937 39.7115 40.7319C39.7955 40.57 39.9175 40.4314 40.0669 40.3283C40.8232 39.8363 41.5478 40.5389 42.0537 41.0265C43.4667 42.3842 46.072 45.4798 46.8339 46.1738C46.962 46.2787 47.0648 46.4119 47.1344 46.563C47.204 46.7142 47.2385 46.8794 47.2354 47.0461C47.2323 47.2128 47.1916 47.3766 47.1164 47.525C47.0411 47.6735 46.9334 47.8026 46.8014 47.9027C45.9953 48.5766 43.1144 51.752 41.6616 53.009C41.1565 53.4682 40.4694 53.9803 39.7963 53.5036C39.6514 53.3944 39.5351 53.2513 39.4574 53.0865C39.3796 52.9217 39.3428 52.7402 39.35 52.5578L39.3955 50.1354L35.128 50.0552C34.7725 50.0461 34.435 49.8956 34.1887 49.6365C33.9425 49.3773 33.8075 49.0305 33.813 48.6712L33.8834 44.9228C33.8902 44.5632 34.0377 44.221 34.2938 43.971C34.5498 43.721 34.8935 43.5837 35.2495 43.5892L39.5169 43.6693L39.5622 41.2562L39.5854 41.2567Z" fill="#00D4BB"></path></g><defs><clipPath id="clip0_16_172"><rect width="51.9005" height="57.5863" fill="white" transform="translate(1.16357 0.96051) rotate(1.07592)"></rect></clipPath></defs></svg>
