<svg width="20" height="20" viewBox="0 0 38 38" fill="none" xmlns="http://www.w3.org/2000/svg"><path d="M13.3753 20.8333C13.3753 23.1354 11.5009 25 9.18663 25C6.87237 25 4.99792 23.1354 4.99792 20.8333C4.99792 18.5312 6.87237 16.6666 9.18663 16.6666C11.5009 16.6666 13.3753 18.5312 13.3753 20.8333Z" fill="#00D4BB"></path><path fill-rule="evenodd" clip-rule="evenodd" d="M9.18663 22.9166C9.74209 22.9166 10.2748 22.6971 10.6676 22.3064C11.0603 21.9157 11.281 21.3858 11.281 20.8333C11.281 20.2808 11.0603 19.7509 10.6676 19.3602C10.2748 18.9695 9.74209 18.75 9.18663 18.75C8.63117 18.75 8.09847 18.9695 7.7057 19.3602C7.31293 19.7509 7.09228 20.2808 7.09228 20.8333C7.09228 21.3858 7.31293 21.9157 7.7057 22.3064C8.09847 22.6971 8.63117 22.9166 9.18663 22.9166ZM9.18663 25C11.5009 25 13.3753 23.1354 13.3753 20.8333C13.3753 18.5312 11.5009 16.6666 9.18663 16.6666C6.87237 16.6666 4.99792 18.5312 4.99792 20.8333C4.99792 23.1354 6.87237 25 9.18663 25Z" fill="#00D4BB"></path><path d="M0.285645 31.8177C0.285645 28.6698 6.21581 27.0833 9.18665 27.0833C12.1575 27.0833 18.0876 28.6698 18.0876 31.8177V37.5H0.285645V31.8177Z" fill="#00D4BB"></path><path fill-rule="evenodd" clip-rule="evenodd" d="M2.72975 31.2323C2.39885 31.5573 2.38 31.7437 2.38 31.8187V35.4167H15.9933V31.8177C15.9933 31.7448 15.9744 31.5573 15.6435 31.2323C15.2938 30.8896 14.7168 30.5219 13.9262 30.1854C12.3345 29.5073 10.3909 29.1666 9.18665 29.1666C7.98239 29.1666 6.03779 29.5073 4.44712 30.1854C3.65651 30.5219 3.07951 30.8896 2.72975 31.2323V31.2323ZM9.18665 27.0833C6.21581 27.0833 0.285645 28.6698 0.285645 31.8177V37.5H18.0876V31.8177C18.0876 28.6698 12.1575 27.0833 9.18665 27.0833Z" fill="#00D4BB"></path><path d="M33.2717 20.8333C33.2717 23.1354 31.3973 25 29.083 25C26.7687 25 24.8943 23.1354 24.8943 20.8333C24.8943 18.5312 26.7687 16.6666 29.083 16.6666C31.3973 16.6666 33.2717 18.5312 33.2717 20.8333Z" fill="#00D4BB"></path><path fill-rule="evenodd" clip-rule="evenodd" d="M29.083 22.9166C29.6385 22.9166 30.1712 22.6971 30.5639 22.3064C30.9567 21.9157 31.1774 21.3858 31.1774 20.8333C31.1774 20.2808 30.9567 19.7509 30.5639 19.3602C30.1712 18.9695 29.6385 18.75 29.083 18.75C28.5275 18.75 27.9948 18.9695 27.6021 19.3602C27.2093 19.7509 26.9886 20.2808 26.9886 20.8333C26.9886 21.3858 27.2093 21.9157 27.6021 22.3064C27.9948 22.6971 28.5275 22.9166 29.083 22.9166ZM29.083 25C31.3973 25 33.2717 23.1354 33.2717 20.8333C33.2717 18.5312 31.3973 16.6666 29.083 16.6666C26.7687 16.6666 24.8943 18.5312 24.8943 20.8333C24.8943 23.1354 26.7687 25 29.083 25Z" fill="#00D4BB"></path><path d="M23.3236 18.75C23.3236 21.0521 21.4491 22.9167 19.1349 22.9167C16.8206 22.9167 14.9462 21.0521 14.9462 18.75C14.9462 16.4479 16.8206 14.5833 19.1349 14.5833C21.4491 14.5833 23.3236 16.4479 23.3236 18.75Z" fill="#00D4BB"></path><path fill-rule="evenodd" clip-rule="evenodd" d="M19.1349 20.8333C19.6903 20.8333 20.223 20.6138 20.6158 20.2231C21.0086 19.8324 21.2292 19.3025 21.2292 18.75C21.2292 18.1974 21.0086 17.6675 20.6158 17.2768C20.223 16.8861 19.6903 16.6666 19.1349 16.6666C18.5794 16.6666 18.0467 16.8861 17.6539 17.2768C17.2612 17.6675 17.0405 18.1974 17.0405 18.75C17.0405 19.3025 17.2612 19.8324 17.6539 20.2231C18.0467 20.6138 18.5794 20.8333 19.1349 20.8333V20.8333ZM19.1349 22.9167C21.4491 22.9167 23.3236 21.0521 23.3236 18.75C23.3236 16.4479 21.4491 14.5833 19.1349 14.5833C16.8206 14.5833 14.9462 16.4479 14.9462 18.75C14.9462 21.0521 16.8206 22.9167 19.1349 22.9167Z" fill="#00D4BB"></path><path d="M18.0876 7.11769C18.0876 5.78249 17.5544 4.50198 16.6053 3.55785C15.6562 2.61373 14.3689 2.08332 13.0266 2.08332H9.70814C8.33502 2.08112 7.01602 2.6158 6.03555 3.57207C5.05508 4.52834 4.49167 5.8296 4.4668 7.19528C4.44193 8.56096 4.9576 9.88166 5.90262 10.8726C6.84764 11.8636 8.1463 12.4454 9.5186 12.4927L9.71024 12.5V14.5833C9.71024 14.5833 18.0876 13.3677 18.0876 7.11769Z" fill="#00D4BB"></path><path d="M21.2292 5.45417C21.2292 4.00763 21.8069 2.62034 22.8352 1.59749C23.8635 0.574634 25.2581 0 26.7123 0H32.7482C34.1369 0 35.4686 0.548734 36.4505 1.52549C37.4325 2.50224 37.9841 3.827 37.9841 5.20834C37.9841 6.58967 37.4325 7.91443 36.4505 8.89119C35.4686 9.86794 34.1369 10.4167 32.7482 10.4167H30.6539V13.5417C30.6539 13.5417 21.2292 12.225 21.2292 5.45417Z" fill="#00D4BB"></path><path d="M20.1821 31.8177C20.1821 28.6698 26.1123 27.0833 29.0831 27.0833C32.054 27.0833 37.9841 28.6698 37.9841 31.8177V37.5H20.1821V31.8177Z" fill="#00D4BB"></path><path fill-rule="evenodd" clip-rule="evenodd" d="M22.6262 31.2323C22.2953 31.5573 22.2765 31.7437 22.2765 31.8187V35.4167H35.8898V31.8177C35.8898 31.7448 35.8709 31.5573 35.54 31.2323C35.1903 30.8896 34.6133 30.5219 33.8227 30.1854C32.2309 29.5073 30.2874 29.1666 29.0831 29.1666C27.8789 29.1666 25.9343 29.5073 24.3436 30.1854C23.553 30.5219 22.976 30.8896 22.6262 31.2323V31.2323ZM29.0831 27.0833C26.1123 27.0833 20.1821 28.6698 20.1821 31.8177V37.5H37.9841V31.8177C37.9841 28.6698 32.054 27.0833 29.0831 27.0833Z" fill="#00D4BB"></path><path fill-rule="evenodd" clip-rule="evenodd" d="M19.1349 30.2083V29.7344C19.1349 27.9875 17.2007 26.7208 14.9409 25.9396C16.2523 25.3232 17.6844 25.0023 19.1349 25C20.5853 25.0023 22.0174 25.3232 23.3288 25.9396C21.07 26.7208 19.1349 27.9875 19.1349 29.7344V30.2083Z" fill="#00D4BB"></path><path fill-rule="evenodd" clip-rule="evenodd" d="M19.1349 30.2083V29.7344C19.1349 28.8042 19.6836 28.0094 20.5381 27.3521C20.5871 27.3149 20.6366 27.2784 20.6868 27.2427C21.4156 26.7156 22.3413 26.2813 23.3288 25.9406C22.348 25.4806 21.2981 25.1833 20.2208 25.0604C19.4994 24.9799 18.7713 24.9799 18.05 25.0604C16.9724 25.1828 15.9221 25.4798 14.9409 25.9396C15.9284 26.2813 16.8541 26.7156 17.584 27.2417C17.6343 27.2781 17.6824 27.3146 17.7306 27.3521C18.5861 28.0083 19.1349 28.8042 19.1349 29.7344V30.2083Z" fill="#00D4BB"></path></svg>
