<svg width="20" height="20" viewBox="0 0 84 76" fill="none" xmlns="http://www.w3.org/2000/svg"><g clip-path="url(#clip0_11_103)"><path fill-rule="evenodd" clip-rule="evenodd" d="M27.7061 37.9537C37.45 35.5145 47.6095 35.5145 57.3535 37.9537C58.2542 38.1218 59.0643 38.629 59.6299 39.3789C59.8279 39.5939 60 39.8332 60.1426 40.0915L66.8691 49.8828L70.9707 38.1247C71.1932 37.1681 71.771 36.3427 72.5771 35.8301L77.1709 32.267C77.4076 32.083 77.7046 32.0043 77.9969 32.0484C78.2891 32.0925 78.5526 32.2557 78.7295 32.5022C78.8167 32.6238 78.8801 32.7621 78.916 32.9093C78.9519 33.0564 78.9596 33.2095 78.9386 33.3598C78.9177 33.5101 78.8685 33.6545 78.7939 33.785C78.7193 33.9154 78.6208 34.0292 78.5039 34.1198L75.8242 36.2149C76.0635 36.3147 76.3096 36.4216 76.5488 36.5427L79.4883 34.5403C79.6778 34.4109 79.9088 34.3653 80.1305 34.4134C80.3523 34.4615 80.5466 34.5994 80.6709 34.7968C80.7953 34.9955 80.8393 35.2374 80.7932 35.4697C80.7471 35.702 80.6146 35.9059 80.4248 36.0368L78.9346 37.0558H82.7695C83.0953 37.0577 83.4072 37.1934 83.6376 37.4336C83.868 37.6737 83.9982 37.9989 84 38.3385C83.9982 38.6774 83.8678 39.0019 83.6372 39.2409C83.4066 39.4799 83.0947 39.6141 82.7695 39.6141H79.4473C79.3043 40.1035 79.1237 40.5801 78.9072 41.0393L71.7773 62.5103C71.5116 63.2957 71.036 63.9856 70.4066 64.4986C69.7772 65.0116 69.0202 65.3264 68.2249 65.4057C67.4296 65.4851 66.6291 65.3258 65.9177 64.9467C65.2064 64.5675 64.6139 63.9842 64.21 63.2656L57.7773 52.9684C56.793 59.4389 55.9248 69.9927 54.3594 76H30.6934C29.0664 69.7433 28.1504 58.8189 27.125 52.0776L20.1523 63.2656C19.7484 63.9842 19.1559 64.5675 18.4446 64.9467C17.7332 65.3258 16.9327 65.4851 16.1374 65.4057C15.3421 65.3264 14.5851 65.0116 13.9557 64.4986C13.3263 63.9856 12.8507 63.2957 12.585 62.5103L5.46875 41.0607C5.25288 40.6003 5.07009 40.124 4.92188 39.6354H1.57227C1.4101 39.6345 1.2497 39.6002 1.10031 39.5344C0.950916 39.4686 0.815468 39.3727 0.701752 39.2522C0.588037 39.1317 0.498299 38.9889 0.437698 38.8321C0.377097 38.6753 0.346828 38.5075 0.348633 38.3385C0.348628 37.9995 0.477327 37.6743 0.706609 37.434C0.93589 37.1936 1.24711 37.0577 1.57227 37.0558H5.40723L3.91016 36.0296C3.71919 35.8999 3.58534 35.6965 3.53793 35.4641C3.49053 35.2317 3.53342 34.9892 3.65723 34.7897C3.78393 34.5933 3.97941 34.4564 4.20175 34.4085C4.4241 34.3605 4.65561 34.4053 4.84668 34.5331L7.78613 36.5356C8.02539 36.4144 8.27148 36.3075 8.51074 36.2078L5.82422 34.1127C5.70789 34.0215 5.60995 33.9073 5.53599 33.7767C5.46203 33.646 5.4135 33.5014 5.39318 33.3512C5.37287 33.2009 5.38116 33.048 5.41758 32.9011C5.45401 32.7542 5.51786 32.6162 5.60547 32.4951C5.69243 32.3733 5.80159 32.2705 5.9267 32.1928C6.05181 32.115 6.1904 32.0637 6.33455 32.0419C6.47869 32.02 6.62555 32.0281 6.76672 32.0655C6.90789 32.1029 7.04059 32.169 7.15723 32.2599L11.7578 35.823C12.5624 36.3373 13.1397 37.162 13.3643 38.1176L17.4658 49.8757L24.1992 40.0701C24.5695 39.4606 25.0714 38.9497 25.6649 38.5785C26.2584 38.2073 26.927 37.986 27.6172 37.9323H27.6855L27.7061 37.9537ZM9.24902 13.6821V13.4042C9.23602 12.8799 9.28422 12.3558 9.39258 11.8436C9.47163 11.5016 9.6235 11.1826 9.83691 10.9101C10.0351 10.6642 10.2652 10.4484 10.5205 10.2687C10.7598 10.1048 10.9785 9.94805 11.2041 9.79128C11.3787 9.65354 11.531 9.48754 11.6553 9.29958C11.7708 9.12623 11.8307 8.91915 11.8262 8.70811C11.8291 8.52467 11.7817 8.34417 11.6895 8.1879C11.5999 8.03626 11.4722 7.91305 11.3203 7.8316C11.1582 7.75058 10.9805 7.70915 10.8008 7.71045C10.611 7.70425 10.4228 7.74838 10.2539 7.83872C10.0829 7.93327 9.93898 8.07343 9.83691 8.24491C9.7287 8.4264 9.67402 8.63703 9.67969 8.85063H6.75391C6.72425 8.09374 6.92265 7.34616 7.32129 6.7128C7.69811 6.18639 8.21343 5.78535 8.80469 5.55837C9.44678 5.29567 10.1316 5.165 10.8213 5.17356C11.5591 5.16061 12.2931 5.28613 12.9883 5.54412C13.5813 5.76092 14.1045 6.14592 14.499 6.65579C14.8798 7.20561 15.0703 7.87396 15.0391 8.55134C15.0546 8.9659 14.9831 9.37901 14.8296 9.76179C14.6761 10.1446 14.4443 10.4878 14.1504 10.7676C13.8545 11.0436 13.5287 11.2828 13.1797 11.4802C12.9333 11.6227 12.7039 11.7949 12.4961 11.9932C12.3177 12.1611 12.1736 12.3647 12.0723 12.5918C11.9765 12.8508 11.9301 13.1267 11.9355 13.4042V13.6821H9.24902ZM10.6162 17.6656C10.4069 17.6707 10.1988 17.6309 10.0048 17.5488C9.81077 17.4667 9.63498 17.3439 9.48828 17.1882C9.33526 17.0378 9.21468 16.8551 9.13454 16.6524C9.0544 16.4497 9.01653 16.2315 9.02344 16.0124C9.0176 15.7955 9.05603 15.5798 9.13616 15.3795C9.2163 15.1793 9.33632 14.9991 9.48828 14.8508C9.63498 14.6951 9.81077 14.5723 10.0048 14.4902C10.1988 14.4081 10.4069 14.3683 10.6162 14.3734C10.8972 14.3638 11.1754 14.4341 11.4211 14.5766C11.6668 14.719 11.8707 14.9284 12.0111 15.1824C12.1515 15.4363 12.2231 15.7252 12.2182 16.0182C12.2133 16.3113 12.1322 16.5974 11.9834 16.8461C11.8383 17.0912 11.6391 17.2964 11.4023 17.4447C11.1672 17.5921 10.8974 17.6685 10.623 17.6656H10.6162ZM4.0332 0H18.3135C19.2393 0.00203296 20.1267 0.386387 20.7812 1.06892L20.8496 1.14018C21.1377 1.46656 21.369 1.84273 21.5332 2.25185C21.7124 2.70362 21.8031 3.18821 21.7998 3.67707V20.9722C21.7986 21.449 21.708 21.9211 21.5332 22.3617C21.3534 22.7918 21.0984 23.1833 20.7812 23.5162C20.1267 24.1987 19.2393 24.5831 18.3135 24.5851H17.4658L17.1855 27.8774C17.1693 28.0849 17.0971 28.2834 16.9774 28.45C16.8576 28.6166 16.6951 28.7445 16.5086 28.819C16.3221 28.8934 16.1192 28.9115 15.9233 28.871C15.7274 28.8304 15.5465 28.733 15.4014 28.59L10.6641 24.6136H3.49316C3.0328 24.6089 2.57786 24.5095 2.1544 24.3212C1.73094 24.1329 1.34728 23.8593 1.02539 23.5162L0.963867 23.4449C0.672427 23.1213 0.440693 22.7444 0.280273 22.3332C0.104242 21.9024 0.00909986 21.4404 0 20.9722L0 3.64144C0.00124565 3.16457 0.0918074 2.69254 0.266602 2.25185C0.44549 1.81106 0.702972 1.40966 1.02539 1.06892C1.67998 0.386387 2.56733 0.00203296 3.49316 0L4.0332 0ZM18.3135 2.21622H3.49316C3.3148 2.21448 3.13799 2.25086 2.97363 2.32311C2.80711 2.39601 2.65609 2.50258 2.5293 2.63666C2.40227 2.76874 2.30227 2.92632 2.23535 3.09986C2.16604 3.27119 2.13115 3.45551 2.13281 3.64144V20.9722C2.13115 21.1581 2.16604 21.3424 2.23535 21.5137C2.29663 21.6676 2.38211 21.8097 2.48828 21.9342L2.53613 21.9769C2.66288 22.1129 2.8138 22.2218 2.98047 22.2976C3.14623 22.3641 3.32239 22.3979 3.5 22.3974H10.8213C11.0419 22.3989 11.2601 22.4448 11.4639 22.5328C11.6589 22.6199 11.8372 22.743 11.9902 22.8962L15.251 25.654L15.374 24.1575C15.3759 23.7352 15.524 23.3278 15.791 23.0102C16.0724 22.6781 16.4623 22.4673 16.8848 22.4188H17.0488H18.3135C18.4911 22.4193 18.6672 22.3855 18.833 22.319C18.9997 22.2432 19.1506 22.1342 19.2773 21.9983C19.4043 21.8647 19.5063 21.7076 19.5781 21.5351C19.6419 21.3623 19.6743 21.1787 19.6738 20.9935V3.64144C19.6743 3.4563 19.6419 3.27266 19.5781 3.09986C19.5144 2.9457 19.4267 2.80363 19.3184 2.67942L19.2773 2.63666C19.1506 2.50258 18.9995 2.39601 18.833 2.32311C18.6687 2.25086 18.4918 2.21448 18.3135 2.21622ZM70.1709 18.8699V18.5849C70.1579 18.0629 70.2061 17.5412 70.3145 17.0314C70.3934 16.6872 70.5452 16.3659 70.7588 16.0908C70.959 15.849 71.1888 15.6358 71.4424 15.4565C71.6816 15.2926 71.9004 15.1287 72.126 14.972C72.3016 14.8382 72.4542 14.6744 72.5771 14.4874C72.6906 14.313 72.7503 14.1066 72.748 13.8959C72.7508 13.7103 72.7034 13.5275 72.6113 13.3686C72.5213 13.2191 72.3936 13.0983 72.2422 13.0194C72.0801 12.9384 71.9024 12.897 71.7227 12.8983C71.5263 12.8951 71.3328 12.9468 71.1621 13.0479C70.9882 13.1381 70.8432 13.2793 70.7451 13.4541C70.6361 13.6352 70.5814 13.8461 70.5879 14.0598H67.6758C67.6461 13.3029 67.8445 12.5554 68.2432 11.922C68.6161 11.385 69.1318 10.9738 69.7266 10.7391C70.3802 10.4758 71.0767 10.3475 71.7773 10.3614C72.5174 10.3476 73.2538 10.4731 73.9512 10.7319C74.5454 10.9463 75.0691 11.3318 75.4619 11.8436C75.8387 12.3823 76.0313 13.0372 76.0088 13.7035C76.0183 14.1364 75.939 14.5664 75.7764 14.9648C75.6116 15.3252 75.3791 15.6475 75.0928 15.9126C74.799 16.2035 74.4731 16.4571 74.1221 16.668C73.8757 16.8105 73.6463 16.9827 73.4385 17.1811C73.2571 17.3461 73.1125 17.5504 73.0146 17.7797C72.9186 18.0361 72.8721 18.3097 72.8779 18.5849V18.8699H70.1709ZM71.5381 22.8534C71.3283 22.8571 71.12 22.8161 70.9261 22.7327C70.7321 22.6494 70.5565 22.5256 70.4102 22.3689C70.2571 22.2184 70.1366 22.0358 70.0564 21.8331C69.9763 21.6304 69.9384 21.4122 69.9453 21.1931C69.94 20.9773 69.9787 20.7628 70.0588 20.5638C70.139 20.3648 70.2587 20.1858 70.4102 20.0386C70.707 19.7331 71.1073 19.5618 71.5244 19.5618C71.9415 19.5618 72.3419 19.7331 72.6387 20.0386C72.7924 20.1855 72.9154 20.3638 73.0001 20.5624C73.0848 20.761 73.1293 20.9757 73.1309 21.1931C73.1283 21.4902 73.0479 21.7809 72.8984 22.0339C72.7534 22.279 72.5541 22.4842 72.3174 22.6325C72.0822 22.7799 71.8125 22.8564 71.5381 22.8534ZM78.668 7.6677H64.4082C64.2298 7.66596 64.053 7.70234 63.8887 7.77459C63.7221 7.84748 63.5711 7.95405 63.4443 8.08814L63.3965 8.13089C63.2882 8.25511 63.2004 8.39718 63.1367 8.55134C63.0723 8.72642 63.0398 8.91252 63.041 9.10005V23.6943C63.0398 23.8819 63.0723 24.068 63.1367 24.243C63.2103 24.4145 63.3121 24.5713 63.4375 24.7062C63.5643 24.8403 63.7153 24.9469 63.8818 25.0198C64.0462 25.092 64.223 25.1284 64.4014 25.1267H65.666H65.8301C66.2533 25.1725 66.6442 25.3838 66.9238 25.7181C67.192 26.0322 67.3404 26.4379 67.3408 26.8583L67.4639 28.3619L70.7314 25.654C70.8831 25.5008 71.0618 25.3797 71.2578 25.2977C71.4618 25.2104 71.6799 25.1645 71.9004 25.1623H79.2285C79.4069 25.164 79.5837 25.1277 79.748 25.0554C79.9146 24.9825 80.0656 24.8759 80.1924 24.7419L80.2402 24.6991C80.4738 24.4352 80.6032 24.0891 80.6025 23.73V9.10005C80.6016 8.91207 80.5668 8.72595 80.5 8.55134C80.4248 8.38078 80.3232 8.22428 80.1992 8.08814C80.0724 7.95405 79.9214 7.84748 79.7549 7.77459C79.5905 7.70234 79.4137 7.66596 79.2354 7.6677H78.668ZM64.4082 5.45148H79.2285C79.6867 5.45239 80.14 5.54933 80.5615 5.73652C80.9862 5.91949 81.3718 6.18833 81.6963 6.52752C82.022 6.86424 82.2804 7.26502 82.4564 7.70662C82.6324 8.14822 82.7226 8.62185 82.7217 9.10005V23.6943C82.7248 24.1832 82.6341 24.6677 82.4551 25.1195C82.2908 25.5265 82.0594 25.9003 81.7715 26.2241L81.7031 26.3025C81.3719 26.6326 80.9848 26.896 80.5615 27.0792C80.1388 27.2614 79.686 27.3558 79.2285 27.3571H72.0576L67.3203 31.3549C67.1488 31.5296 66.9237 31.6355 66.6846 31.6542C66.5452 31.6679 66.4045 31.6524 66.2709 31.6087C66.1373 31.565 66.0134 31.494 65.9064 31.3997C65.7995 31.3055 65.7117 31.19 65.6481 31.0599C65.5845 30.9298 65.5464 30.7879 65.5361 30.6423L65.2559 27.35H64.4082C63.9392 27.3534 63.4744 27.2589 63.041 27.0721C62.6191 26.8838 62.2343 26.6156 61.9062 26.2811C61.5805 25.9444 61.3222 25.5436 61.1461 25.102C60.9701 24.6604 60.88 24.1868 60.8809 23.7086V9.10005C60.8778 8.6112 60.9684 8.12665 61.1475 7.67482C61.3118 7.26789 61.5431 6.89407 61.8311 6.57028L61.8994 6.49902C62.2239 6.15983 62.6095 5.89099 63.0342 5.70802C63.4663 5.51609 63.9317 5.41905 64.4014 5.42297L64.4082 5.45148ZM41.9316 4.69611C44.6552 4.6947 47.318 5.53541 49.5831 7.11189C51.8482 8.68836 53.6139 10.9298 54.6567 13.5525C55.6996 16.1753 55.9729 19.0616 55.4418 21.8463C54.9108 24.631 53.5995 27.1889 51.6736 29.1965C49.7478 31.2041 47.294 32.5711 44.6227 33.1247C41.9514 33.6782 39.1827 33.3934 36.6667 32.3062C34.1507 31.2191 32.0006 29.3785 30.4883 27.0172C28.976 24.6559 28.1695 21.8801 28.1709 19.041C28.1727 15.2371 29.6231 11.5895 32.2033 8.89971C34.7836 6.20993 38.2826 4.698 41.9316 4.69611Z" fill="#00D4BB"></path></g><defs><clipPath id="clip0_11_103"><rect width="84" height="76" fill="white"></rect></clipPath></defs></svg>
