<svg width="24" height="24" viewBox="0 0 48 56" fill="none" xmlns="http://www.w3.org/2000/svg"><path d="M35.5714 31.295H21.5839C20.5823 31.2633 19.6342 30.9025 18.9387 30.2885C18.2433 29.6744 17.8547 28.855 17.8547 28.0023C17.8547 27.1497 18.2433 26.3302 18.9387 25.7162C19.6342 25.1022 20.5823 24.7414 21.5839 24.7097H35.5714L31.0286 20.3939C30.3506 19.7461 29.9992 18.8975 30.0503 18.0312C30.1014 17.1649 30.5509 16.3505 31.3018 15.7637C31.6717 15.4757 32.1052 15.253 32.5772 15.1086C33.0491 14.9643 33.55 14.901 34.0509 14.9227C34.5517 14.9443 35.0425 15.0503 35.4948 15.2346C35.9472 15.4189 36.3519 15.6777 36.6857 15.9961L47.0143 25.8034C47.6525 26.415 48.0023 27.2057 47.9964 28.0235C47.9905 28.8413 47.6292 29.6283 46.9821 30.2331L36.6857 40.0039C36.3527 40.3234 35.9483 40.5833 35.4959 40.7682C35.0435 40.9532 34.5524 41.0596 34.0511 41.0813C33.5498 41.1029 33.0485 41.0393 32.5764 40.8943C32.1044 40.7492 31.6711 40.5255 31.3018 40.2364C30.5509 39.6496 30.1014 38.8351 30.0503 37.9689C29.9992 37.1026 30.3506 36.254 31.0286 35.6062L35.5714 31.295ZM21.4875 0.0638393C22.4941 -0.107187 23.5394 0.0689713 24.3934 0.553562C25.2473 1.03815 25.84 1.79148 26.0411 2.64782C26.2421 3.50417 26.035 4.39337 25.4654 5.11983C24.8958 5.84629 24.0102 6.3505 23.0036 6.52152L21.1875 6.83597C12.4393 8.31254 7.74107 9.15563 7.74107 19.4551V37.4838C7.74107 47.0541 12.7446 47.8562 21.0268 49.1732L22.9714 49.4831C23.4699 49.5642 23.9446 49.728 24.3687 49.9652C24.7927 50.2024 25.1576 50.5083 25.4427 50.8655C25.7277 51.2226 25.9273 51.6241 26.0299 52.0468C26.1326 52.4696 26.1364 52.9054 26.0411 53.3295C25.9457 53.7535 25.7532 54.1574 25.4744 54.5181C25.1956 54.8788 24.836 55.1893 24.4161 55.4317C23.9962 55.6742 23.5244 55.844 23.0274 55.9313C22.5304 56.0187 22.0181 56.0219 21.5196 55.9408L19.6071 55.6309C7.38214 53.6895 0 52.5137 0 37.4838V19.446C0 3.75525 6.87857 2.53389 19.6821 0.373735L21.4875 0.0638393Z" fill="#00D4BB"></path></svg>
