<svg width="20" height="20" viewBox="0 0 71 57" fill="none" xmlns="http://www.w3.org/2000/svg"><path d="M31.1045 43.4965H39.2716C39.661 43.4965 39.976 43.7882 39.976 44.1489V55.4725C49.5576 55.4725 59.1393 55.4725 68.7266 55.4725V17.7731H51.2758V55.4725H49.6264V1.5275H20.618V55.4672H18.9686V17.7731H1.64944V55.4725H30.4001V44.1489C30.4001 43.7882 30.7151 43.4965 31.1045 43.4965ZM33.4985 4.82116H36.8718C37.5018 4.82116 38.0173 5.2985 38.0173 5.88192V10.5387H43.0458C43.6758 10.5387 44.1912 11.016 44.1912 11.5994V14.7234C44.1912 15.3068 43.6758 15.7841 43.0458 15.7841H38.0173V20.4409C38.0173 21.0243 37.5018 21.5016 36.8718 21.5016H33.4985C32.8685 21.5016 32.3531 21.0243 32.3531 20.4409V15.7841H27.3246C26.6946 15.7841 26.1791 15.3068 26.1791 14.7234V11.5994C26.1791 11.016 26.6946 10.5387 27.3246 10.5387H32.3531V5.88192C32.3531 5.2985 32.8685 4.82116 33.4985 4.82116ZM0.82472 57C0.366542 57 0 56.6553 0 56.2363V17.3647C0 16.7441 0.544086 16.2456 1.21417 16.2456H18.9686V1.34186C18.9686 0.9759 19.1289 0.641761 19.3924 0.397785C19.3924 0.212152 20.2114 0 20.4175 0H49.8268C50.2277 0 50.5885 0.148507 50.852 0.392482C51.1212 0.673583 51.2758 0.954685 51.2758 1.34186V16.2403H69.1562C69.8205 16.2403 70.3704 16.7494 70.3704 17.3647V56.2363C70.3704 56.6606 69.9981 57 69.5456 57C46.6425 57 23.7336 57 0.82472 57ZM31.809 55.4725H38.5671V44.8013H31.809V55.4725ZM55.6399 37.657H64.7462C64.8207 37.657 64.8837 37.6995 64.8837 37.7472V40.24C64.8837 40.2877 64.8207 40.3354 64.7462 40.3354H55.6399C55.5655 40.3354 55.5025 40.293 55.5025 40.24V37.7472C55.5025 37.6995 55.5655 37.657 55.6399 37.657ZM5.56113 37.657H14.6674C14.7419 37.657 14.8049 37.6995 14.8049 37.7472V40.24C14.8049 40.2877 14.7419 40.3354 14.6674 40.3354H5.56113C5.48668 40.3354 5.42368 40.293 5.42368 40.24V37.7472C5.42368 37.6995 5.48668 37.657 5.56113 37.657ZM55.6399 32.21H64.7462C64.8207 32.21 64.8837 32.2524 64.8837 32.3055V34.7983C64.8837 34.8513 64.8207 34.8884 64.7462 34.8884H55.6399C55.5655 34.8884 55.5025 34.846 55.5025 34.7983V32.3055C55.5025 32.2471 55.5655 32.21 55.6399 32.21ZM55.6399 26.7577H64.7462C64.8207 26.7577 64.8837 26.8001 64.8837 26.8532V29.346C64.8837 29.3937 64.8207 29.4361 64.7462 29.4361H55.6399C55.5655 29.4361 55.5025 29.3937 55.5025 29.346V26.8532C55.5025 26.8001 55.5655 26.7577 55.6399 26.7577ZM5.56113 32.21H14.6674C14.7419 32.21 14.8049 32.2524 14.8049 32.3055V34.7983C14.8049 34.8513 14.7419 34.8884 14.6674 34.8884H5.56113C5.48668 34.8884 5.42368 34.846 5.42368 34.7983V32.3055C5.42368 32.2471 5.48668 32.21 5.56113 32.21ZM5.56113 26.7577H14.6674C14.7419 26.7577 14.8049 26.8001 14.8049 26.8532V29.346C14.8049 29.3937 14.7419 29.4361 14.6674 29.4361H5.56113C5.48668 29.4361 5.42368 29.3937 5.42368 29.346V26.8532C5.42368 26.8001 5.48668 26.7577 5.56113 26.7577ZM41.047 35.1589H45.9094C45.9839 35.1589 46.0469 35.2173 46.0469 35.2862V39.7892C46.0469 39.8581 45.9839 39.9164 45.9094 39.9164H41.047C40.9725 39.9164 40.9095 39.8581 40.9095 39.7892V35.2862C40.9095 35.212 40.9725 35.1589 41.047 35.1589ZM32.691 35.1589H37.5534C37.6278 35.1589 37.6908 35.2173 37.6908 35.2862V39.7892C37.6908 39.8581 37.6278 39.9164 37.5534 39.9164H32.691C32.6165 39.9164 32.5535 39.8581 32.5535 39.7892V35.2862C32.5535 35.212 32.6165 35.1589 32.691 35.1589ZM24.335 35.1589H29.1974C29.2775 35.1589 29.3348 35.2173 29.3348 35.2862V39.7892C29.3348 39.8581 29.2718 39.9164 29.1974 39.9164H24.335C24.2605 39.9164 24.1975 39.8581 24.1975 39.7892V35.2862C24.1975 35.212 24.2605 35.1589 24.335 35.1589ZM41.047 26.4183H45.9094C45.9839 26.4183 46.0469 26.4766 46.0469 26.5455V31.0485C46.0469 31.1174 45.9839 31.1758 45.9094 31.1758H41.047C40.9725 31.1758 40.9095 31.1174 40.9095 31.0485V26.5455C40.9095 26.4766 40.9725 26.4183 41.047 26.4183ZM32.691 26.4183H37.5534C37.6278 26.4183 37.6908 26.4766 37.6908 26.5455V31.0485C37.6908 31.1174 37.6278 31.1758 37.5534 31.1758H32.691C32.6165 31.1758 32.5535 31.1174 32.5535 31.0485V26.5455C32.5535 26.4766 32.6165 26.4183 32.691 26.4183ZM24.335 26.4183H29.1974C29.2775 26.4183 29.3348 26.4766 29.3348 26.5455V31.0485C29.3348 31.1174 29.2718 31.1758 29.1974 31.1758H24.335C24.2605 31.1758 24.1975 31.1174 24.1975 31.0485V26.5455C24.1975 26.4766 24.2605 26.4183 24.335 26.4183Z" fill="#00D4BB"></path></svg>
