<svg width="24" height="24" viewBox="0 0 89 87" fill="none" xmlns="http://www.w3.org/2000/svg"><path d="M23.6948 78.704H23.8315C23.9055 78.6936 23.9806 78.6936 24.0546 78.704H40.925C41.0725 78.704 41.2185 78.7329 41.3547 78.7891C41.4909 78.8453 41.6147 78.9276 41.7189 79.0314C41.8232 79.1352 41.9059 79.2584 41.9623 79.394C42.0187 79.5295 42.0478 79.6749 42.0478 79.8216V85.8752C42.0487 86.0226 42.0204 86.1687 41.9644 86.3051C41.9084 86.4415 41.8258 86.5656 41.7215 86.6701C41.6171 86.7747 41.493 86.8576 41.3563 86.9142C41.2197 86.9709 41.0731 87 40.925 87H23.2198C23.0717 87 22.9251 86.9709 22.7884 86.9142C22.6517 86.8576 22.5276 86.7747 22.4233 86.6701C22.3189 86.5656 22.2364 86.4415 22.1804 86.3051C22.1244 86.1687 22.096 86.0226 22.097 85.8752V79.8216C22.0931 79.6725 22.1193 79.5241 22.174 79.3851C22.2287 79.2462 22.3108 79.1196 22.4155 79.0128C22.5201 78.906 22.6452 78.8211 22.7833 78.7631C22.9215 78.7052 23.0699 78.6753 23.2198 78.6754H23.4573C23.5457 78.6645 23.6351 78.6645 23.7236 78.6754L23.6948 78.704ZM68.2242 7.65835C69.4333 32.0161 60.408 46.3441 44.4157 52.3404C28.9776 46.7238 19.8442 32.9545 20.5208 7.29298C28.6393 7.71566 36.6067 5.96764 44.3293 0C51.1811 4.29842 59.9258 8.41774 68.2242 7.65835ZM29.8268 35.4691C32.5186 32.4531 38.2188 33.1695 40.5364 29.9958C40.6451 29.8712 40.7195 29.7206 40.7523 29.5588C40.7523 29.5015 38.4635 26.2848 38.262 25.9768C37.7222 25.1386 36.7218 23.978 36.7218 22.9822C36.7389 22.6628 36.8514 22.3557 37.0451 22.1004C37.2387 21.8451 37.5046 21.6532 37.8086 21.5494C37.7582 20.7041 37.7222 19.8444 37.7222 18.999C37.7222 18.4975 37.7222 17.9889 37.7222 17.4946C37.7505 17.1794 37.8084 16.8676 37.895 16.5632C38.2901 15.2872 39.1466 14.2023 40.2988 13.5185C40.7097 13.2674 41.1465 13.0609 41.6016 12.9024C42.4364 12.6015 42.0262 11.2117 42.933 11.1974C45.049 11.1401 48.5253 13.0672 49.8856 14.5358C50.7375 15.4613 51.2344 16.656 51.2891 17.9101L51.2027 21.5996C51.4037 21.6409 51.591 21.7322 51.7471 21.865C51.9031 21.9977 52.0229 22.1677 52.0952 22.3589C52.383 23.5267 51.1739 24.9738 50.6053 25.898C50.0367 26.8221 48.0935 29.523 48.0935 29.5373C48.109 29.6952 48.1717 29.8449 48.2734 29.9671C50.6125 33.1623 56.3703 32.4172 59.0693 35.4978C62.6679 29.4012 64.3953 21.3058 63.8843 11.0326C57.0469 11.6774 49.936 8.33177 44.3437 4.80707C38.8488 9.15287 31.9096 11.2762 24.9111 10.7532C24.6592 21.3488 26.3866 29.4513 29.8268 35.4691ZM64.4744 76.0534H47.9207C47.7736 76.0478 47.629 76.0134 47.4953 75.9519C47.3615 75.8905 47.2414 75.8033 47.1417 75.6954C47.042 75.5875 46.9647 75.4611 46.9144 75.3233C46.864 75.1855 46.8416 75.0392 46.8484 74.8928V74.1764L46.8915 73.46C46.8915 73.0373 46.9563 72.5573 47.0067 72.0272C47.0571 71.497 47.1075 70.9884 47.1578 70.5944C47.2946 69.398 47.4169 68.3592 47.5825 67.4279C47.7275 66.5331 47.9688 65.6564 48.3022 64.813C48.6323 63.9916 49.0835 63.2238 49.6409 62.5348C50.3232 61.7016 51.0875 60.9384 51.9224 60.2567C51.9224 60.2567 52.4406 59.8268 52.491 59.791C52.7069 59.6119 52.9156 59.4471 53.1028 59.311C53.3259 59.1462 53.5274 58.9958 53.7217 58.874C53.9318 58.7296 54.1506 58.598 54.3767 58.48C56.6222 57.2549 59.4148 54.2962 61.8474 51.753C62.8766 50.664 63.8411 49.6467 64.7263 48.8444L68.5193 45.1334C68.5492 45.1109 68.5758 45.0843 68.5985 45.0546C69.0322 44.5332 69.5141 44.0535 70.0379 43.6218C70.5239 43.2305 71.0615 42.9075 71.6357 42.6618C72.3962 42.344 73.24 42.2811 74.0396 42.4827C74.4385 42.5882 74.8127 42.7707 75.1408 43.02C75.4937 43.2955 75.7709 43.6553 75.9469 44.066C76.1922 44.6805 76.2227 45.3593 76.0332 45.9931C75.9091 46.4454 75.7149 46.8756 75.4575 47.2683C75.1997 47.6701 74.8927 48.0383 74.5434 48.3644C70.9016 51.8748 67.4757 57.1618 63.8267 60.7868C63.7558 60.8706 63.7197 60.9783 63.7259 61.0877C63.7316 61.1975 63.7808 61.3005 63.8627 61.3743C63.9469 61.4448 64.055 61.4807 64.165 61.4746C64.2637 61.4712 64.3581 61.4332 64.4313 61.3671C64.4537 61.3329 64.4803 61.3016 64.5104 61.274L76.2563 50.1482C76.5 49.9271 76.7262 49.6876 76.9329 49.4318C77.1317 49.1815 77.3098 48.9156 77.4655 48.6366C77.4949 48.5861 77.5286 48.5381 77.5662 48.4933C78.8114 46.6665 82.338 37.2028 83.4896 34.4662C83.5411 34.3464 83.6143 34.2371 83.7055 34.1438C84.0125 33.7989 84.372 33.504 84.7707 33.2698C85.1583 33.0348 85.5933 32.888 86.0446 32.8399C86.2639 32.8041 86.4875 32.8041 86.7068 32.8399C86.912 32.8817 87.1089 32.9567 87.2897 33.062L87.3473 33.0978C87.5575 33.2325 87.7405 33.405 87.8871 33.6065L87.9447 33.6781C88.0957 33.9002 88.2167 34.141 88.3045 34.3945C88.6335 35.399 88.7223 36.4662 88.5637 37.5109C88.3936 38.842 88.0799 40.151 87.628 41.4153L85.6344 48.3715C85.4256 49.0879 85.2961 49.5751 85.2097 49.8975L84.8643 51.187C84.4562 52.9922 83.8654 54.7516 83.1009 56.4382C82.0572 58.3775 80.7653 60.1739 79.2576 61.7826C77.5734 63.7169 75.9109 65.4506 74.2843 67.0697C72.6577 68.6887 71.0599 70.2075 69.5053 71.6403L67.3461 73.6391L67.2958 73.6964C66.576 74.3555 65.9283 75.0074 65.2877 75.6378C65.1827 75.7596 65.0523 75.8572 64.9057 75.924C64.7591 75.9908 64.5997 76.0251 64.4384 76.0247L64.4744 76.0534ZM65.0718 78.704H65.1222C65.2082 78.6935 65.2952 78.6935 65.3813 78.704H65.626C65.9238 78.704 66.2094 78.8218 66.4199 79.0314C66.6305 79.241 66.7488 79.5252 66.7488 79.8216V85.8752C66.7497 86.0226 66.7214 86.1687 66.6654 86.3051C66.6094 86.4415 66.5268 86.5656 66.4225 86.6701C66.3181 86.7747 66.194 86.8576 66.0573 86.9142C65.9206 86.9709 65.774 87 65.626 87H47.892C47.7439 87 47.5973 86.9709 47.4606 86.9142C47.3239 86.8576 47.1998 86.7747 47.0955 86.6701C46.9911 86.5656 46.9086 86.4415 46.8526 86.3051C46.7966 86.1687 46.7682 86.0226 46.7692 85.8752V79.8216C46.7692 79.5252 46.8875 79.241 47.098 79.0314C47.3086 78.8218 47.5942 78.704 47.892 78.704H64.7623C64.8363 78.6936 64.9114 78.6936 64.9854 78.704H65.0718ZM40.8818 76.0534H24.3281C24.1669 76.0538 24.0075 76.0194 23.8609 75.9527C23.7143 75.8859 23.5839 75.7882 23.4789 75.6665C22.8383 75.0361 22.1618 74.3841 21.4708 73.7251L21.4132 73.6677L19.3116 71.6403C17.757 70.2075 16.1736 68.6887 14.5327 67.0553C12.8917 65.4219 11.2435 63.7599 9.54497 61.7969C8.04158 60.188 6.7545 58.3915 5.71603 56.4526C4.95156 54.7659 4.36076 53.0065 3.9527 51.2013L3.60724 49.9118C3.52087 49.5894 3.39132 49.1238 3.1754 48.3859L1.18896 41.4296C0.737072 40.1654 0.42338 38.8563 0.253315 37.5252C0.0912897 36.4735 0.180047 35.3986 0.512416 34.3874C0.600308 34.1339 0.721299 33.893 0.872279 33.6709H0.908265C1.05483 33.4694 1.23789 33.2969 1.44806 33.1623L1.50564 33.1265C1.68645 33.0212 1.88339 32.9462 2.08861 32.9044C2.30786 32.8686 2.53151 32.8686 2.75076 32.9044C3.20203 32.9525 3.63704 33.0993 4.02468 33.3342C4.42215 33.5702 4.78131 33.8649 5.08987 34.2082C5.18133 34.3 5.25243 34.4098 5.29859 34.5306C6.45735 37.2745 9.984 46.7095 11.2291 48.5578C11.2668 48.6026 11.3005 48.6506 11.3299 48.7011C11.4953 48.9586 11.6806 49.2029 11.8841 49.4318C12.0908 49.6876 12.317 49.9271 12.5606 50.1482L24.2778 61.2525C24.3079 61.2801 24.3345 61.3114 24.3569 61.3456C24.4301 61.4117 24.5245 61.4497 24.6232 61.4531C24.7331 61.4592 24.8413 61.4233 24.9255 61.3528C25.0074 61.279 25.0565 61.176 25.0623 61.0662C25.0659 61.0114 25.0582 60.9564 25.0397 60.9046C25.0211 60.8528 24.992 60.8054 24.9543 60.7653C21.6651 57.0758 17.6491 51.6527 14.2448 48.3715C13.8957 48.0459 13.5865 47.6804 13.3235 47.2826C13.0711 46.8882 12.8795 46.4583 12.7549 46.0074C12.5655 45.3736 12.5959 44.6948 12.8413 44.0803C13.0172 43.6696 13.2945 43.3099 13.6474 43.0343C13.9747 42.7837 14.3491 42.601 14.7486 42.497C15.5482 42.2955 16.3919 42.3583 17.1525 42.6761C17.7267 42.9218 18.2643 43.2449 18.7503 43.6361C19.2741 44.0678 19.756 44.5475 20.1897 45.0689C21.3125 46.3155 22.8887 47.691 24.1194 48.8873C24.9687 49.6897 25.9331 50.707 26.9983 51.7959C29.4094 54.3392 32.2235 57.2979 34.4691 58.523C34.6952 58.641 34.9139 58.7726 35.124 58.917C35.3183 59.0388 35.5199 59.1892 35.743 59.354C35.9301 59.4901 36.1316 59.6549 36.3548 59.834C36.4051 59.834 36.9161 60.3068 36.9233 60.2996C37.7565 60.9833 38.5207 61.7463 39.2049 62.5778C39.7623 63.2668 40.2135 64.0346 40.5436 64.856C40.8769 65.6994 41.1182 66.5761 41.2633 67.4708C41.4288 68.4022 41.5512 69.4409 41.6879 70.6373C41.7383 71.0457 41.7887 71.5329 41.8391 72.0702C41.8894 72.6075 41.9254 73.0874 41.9542 73.503L41.9974 74.2194L42.0334 74.9358C42.0401 75.0822 42.0177 75.2285 41.9674 75.3663C41.917 75.5041 41.8398 75.6305 41.7401 75.7384C41.6404 75.8463 41.5202 75.9335 41.3865 75.9949C41.2528 76.0564 41.1082 76.0908 40.961 76.0963H40.9106L40.8818 76.0534Z" fill="#00D4BB"></path></svg>
