<svg width="20" height="20" viewBox="0 0 52 48" fill="none" xmlns="http://www.w3.org/2000/svg"><path d="M12.8602 43.0028L20.8946 35.8506C21.1931 35.5866 21.5891 35.4385 22.0014 35.4366H47.2533C47.3729 35.4371 47.4913 35.4156 47.6019 35.3734C47.7124 35.3312 47.8129 35.2691 47.8974 35.1906C47.9819 35.1122 48.0489 35.0189 48.0943 34.9163C48.1398 34.8137 48.163 34.7038 48.1624 34.5928V3.83584C48.1608 3.61265 48.0639 3.39916 47.893 3.2421C47.7231 3.08459 47.4935 2.99489 47.2533 2.99211H4.24935C4.01018 2.99891 3.78274 3.08987 3.61315 3.24655C3.44356 3.40322 3.34451 3.61389 3.33607 3.83584V34.5889C3.33936 34.8124 3.43677 35.0259 3.60745 35.1835C3.77813 35.3412 4.00853 35.4306 4.24935 35.4327H11.2525C11.6793 35.4337 12.0882 35.5918 12.3896 35.8722C12.691 36.1527 12.8602 36.5326 12.8602 36.9287V43.0028ZM12.0901 24.8275C11.8784 24.8275 11.6688 24.7888 11.4732 24.7136C11.2776 24.6384 11.0999 24.5282 10.9503 24.3893C10.8006 24.2504 10.6819 24.0854 10.6009 23.9039C10.5198 23.7224 10.4782 23.5279 10.4782 23.3314C10.4782 23.135 10.5198 22.9404 10.6009 22.7589C10.6819 22.5774 10.8006 22.4125 10.9503 22.2736C11.0999 22.1346 11.2776 22.0244 11.4732 21.9492C11.6688 21.8741 11.8784 21.8354 12.0901 21.8354H34.3959C34.8234 21.8354 35.2334 21.993 35.5357 22.2736C35.838 22.5541 36.0078 22.9346 36.0078 23.3314C36.0078 23.7282 35.838 24.1087 35.5357 24.3893C35.2334 24.6699 34.8234 24.8275 34.3959 24.8275H12.0901ZM12.0901 15.1168C11.8717 15.1272 11.6534 15.0962 11.4484 15.0258C11.2434 14.9554 11.0559 14.847 10.8974 14.7072C10.7389 14.5675 10.6127 14.3993 10.5265 14.2128C10.4403 14.0264 10.3958 13.8256 10.3958 13.6227C10.3958 13.4198 10.4403 13.219 10.5265 13.0326C10.6127 12.8461 10.7389 12.6779 10.8974 12.5381C11.0559 12.3984 11.2434 12.29 11.4484 12.2196C11.6534 12.1492 11.8717 12.1182 12.0901 12.1286H39.4463C39.859 12.1482 40.2478 12.3141 40.5325 12.5922C40.8171 12.8702 40.9759 13.2391 40.9759 13.6227C40.9759 14.0062 40.8171 14.3751 40.5325 14.6532C40.2478 14.9312 39.859 15.0972 39.4463 15.1168H12.0901ZM22.6496 38.4209L12.4352 47.5144C12.2162 47.7368 11.9298 47.8925 11.6137 47.961C11.2976 48.0294 10.9665 48.0075 10.6641 47.898C10.3617 47.7885 10.102 47.5966 9.91936 47.3476C9.73668 47.0985 9.63951 46.804 9.64063 46.5027V38.4209H4.24935C3.15567 38.4157 2.10829 38.0105 1.33454 37.2931C0.560782 36.5757 0.12309 35.604 0.116455 34.5889L0.116455 3.83584C0.125255 2.82104 0.56351 1.85011 1.33668 1.13252C2.10985 0.414922 3.15596 0.00816781 4.24935 0L47.2533 0C48.3477 0.00513272 49.3957 0.410913 50.1696 1.12916C50.9435 1.84741 51.3807 2.82009 51.3862 3.83584V34.5889C51.3818 35.6046 50.9448 36.5775 50.1706 37.2954C49.3964 38.0132 48.3477 38.4178 47.2533 38.4209H22.6496Z" fill="#00D4BB"></path></svg>
