<svg width="20" height="20" viewBox="0 0 46 47" fill="none" xmlns="http://www.w3.org/2000/svg"><path d="M21.4716 46.2222C22.3512 46.2021 23.1952 45.8731 23.8544 45.2936C24.5137 44.7141 24.9456 43.9213 25.0739 43.0555H17.7297C17.8616 43.9449 18.3138 44.7562 19.0021 45.3387C19.6904 45.9212 20.568 46.2352 21.4716 46.2222V46.2222Z" fill="#00D4BB"></path><path d="M42.2058 37.6806L41.7311 37.2639C40.3843 36.0703 39.2055 34.7015 38.2265 33.1945C37.1573 31.1147 36.5165 28.8434 36.3416 26.5139V19.6528C36.3359 18.8194 36.2612 17.9879 36.1182 17.1667C33.7531 16.6831 31.6287 15.4014 30.1046 13.5386C28.5805 11.6758 27.7504 9.34627 27.7547 6.94447V6.06947C26.2969 5.35584 24.7307 4.88657 23.1192 4.68058V2.93058C23.1192 2.43883 22.9228 1.96721 22.5733 1.61949C22.2237 1.27177 21.7496 1.07642 21.2552 1.07642C20.7609 1.07642 20.2868 1.27177 19.9372 1.61949C19.5876 1.96721 19.3913 2.43883 19.3913 2.93058V4.75003C15.783 5.25635 12.4807 7.04411 10.094 9.78327C7.70736 12.5224 6.39749 16.028 6.40625 19.6528V26.5139C6.23138 28.8434 5.59054 31.1147 4.52133 33.1945C3.55916 34.6977 2.39932 36.0663 1.07262 37.2639L0.5979 37.6806V41.5972H42.2058V37.6806Z" fill="#00D4BB"></path><path d="M38.2266 13.8889C42.0822 13.8889 45.2078 10.7798 45.2078 6.94444C45.2078 3.10913 42.0822 0 38.2266 0C34.371 0 31.2454 3.10913 31.2454 6.94444C31.2454 10.7798 34.371 13.8889 38.2266 13.8889Z" fill="#00D4BB"></path></svg>
