<svg width="20" height="20" viewBox="0 0 52 62" fill="none" xmlns="http://www.w3.org/2000/svg"><path fill-rule="evenodd" clip-rule="evenodd" d="M36.3929 18.0732L44.6831 18.1035C44.673 20.3135 43.7855 22.4326 42.2122 23.9816C41.839 24.3499 41.4356 24.6779 41.0019 24.9705L36.3929 18.0732ZM0.595035 61.561C0.247091 61.3996 0 61.0514 0 60.6377V1.00911C0 0.454102 0.448798 0 1.00853 0H10.7913H50.9915C51.5462 0 52 0.449056 52 1.00911V55.3651C52 55.4206 51.995 55.471 51.9899 55.5215C51.8487 57.5044 51.2033 59.0483 50.0434 60.1533C48.8836 61.2533 47.2548 61.8688 45.142 61.9899C45.0966 61.995 45.0562 62 45.0109 62H1.42708C1.08417 62 0.776571 61.8234 0.595035 61.561ZM17.9015 17.6091H20.4278C20.564 17.6091 20.6699 17.7201 20.6699 17.8512V22.8211C20.6699 22.9574 20.559 23.0633 20.4278 23.0633H17.9015C17.7653 23.0633 17.6594 22.9523 17.6594 22.8211V17.8512C17.6594 17.7201 17.7653 17.6091 17.9015 17.6091ZM8.4969 14.5666H11.0233C11.1594 14.5666 11.2653 14.6776 11.2653 14.8088V22.8262C11.2653 22.9624 11.1544 23.0684 11.0233 23.0684H8.4969C8.36074 23.0684 8.25485 22.9574 8.25485 22.8262V14.8088C8.24981 14.6776 8.36074 14.5666 8.4969 14.5666ZM13.2017 12.8561H15.7281C15.8642 12.8561 15.9701 12.9671 15.9701 13.0983V22.8262C15.9701 22.9624 15.8592 23.0684 15.7281 23.0684H13.2017C13.0656 23.0684 12.9597 22.9574 12.9597 22.8262V13.0983C12.9546 12.9621 13.0656 12.8561 13.2017 12.8561ZM49.988 55.3398V2.01318H10.7913H2.01202V59.9868H45.0058H45.026C46.6447 59.896 47.8549 59.4621 48.6567 58.7002C49.4484 57.9484 49.8871 56.8232 49.988 55.3398ZM8.48177 53.806C7.93212 53.806 7.48332 53.3569 7.48332 52.7969C7.48332 52.2419 7.92707 51.7928 8.48177 51.7928H44.0326C44.5822 51.7928 45.031 52.2419 45.031 52.7969C45.031 53.3519 44.5873 53.806 44.0326 53.806H8.48177ZM8.64313 46.4596C8.09348 46.4596 7.64469 46.0106 7.64469 45.4505C7.64469 44.8955 8.08844 44.4414 8.64313 44.4414H43.9418C44.4915 44.4414 44.9403 44.8905 44.9403 45.4505C44.9403 46.0055 44.4965 46.4596 43.9418 46.4596H8.64313ZM8.48177 39.1133C7.93212 39.1133 7.48332 38.6642 7.48332 38.1042C7.48332 37.5492 7.92707 37.1001 8.48177 37.1001H23.6753C24.225 37.1001 24.6738 37.5492 24.6738 38.1042C24.6738 38.6592 24.23 39.1133 23.6753 39.1133H8.48177ZM27.5531 39.1133C27.0035 39.1133 26.5547 38.6642 26.5547 38.1042C26.5547 37.5492 26.9984 37.1001 27.5531 37.1001H43.9418C44.4915 37.1001 44.9403 37.5492 44.9403 38.1042C44.9403 38.6592 44.4965 39.1133 43.9418 39.1133H27.5531ZM8.48177 32.5591C7.93212 32.5591 7.48332 32.11 7.48332 31.55C7.48332 30.995 7.92707 30.5409 8.48177 30.5409H21.0078C21.5574 30.5409 22.0062 30.9899 22.0062 31.55C22.0062 32.105 21.5625 32.5591 21.0078 32.5591H8.48177ZM8.48177 7.01839C7.93212 7.01839 7.48332 6.56934 7.48332 6.00928C7.48332 5.44922 7.92707 5.00016 8.48177 5.00016H15.9651C16.5147 5.00016 16.9635 5.44922 16.9635 6.00928C16.9635 6.56934 16.5198 7.01839 15.9651 7.01839H8.48177ZM35.5458 16.4284L35.102 7.56331C35.0919 7.38672 35.2281 7.2404 35.4046 7.23031C35.455 7.22526 35.5155 7.22526 35.5811 7.22526C35.6365 7.22526 35.6971 7.22022 35.7576 7.22022C38.1932 7.19499 40.422 8.11833 42.0912 9.65218C43.7603 11.1911 44.8646 13.3405 45.0361 15.7725C45.0462 15.9491 44.9151 16.1004 44.7436 16.1105L35.8786 16.7463C35.7021 16.7563 35.5508 16.6252 35.5407 16.4536C35.5458 16.4435 35.5458 16.4334 35.5458 16.4284ZM35.7525 7.85596L36.166 16.0903L44.3856 15.505C44.1536 13.3708 43.1501 11.4888 41.6726 10.1265C40.1195 8.69352 38.0368 7.83577 35.7727 7.861L35.7525 7.85596ZM34.5524 17.6898L38.995 25.3893C37.6435 26.1714 36.1105 26.5801 34.5524 26.5801C29.6458 26.5801 25.6672 22.5991 25.6672 17.6898C25.6672 13.2799 28.8995 9.53109 33.2614 8.89534L34.5524 17.6898Z" fill="#00D4BB"></path></svg>
