<svg width="20" height="20" viewBox="0 0 48 49" fill="none" xmlns="http://www.w3.org/2000/svg"><path d="M23.8805 0.583561C22.6387 0.88393 21.4152 2.13294 21.1949 3.32511C21.1579 3.51278 21.1027 3.67252 21.0845 3.67252C21.0571 3.67252 20.7624 3.53189 20.4221 3.36284C19.861 3.08109 19.7506 3.06247 18.8952 3.06247C18.049 3.06247 17.9203 3.0904 17.3592 3.36284C16.5499 3.74798 15.8875 4.42369 15.5102 5.25032C15.2251 5.85155 15.216 5.93583 15.1882 7.29705L15.1512 8.72442L14.5349 8.42405C13.9829 8.16092 13.8451 8.13299 12.9989 8.13299C12.1157 8.13299 12.0514 8.15161 11.3798 8.48971C10.6349 8.85574 10.0646 9.40993 9.73344 10.0768L9.55872 10.4335H6.4776H3.39648V21.4659V32.4987H6.33072H9.26496L9.31104 34.7709C9.348 36.602 9.39408 37.2311 9.55008 37.9632C10.6723 43.2214 14.5445 47.1556 19.7045 48.2919C20.9554 48.5644 23.448 48.583 24.6715 48.339C26.4374 47.9729 27.9922 47.3247 29.4638 46.3295C30.6874 45.5033 32.3242 43.8506 33.0787 42.6584C33.3912 42.1797 34.6699 39.6914 35.9299 37.1469L38.2109 32.4992H41.412H44.6035V21.4659V10.433H39.2779H33.9432L33.9158 8.10457C33.888 5.82264 33.888 5.77609 33.6398 5.25032C32.8214 3.46623 30.853 2.60236 29.041 3.23152L28.4155 3.44761L28.2778 3.00612C27.7066 1.25976 25.6925 0.151382 23.8805 0.583561ZM25.2235 2.55532C25.619 2.66802 26.1523 3.10951 26.3549 3.49416C26.4562 3.71025 26.4835 4.36734 26.4835 7.09958V10.433H24.7358H22.979L23.0069 7.11869L23.0342 3.81364L23.2642 3.40988C23.485 3.00612 23.8805 2.68664 24.3494 2.54601C24.6989 2.43331 24.828 2.44262 25.2235 2.55532ZM19.7688 5.27825C19.9526 5.39095 20.2195 5.64428 20.3482 5.86037L20.5963 6.24551V8.33928V10.433H18.8395H17.0918L17.1197 8.38632C17.147 6.48022 17.1566 6.32048 17.3587 5.95445C17.819 5.07196 18.8861 4.7711 19.7688 5.27825ZM30.733 5.08127C31.1928 5.21259 31.6253 5.59773 31.8274 6.06715C31.9747 6.39594 32.0021 6.70562 32.0021 8.43336V10.4335H30.2544H28.5072V8.41474C28.5072 6.61203 28.5254 6.3489 28.6819 6.03922C28.9118 5.57911 29.2339 5.27874 29.675 5.12831C30.1075 4.96857 30.2914 4.95926 30.733 5.08127ZM13.5235 10.1611C14.1307 10.3679 14.0112 10.4335 13.0176 10.4335C12.024 10.4335 11.831 10.3395 12.4382 10.1611C12.852 10.0386 13.165 10.0386 13.5235 10.1611ZM42.6538 21.438L42.672 30.4334H40.9704H39.2688L39.9216 29.0908C40.2898 28.3582 40.6757 27.485 40.7861 27.1469C40.979 26.5555 40.9978 26.5364 41.3194 26.5085L41.6597 26.4805V21.4566V16.4424H41.448C41.0342 16.4424 40.3075 16.1607 39.8938 15.8417C39.3326 15.4002 38.9098 14.7054 38.7806 14.0012L38.6702 13.4377H23.9909H9.30144L9.23712 13.8601C9.05328 15.137 8.11488 16.1415 6.89184 16.3763L6.33984 16.489V21.485V26.4894H6.61584C7.05744 26.4894 7.8576 26.8461 8.2992 27.2405C8.78688 27.682 9.16368 28.3955 9.24672 29.0432L9.31104 29.494H19.824H30.3466L30.1166 29.9635L29.8867 30.4329H17.6074H5.328V21.485C5.328 16.5556 5.35536 12.4989 5.39232 12.471C5.41968 12.4332 13.8178 12.4146 24.0365 12.4239L42.6254 12.4519L42.6538 21.438ZM37.4842 16.0293C37.8888 16.7428 38.6338 17.4753 39.2779 17.8134L39.7286 18.0388V20.433C39.7286 21.7476 39.7104 22.8271 39.6826 22.8271C39.6547 22.8271 39.4526 22.6865 39.2227 22.5081C37.6867 21.3061 35.3045 21.5036 33.8971 22.9589C33.529 23.3249 33.2074 23.8605 32.4898 25.2688C31.9747 26.2733 31.524 27.1749 31.487 27.2592C31.4318 27.4189 30.8525 27.4282 21.1022 27.4282H10.7822L10.6075 27.0338C10.3776 26.508 9.36576 25.4658 8.75856 25.1183L8.27088 24.8459V21.4473V18.0574L8.78592 17.7571C9.51264 17.344 10.1011 16.7433 10.5154 16.02L10.8739 15.4095H24H37.1256L37.4842 16.0293ZM37.7971 23.9541C38.257 24.1888 38.772 24.8087 38.8915 25.2404C39.1584 26.2076 39.287 25.8788 35.3962 33.785C33.4186 37.804 31.6066 41.3623 31.3766 41.7004C30.7882 42.555 29.3256 44.0196 28.5067 44.5831C25.1405 46.8837 21.001 47.1747 17.423 45.3627C16.1813 44.7428 15.5189 44.2548 14.5531 43.2875C13.5965 42.3389 13.0262 41.5319 12.4099 40.2451C11.4994 38.367 11.2234 36.9117 11.2142 34.0197V32.4987H19.9982C24.827 32.4987 28.7822 32.5271 28.7822 32.5644C28.7822 32.6114 28.5706 33.0338 28.3224 33.5218C28.0646 34.0006 27.8626 34.4421 27.8626 34.4891C27.8626 34.5361 28.3406 34.5548 28.9387 34.5455L30.0149 34.517L32.1946 30.1977C35.0098 24.6396 35.1019 24.4706 35.4883 24.1702C36.132 23.663 37.0795 23.5788 37.7971 23.9541Z" fill="#00D4BB"></path><path d="M22.8595 16.5928C21.9859 16.8089 21.1301 17.3254 20.4682 18.0388C19.5394 19.0433 19.1251 20.0953 19.1251 21.4659C19.1251 22.8839 19.5576 23.9355 20.5416 24.9493C21.5626 25.9915 22.5744 26.433 24 26.433C25.4438 26.4423 26.6491 25.8886 27.6518 24.7709C28.4702 23.8507 28.8754 22.7707 28.8754 21.4659C28.8754 20.0948 28.4616 19.0433 27.5323 18.0388C26.3088 16.7241 24.552 16.1798 22.8595 16.5928ZM25.0301 18.6587C25.6186 18.8556 26.3179 19.5132 26.6395 20.1796C26.9798 20.8837 27.0077 21.973 26.6947 22.6492C26.4096 23.297 25.8667 23.8512 25.2413 24.1609C24.1099 24.7053 22.6752 24.424 21.8472 23.4847C21.2952 22.8555 21.1022 22.3484 21.1022 21.4659C21.1022 20.5741 21.2952 20.0576 21.8842 19.4093C22.6939 18.5175 23.7792 18.2549 25.0301 18.6587Z" fill="#00D4BB"></path></svg>
