<svg width="20" height="20" viewBox="0 0 77 78" fill="none" xmlns="http://www.w3.org/2000/svg"><g clip-path="url(#clip0_11_114)"><path fill-rule="evenodd" clip-rule="evenodd" d="M62.7003 48.601C65.5285 48.601 68.2932 49.4631 70.6448 51.0783C72.9964 52.6935 74.8292 54.9892 75.9115 57.6752C76.9938 60.3612 77.277 63.3168 76.7252 66.1682C76.1735 69.0196 74.8116 71.6388 72.8117 73.6946C70.8119 75.7503 68.2639 77.1503 65.4901 77.7175C62.7162 78.2847 59.841 77.9936 57.2281 76.881C54.6152 75.7684 52.3819 73.8844 50.8106 71.4671C49.2394 69.0497 48.4007 66.2077 48.4007 63.3005C48.4007 59.4019 49.9073 55.6631 52.589 52.9064C55.2707 50.1497 58.9078 48.601 62.7003 48.601ZM45.537 71.6873H-1.23984e-05C-0.081474 54.1922 10.308 57.6062 21.5372 51.7187C24.4385 50.2436 25.015 49.7025 26.475 46.3787C26.516 46.2861 26.5687 46.1995 26.6317 46.121C24.5951 44.253 22.9972 42.3527 22.6588 38.4621H22.4082C21.8993 38.4578 21.3996 38.3227 20.9544 38.0692H20.9106C19.921 37.3505 19.2459 36.2609 19.0307 35.0352C18.6789 33.4752 18.6003 31.8633 18.7988 30.275L18.8677 30.0302C18.9602 29.6244 19.1471 29.2477 19.4123 28.9324C19.6775 28.6171 20.0132 28.3727 20.3905 28.2201C20.1335 23.2344 20.9481 15.3371 16.0041 13.8041C25.8045 1.28825 37.1465 -5.50108 45.6623 5.61693C55.4691 6.14513 59.7427 21.9139 52.2921 28.9351C52.8367 28.8883 53.3833 28.9976 53.8712 29.2508C54.1421 29.3979 54.382 29.599 54.5767 29.8423C54.7714 30.0855 54.9171 30.3662 55.0054 30.6679C55.211 31.4708 55.1915 32.3172 54.949 33.1092L53.6957 36.768C53.5687 37.2805 53.296 37.7425 52.9124 38.0949C52.423 38.4503 51.8201 38.6001 51.2268 38.5136L50.8508 38.4685C50.7944 41.8696 49.5036 43.8021 47.5861 45.7796L47.655 45.9342C48.043 47.1459 48.6994 48.2485 49.5725 49.155L49.2655 49.4642C48.8582 49.8829 48.4634 50.3273 48.0937 50.7524C47.184 49.7715 46.433 48.6472 45.8691 47.4222C43.3626 49.8957 40.7684 51.6221 37.1527 51.6092C33.6812 51.6092 30.8865 49.9151 28.38 47.6348C27.5682 49.3798 26.4963 50.9837 25.203 52.3886C29.0692 58.1859 38.4373 59.4742 44.948 56.3308C44.0486 58.7925 43.6406 61.4151 43.7482 64.0423C43.8559 66.6696 44.477 69.2477 45.5746 71.6229L45.537 71.6873ZM44.3339 15.0022C40.9062 18.5514 36.9334 18.6287 33.393 18.8671C31.4061 19.2147 29.5224 20.0232 27.8849 21.2311C26.6195 22.0728 25.6507 23.3103 25.1215 24.761C24.6305 26.3658 24.5892 28.0803 25.0024 29.7081C25.0397 29.8885 25.0267 30.0761 24.9648 30.2492C24.8776 30.4845 24.7038 30.6751 24.4811 30.7799C24.2584 30.8847 24.0045 30.8954 23.7742 30.8096L22.8844 30.4811C21.744 30.0753 20.9356 29.882 20.616 30.6421C20.4615 31.9601 20.5272 33.2955 20.8103 34.5908C20.9256 35.3172 21.2929 35.9762 21.8442 36.4459C22.0158 36.5466 22.2107 36.5978 22.4082 36.5941C22.6856 36.5891 22.9606 36.5391 23.2228 36.4459L23.4672 36.4072C23.5926 36.4011 23.718 36.4213 23.8356 36.4665C23.9532 36.5116 24.0607 36.5809 24.1515 36.67C24.2423 36.7592 24.3146 36.8663 24.3639 36.985C24.4132 37.1037 24.4386 37.2315 24.4385 37.3606C24.545 41.7923 26.4499 43.5122 28.7622 45.5671L29.7961 46.4817C32.1648 48.6525 34.6901 49.7862 37.1527 49.7991C39.6154 49.812 41.9339 48.762 44.1271 46.5784L44.9041 45.8118C47.4545 43.319 49.2905 41.5282 48.9271 37.1287C48.9151 36.9198 48.9678 36.7124 49.0775 36.5361C49.2116 36.3331 49.4161 36.1907 49.6492 36.138C49.8823 36.0853 50.1262 36.1263 50.3307 36.2527C50.6096 36.4453 50.9262 36.5729 51.2581 36.6263H51.7156L53.1129 32.6454C53.2894 32.2009 53.3415 31.7145 53.2633 31.2412C53.247 31.1771 53.2179 31.1171 53.178 31.065C53.1382 31.0129 53.0883 30.9698 53.0315 30.9384C52.8346 30.8499 52.6178 30.8187 52.4049 30.8482C51.7665 30.9134 51.1587 31.1611 50.6503 31.5632C50.5499 31.6425 50.4345 31.6994 50.3115 31.7305C50.1886 31.7615 50.0607 31.766 49.9359 31.7436C49.6948 31.698 49.4805 31.5572 49.3388 31.3515C49.1971 31.1457 49.1393 30.8911 49.1777 30.6421C50.0801 25.2248 49.6665 21.6884 48.5511 19.2729C47.643 17.4028 46.167 15.8878 44.3464 14.9571L44.3339 15.0022ZM60.0998 56.3565C60.0998 55.5707 60.0247 55.0038 60.9771 55.0232L64.0539 55.0618C65.0502 55.0618 65.3071 55.3774 65.3071 56.3501V60.6659H69.4805C70.2449 60.6659 70.7901 60.5886 70.7776 61.5677L70.74 64.7305C70.74 65.7547 70.4329 66.0188 69.4867 66.0188H65.2946V70.3281C65.2946 71.2879 65.0439 71.6164 64.0413 71.6164L60.9646 71.6551C60.0121 71.6551 60.0873 71.1076 60.0873 70.3217V66.0317H55.8889C54.9615 66.0317 54.6357 65.774 54.6357 64.7434L54.5981 61.5806C54.5981 60.6015 55.1307 60.6788 55.8952 60.6788H60.0685V56.3372L60.0998 56.3565Z" fill="#00D4BB"></path></g><defs><clipPath id="clip0_11_114"><rect width="77" height="78" fill="white"></rect></clipPath></defs></svg>
