<svg width="24" height="24" viewBox="0 0 94 98" fill="none" xmlns="http://www.w3.org/2000/svg"><g clip-path="url(#clip0_18_177)"><path d="M64.9181 82.5201C65.5393 82.5185 66.147 82.7085 66.6642 83.0659C67.1815 83.4234 67.5851 83.9323 67.8238 84.5282C68.0626 85.124 68.1259 85.7801 68.0056 86.4134C67.8854 87.0467 67.587 87.6286 67.1483 88.0856C66.7095 88.5426 66.1502 88.854 65.541 88.9806C64.9319 89.1071 64.3003 89.0429 63.7262 88.7963C63.1522 88.5496 62.6614 88.1316 62.3162 87.595C61.9709 87.0584 61.7866 86.4274 61.7866 85.782C61.7855 85.354 61.8658 84.93 62.0227 84.5343C62.1796 84.1386 62.4102 83.7789 62.701 83.4759C62.9919 83.1729 63.3375 82.9325 63.7179 82.7685C64.0984 82.6045 64.5062 82.5201 64.9181 82.5201ZM67.6889 34.174C68.3674 34.3499 68.965 34.7676 69.3775 35.3544C70.2064 36.4629 70.4367 38.2574 70.2064 40.1395C69.9963 41.8969 69.4173 43.5849 68.5102 45.0842C67.5047 46.6792 66.2076 47.7081 64.6725 47.6044C64.565 52.7963 62.1166 55.1809 58.9237 58.2992L57.7033 59.5035L57.2888 59.9102L57.3886 59.982C57.0033 60.3017 56.5982 60.5947 56.1759 60.8593C55.0968 61.6942 53.9043 62.3581 52.6375 62.8292C50.9491 63.4347 49.1737 63.7367 47.3876 63.7224C45.5339 63.7521 43.6888 63.4554 41.9304 62.8451L41.1629 62.558C40.156 62.2447 39.1914 61.7998 38.2923 61.2341L37.9086 60.9869C37.4823 62.3239 36.8997 63.6015 36.1739 64.7911L48.0861 73.4123L59.2767 63.7224C58.5804 62.5898 58.0064 61.3809 57.5651 60.1176C62.5004 63.7623 63.5672 71.3707 63.4061 77.5116C63.4061 78.3091 63.36 78.5165 63.3447 78.7797C62.1486 79.0565 61.046 79.6623 60.1524 80.5335C59.2587 81.4048 58.6068 82.5095 58.2648 83.7322C57.9227 84.9549 57.9032 86.2507 58.2081 87.4839C58.5131 88.7172 59.1313 89.8426 59.9982 90.7426C61.1412 92.0333 62.7216 92.8128 64.4067 92.917C66.0917 93.0211 67.7499 92.4417 69.0321 91.3008C69.8484 90.638 70.5089 89.791 70.9637 88.8238C71.4185 87.8566 71.6556 86.7946 71.6571 85.7182C71.6573 84.5973 71.3713 83.4965 70.8281 82.5281C69.6768 80.4545 68.4257 79.8484 66.5146 78.8594C66.3841 78.7877 66.5146 78.4846 66.5146 77.6392C66.6837 73.859 66.306 70.0738 65.394 66.41C66.2305 66.8635 67.1037 67.2398 68.0036 67.5346C74.8347 69.2094 83.2315 69.9271 86.2402 71.6817C87.7318 72.5262 89.0386 73.6831 90.0779 75.0792C92.7412 78.7318 92.9638 89.2432 93.9156 93.7094C93.6776 96.3252 92.2577 97.8246 89.4485 98.0479H4.46705C1.66555 97.7767 0.237936 96.2694 0 93.6615C0.967094 89.1954 1.19735 78.676 3.83767 75.0313C4.88109 73.6239 6.20282 72.4654 7.71373 71.6338C11.9889 69.1615 22.4657 68.4916 29.435 66.4818C28.7789 68.5484 28.3716 70.6914 28.2223 72.862C27.4547 73.4761 25.4284 74.1939 24.7914 74.9834C23.6817 76.3608 22.6904 77.8366 21.8287 79.3938C21.6934 79.6361 21.6219 79.9112 21.6215 80.1913C21.6215 80.4146 21.844 80.6459 21.7519 80.8373L21.6061 81.1324C19.6105 85.12 18.3134 89.5941 18.9274 91.5002C19.0927 91.9539 19.3648 92.3572 19.7187 92.6735C20.0727 92.9897 20.4973 93.2088 20.9537 93.3106C21.7428 93.5266 22.5554 93.6365 23.3714 93.6376C23.6094 93.6376 23.855 93.6376 24.0929 93.6376C24.215 93.7557 24.3488 93.8599 24.492 93.9486C24.6557 94.0496 24.8278 94.135 25.0063 94.2038C25.2293 94.2924 25.466 94.3383 25.7047 94.3394C25.9597 94.3394 26.2121 94.2869 26.4473 94.1848C26.6826 94.0827 26.896 93.9331 27.0752 93.7447C27.2544 93.5562 27.3958 93.3327 27.4913 93.0871C27.5867 92.8415 27.6343 92.5786 27.6313 92.3137C27.6252 92.0381 27.5652 91.7668 27.4547 91.5162C27.3071 91.1381 27.0546 90.8141 26.7293 90.5855C26.404 90.3568 26.0207 90.2338 25.628 90.2321C24.9219 90.2321 23.9164 90.599 23.9164 91.3327V91.3806H23.4252C22.8223 91.386 22.2213 91.311 21.6368 91.1573C21.2914 91.0616 21.0919 90.926 21.0458 90.7745C20.6006 89.4346 21.8133 85.7261 23.571 82.1373L23.7936 81.6986C24.1191 81.5627 24.39 81.315 24.5611 80.9968C25.3208 79.6114 26.1966 78.2984 27.1784 77.073C27.9072 76.3794 28.8041 75.9052 29.7727 75.7012H29.9339C30.4163 76.0616 30.859 76.4762 31.254 76.9374C32.3017 78.1668 33.2274 79.5027 34.0171 80.925C34.1937 81.252 34.6235 81.3238 34.7847 81.6348C36.8186 85.0482 37.9623 88.9641 37.686 90.4555C37.6246 90.8064 37.3482 91.0137 36.9184 91.1573C36.2628 91.3434 35.5871 91.4426 34.9075 91.4524C34.8849 91.4003 34.8593 91.3497 34.8307 91.3008C34.8307 90.5671 33.8176 90.2242 33.1115 90.2002C32.7188 90.2019 32.3354 90.3249 32.0101 90.5536C31.6849 90.7822 31.4324 91.1062 31.2847 91.4843C31.1775 91.736 31.1176 92.0067 31.1082 92.2818C31.1082 92.8127 31.3112 93.3219 31.6725 93.6973C32.0337 94.0727 32.5238 94.2836 33.0347 94.2836C33.276 94.2826 33.5151 94.2367 33.7408 94.148C33.9169 94.0792 34.0864 93.9938 34.2474 93.8928C34.3437 93.8328 34.436 93.7662 34.5237 93.6934H34.8C35.7497 93.7143 36.6969 93.5853 37.6092 93.3106C38.1661 93.1706 38.6723 92.8667 39.0671 92.4352C39.4619 92.0038 39.7286 91.4631 39.8351 90.8781C40.1728 88.9322 38.8142 84.6415 36.811 80.7496C36.8947 80.5455 36.9365 80.3254 36.9338 80.1036C36.9266 79.8234 36.8527 79.5494 36.7189 79.306C35.815 77.6878 34.761 76.1653 33.572 74.7601C32.9349 74.0184 31.5303 73.8031 31.3845 72.8142C31.0007 70.2382 32.0753 67.0481 33.6871 64.2727C34.1087 63.7254 34.4836 63.141 34.8077 62.5261L35.0533 62.1752C35.7832 61.4096 36.6815 60.8402 37.6706 60.5163C37.2971 60.2239 36.921 59.9049 36.5423 59.5593L35.3603 58.4587L35.2836 58.3869C32.2134 55.6115 29.5961 53.2588 29.1433 47.5725C27.0096 47.3811 25.4975 45.2756 24.753 42.7873C24.3622 41.4606 24.1934 40.0741 24.2541 38.688C24.2637 37.3795 24.6691 36.1072 25.4131 35.0513C25.5563 34.8614 25.7184 34.6876 25.8966 34.5329L25.7892 34.4612C25.2979 28.0809 26.7332 17.0591 20.0864 14.9696C32.6279 -1.23612 46.4435 -4.20292 58.0256 5.68641C70.0606 6.38026 75.8708 24.4362 67.6889 34.174ZM32.3823 30.1864C31.794 32.1534 31.7409 34.2512 32.2288 36.2476C32.3101 36.5224 32.3037 36.8171 32.2106 37.0877C32.1174 37.3584 31.9425 37.5905 31.7119 37.7493C31.4813 37.9081 31.2075 37.9852 30.9313 37.9689C30.6551 37.9527 30.3913 37.8441 30.1795 37.6592C28.6444 36.3034 27.7157 36.1758 27.3166 36.6703C26.9332 37.2879 26.733 38.009 26.7409 38.7439C26.6938 39.8227 26.8262 40.9019 27.1324 41.934C27.6543 43.7125 28.6674 45.1719 29.8801 44.8051C29.9988 44.7632 30.1232 44.7417 30.2486 44.7413C30.4169 44.737 30.5844 44.7673 30.7415 44.8303C30.8985 44.8934 31.0421 44.988 31.164 45.1087C31.2859 45.2294 31.3837 45.3739 31.4518 45.5339C31.5199 45.6939 31.5571 45.8663 31.561 46.0412C31.6915 51.6239 34.0478 53.7533 36.9338 56.3293L37.0105 56.3931L38.2386 57.5097C39.5328 58.7337 41.0525 59.6724 42.7056 60.2691C43.8074 60.6545 44.9532 60.8878 46.1135 60.9629C46.9724 60.9803 47.8314 60.9376 48.6847 60.8353C49.843 60.7076 50.9868 60.4646 52.1003 60.1096C53.5077 59.5175 54.7884 58.6421 55.8689 57.5336L57.1123 56.3054C60.1824 53.3226 62.4236 51.1215 61.9938 45.7701C61.9736 45.5204 62.0215 45.2699 62.1321 45.0473C62.2427 44.8247 62.4115 44.639 62.6191 44.5116C62.8267 44.3841 63.0647 44.3201 63.3057 44.3269C63.5467 44.3337 63.781 44.411 63.9817 44.5499C64.849 45.148 65.7087 44.5499 66.3457 43.5609C67.0426 42.4048 67.4855 41.1031 67.6429 39.7487C67.853 38.8033 67.7418 37.8114 67.3282 36.9415C67.0211 36.5267 66.1999 36.6942 64.6188 37.9463C64.4185 38.1238 64.1705 38.2328 63.9085 38.2587C63.6465 38.2846 63.3831 38.2261 63.1543 38.0911C62.9254 37.956 62.7421 37.7511 62.6292 37.504C62.5163 37.257 62.4794 36.9798 62.5234 36.7102C63.644 29.8993 63.0837 25.6884 61.6484 22.8811C60.3973 20.4885 58.4017 19.0131 56.2757 17.8407C51.5553 21.5891 48.2242 22.0118 44.9085 22.4424C42.1684 22.7933 39.4436 23.1443 35.8285 25.7362C34.2541 26.7977 33.051 28.3583 32.3976 30.1864H32.3823Z" fill="#00D4BB"></path></g><defs><clipPath id="clip0_18_177"><rect width="94" height="98" fill="white"></rect></clipPath></defs></svg>
