<svg width="20" height="20" viewBox="0 0 71 45" fill="none" xmlns="http://www.w3.org/2000/svg"><g clip-path="url(#clip0_12_116)"><path d="M16.2073 2.02734C16.252 1.63589 16.3887 1.26259 16.6047 0.941589C16.8207 0.620584 17.1092 0.362123 17.4438 0.189853C17.9777 -0.0468673 18.5735 -0.0750828 19.1252 0.110228C19.7107 0.286407 20.2583 0.581824 20.7372 0.979971C21.6004 1.71714 22.3089 2.63726 22.8174 3.68141C23.3258 4.72557 23.6229 5.87076 23.6898 7.04367C23.7411 7.93963 23.7295 8.83839 23.6551 9.73252C23.6031 10.345 23.528 11.0188 23.424 11.7109H29.5487C30.5081 11.7414 31.4493 11.9966 32.3048 12.4581C32.9902 12.8206 33.5754 13.365 34.0035 14.0384C34.4458 14.7552 34.6623 15.6022 34.6217 16.4577C34.5737 17.2347 34.3771 17.9932 34.0439 18.6872C34.2618 19.5659 34.3187 20.4808 34.2115 21.3822C34.131 22.0784 33.8319 22.7256 33.3621 23.2197C33.4107 24.2598 33.2674 25.3001 32.9404 26.2821C32.6392 27.1297 32.1748 27.9015 31.5767 28.5484C31.531 29.0932 31.4382 29.6324 31.2994 30.1592C31.1487 30.7623 30.9025 31.334 30.5714 31.8497V31.8497C29.5313 33.3993 28.6993 33.3687 27.3819 33.3075H26.6943H14.757C13.8313 33.3487 12.9098 33.1533 12.0702 32.7378C11.2412 32.2601 10.5212 31.5952 9.96126 30.7901L9.78792 30.2511V15.4839L10.4004 15.3124C11.9431 14.8714 13.1507 13.4749 14.0925 11.8089C14.985 10.1182 15.6852 8.32123 16.1784 6.45568V2.16821V2.00284L16.2073 2.02734ZM54.7927 42.9726C54.748 43.3641 54.6114 43.7374 54.3953 44.0584C54.1793 44.3794 53.8908 44.6378 53.5562 44.8101C53.0244 45.0518 52.4296 45.0886 51.8748 44.9142C51.2898 44.7293 50.7442 44.4256 50.2686 44.02C49.4064 43.2822 48.699 42.3619 48.1916 41.3177C47.6842 40.2736 47.3879 39.1287 47.3218 37.9563C47.2781 37.0618 47.2974 36.165 47.3796 35.2736C47.4316 34.6611 47.5067 33.9812 47.6107 33.2952H41.4513C40.4973 33.2601 39.5623 33.0029 38.7126 32.5418C38.0161 32.182 37.419 31.6377 36.9792 30.9616C36.5557 30.2377 36.3539 29.3926 36.4014 28.5422C36.4521 27.7677 36.6486 27.0117 36.9792 26.3189C36.7615 25.4381 36.7047 24.5212 36.8116 23.6178C36.8921 22.9216 37.1913 22.2743 37.661 21.7803C37.6162 20.7503 37.7594 19.7209 38.0828 18.7485C38.3841 17.9027 38.8485 17.133 39.4464 16.4883C39.4916 15.9414 39.5844 15.4001 39.7237 14.8714C39.8689 14.2577 40.1132 13.6754 40.446 13.1502V13.1502C41.486 11.5945 42.318 11.6313 43.6354 11.6864C43.8203 11.6864 44.0168 11.6864 44.323 11.6864H56.2372C57.1663 11.6413 58.092 11.8346 58.9356 12.2499C59.7646 12.7276 60.4846 13.3925 61.0445 14.1976L61.2179 14.7366V29.5161L60.6401 29.6876C59.0973 30.1286 57.8897 31.5251 56.9479 33.1911C56.0485 34.8812 55.3406 36.6781 54.839 38.5443V42.8317V42.9971L54.7927 42.9726ZM69.7751 31.0535H63.8295C63.5061 31.0519 63.1963 30.9154 62.9671 30.6736C62.7378 30.4317 62.6076 30.1039 62.6046 29.7611V12.5255C62.6061 12.1816 62.7356 11.8523 62.965 11.6091C63.1944 11.3659 63.5051 11.2286 63.8295 11.227H69.7751C70.0999 11.227 70.4115 11.3638 70.6412 11.6073C70.8709 11.8508 71 12.1811 71 12.5255V29.7611C70.9985 30.1044 70.8687 30.4331 70.6392 30.6753C70.4096 30.9175 70.0989 31.0535 69.7751 31.0535V31.0535ZM52.8744 43.2237C52.9579 43.17 53.0289 43.0968 53.0819 43.0099C53.1349 42.9229 53.1687 42.8243 53.1807 42.7215V38.434L53.2153 38.1829C53.7589 36.137 54.535 34.1687 55.5265 32.3213C56.5435 30.4839 57.8666 28.9587 59.5711 28.2421V15.0674C59.1944 14.5635 58.7245 14.1466 58.1902 13.8424C57.576 13.5484 56.9045 13.414 56.2314 13.4504H44.3057C44.0919 13.4504 43.8145 13.4504 43.5545 13.4504C42.7745 13.4197 42.2834 13.3952 41.7518 14.1854C41.5165 14.5601 41.3426 14.9742 41.2376 15.4104C41.1054 15.931 41.0241 16.4646 40.9949 17.0028L40.7464 17.5725C40.2318 18.0815 39.8361 18.7106 39.5908 19.4099C39.3026 20.3073 39.1963 21.259 39.2788 22.2029L39.2904 22.6623L38.8801 22.9318C38.7358 23.0438 38.6155 23.1867 38.5268 23.3514C38.4382 23.516 38.3834 23.6986 38.3659 23.8873C38.2867 24.6579 38.3575 25.4376 38.5739 26.178L38.5103 26.7905C38.2159 27.3407 38.0422 27.954 38.0019 28.5851C37.9724 29.0885 38.0959 29.5887 38.3543 30.0122C38.6329 30.4375 39.0086 30.781 39.4464 31.0106C40.078 31.3502 40.7724 31.5384 41.4802 31.5618H49.529L49.3499 32.5786C49.1801 33.5146 49.0547 34.459 48.9743 35.4083C48.9047 36.2229 48.8931 37.0419 48.9396 37.8583C48.9873 38.7863 49.2175 39.6934 49.6156 40.5214C50.0136 41.3495 50.5706 42.0801 51.2508 42.6664C51.5558 42.9297 51.9075 43.1254 52.2851 43.2421C52.4722 43.3107 52.6757 43.3107 52.8629 43.2421L52.8744 43.2237ZM1.22493 13.9465H7.17049C7.49336 13.9481 7.80258 14.0848 8.03089 14.3268C8.2592 14.5688 8.38813 14.8966 8.38965 15.2389V32.4622C8.38965 32.8055 8.26139 33.1349 8.03292 33.3782C7.80445 33.6216 7.49436 33.7591 7.17049 33.7607H1.22493C0.900062 33.7607 0.588495 33.6239 0.358775 33.3804C0.129055 33.1369 0 32.8066 0 32.4622V15.2389C0.00152771 14.8955 0.131257 14.5668 0.360812 14.3246C0.590366 14.0824 0.901061 13.9465 1.22493 13.9465V13.9465ZM18.1198 1.77621C18.0379 1.83132 17.9685 1.90491 17.9166 1.99173C17.8647 2.07855 17.8315 2.17646 17.8193 2.27846V6.56593L17.7847 6.81705C17.2402 8.86454 16.4641 10.8347 15.4735 12.6847C14.4565 14.4916 13.1334 16.0412 11.4289 16.7578V29.9326C11.8049 30.4372 12.275 30.8542 12.8098 31.1576C13.4254 31.4464 14.0962 31.5785 14.7686 31.5435H26.6943C26.9081 31.5435 27.1855 31.5435 27.4455 31.5435C28.2255 31.5802 28.7166 31.5986 29.2482 30.8085C29.4846 30.4344 29.6586 30.0201 29.7625 29.5835C29.8918 29.0622 29.9731 28.5289 30.0051 27.991L30.2536 27.4214C30.7682 26.9124 31.1639 26.2832 31.4092 25.5839C31.7089 24.7101 31.8348 23.78 31.779 22.8522L31.7501 22.3377L32.1603 22.0682C32.3037 21.9549 32.4227 21.8106 32.5094 21.6448C32.596 21.4789 32.6484 21.2955 32.663 21.1066C32.7422 20.3359 32.6714 19.5563 32.455 18.8158L32.5186 18.2033C32.8108 17.6522 32.9844 17.0393 33.027 16.4087C33.0548 15.9113 32.9313 15.4175 32.6746 15C32.3967 14.5724 32.021 14.2268 31.5825 13.9955C30.9498 13.6589 30.2561 13.4708 29.5487 13.4442H21.471L21.6501 12.4214C21.8199 11.4854 21.9453 10.541 22.0257 9.59165C22.0953 8.77707 22.1069 7.95809 22.0604 7.14167C22.012 6.21387 21.7815 5.30699 21.3835 4.47906C20.9855 3.65113 20.4289 2.92039 19.7492 2.33359C19.4428 2.07258 19.0916 1.87705 18.7149 1.75784C18.5278 1.68924 18.3243 1.68924 18.1371 1.75784L18.1198 1.77621Z" fill="#00D4BB"></path></g><defs><clipPath id="clip0_12_116"><rect width="71" height="45" fill="white"></rect></clipPath></defs></svg>
