<svg width="20" height="20" viewBox="0 0 113 95" fill="none" xmlns="http://www.w3.org/2000/svg"><path fill-rule="evenodd" clip-rule="evenodd" d="M0.593262 45.316H23.147V86.4635H0.593262V45.316ZM83.3327 23.2801C85.5661 23.2782 87.7499 23.9556 89.6078 25.2266C91.4657 26.4975 92.9143 28.305 93.7702 30.4202C94.6262 32.5354 94.8511 34.8634 94.4164 37.1097C93.9818 39.356 92.9072 41.4196 91.3286 43.0396C89.7499 44.6596 87.7382 45.7631 85.5478 46.2105C83.3574 46.658 81.0868 46.4293 79.0232 45.5533C76.9596 44.6774 75.1957 43.1936 73.9547 41.2896C72.7137 39.3856 72.0513 37.1469 72.0513 34.8569C72.0537 31.7889 73.2427 28.8471 75.3576 26.6769C77.4725 24.5066 80.3406 23.285 83.3327 23.2801ZM83.3327 17.2821C87.2958 17.2817 91.1365 18.6902 94.2004 21.2676C97.2643 23.845 99.3619 27.432 100.136 31.4174C100.91 35.4027 100.312 39.5399 98.4447 43.1242C96.5774 46.7084 93.5558 49.5179 89.8948 51.074C86.2338 52.6302 82.1598 52.8366 78.367 51.6583C74.5742 50.4799 71.2971 47.9897 69.0941 44.6118C66.8911 41.2338 65.8985 37.1772 66.2853 33.133C66.6722 29.0888 68.4146 25.3072 71.2156 22.4325C72.8037 20.795 74.6917 19.4953 76.7711 18.6082C78.8506 17.7212 81.0805 17.2642 83.3327 17.2635V17.2821ZM94.2962 23.6154C91.7607 21.017 88.425 19.4003 84.8574 19.0408C81.2898 18.6813 77.711 19.6012 74.7307 21.6437C71.7504 23.6863 69.5529 26.7251 68.5126 30.2427C67.4723 33.7602 67.6535 37.5387 69.0255 40.9345C70.3974 44.3304 72.8752 47.1334 76.0366 48.8662C79.1981 50.599 82.8476 51.1543 86.3636 50.4376C89.8795 49.7208 93.0444 47.7763 95.3189 44.9353C97.5935 42.0943 98.8371 38.5326 98.8378 34.8569C98.8412 32.7686 98.4417 30.7002 97.6622 28.7709C96.8828 26.8416 95.7388 25.0895 94.2962 23.6154ZM82.5697 41.0039C82.2427 40.9731 81.918 40.9202 81.5978 40.8455C80.9702 40.7123 80.3603 40.5029 79.7811 40.2215C79.2505 39.9752 78.7627 39.6418 78.3369 39.2343L79.7176 36.4402C80.0601 36.7935 80.4596 37.0833 80.8984 37.297C81.3718 37.5451 81.8717 37.7357 82.388 37.8652C82.8269 37.9853 83.2782 38.0509 83.7324 38.0608C84.0582 38.0741 84.3839 38.0299 84.6952 37.9304C84.794 37.8977 84.8796 37.8326 84.9387 37.745C84.9979 37.6575 85.0272 37.5524 85.0222 37.4461C85.018 37.3586 84.9903 37.2741 84.9422 37.2018C84.8941 37.1295 84.8275 37.0722 84.7497 37.0363C84.4864 36.902 84.2091 36.7989 83.9231 36.7289L81.9339 36.1608C81.4038 36.013 80.8941 35.7971 80.417 35.5181C79.9442 35.2603 79.5415 34.8858 79.2452 34.4285C78.9329 33.9261 78.7776 33.338 78.8001 32.7427C78.7854 31.9765 78.9805 31.2215 79.3633 30.5633C79.7599 29.9294 80.328 29.4277 80.9983 29.1197C81.4895 28.8868 82.0139 28.7358 82.5515 28.6727V27.1452H84.6225V28.7006C85.1745 28.7607 85.7174 28.8889 86.2393 29.0825C87.0023 29.3577 87.7013 29.7922 88.2922 30.3584L86.9297 32.9197C86.4472 32.5211 85.9158 32.1892 85.3492 31.9324C84.7474 31.6653 84.0973 31.532 83.4417 31.5412C83.1639 31.5351 82.8864 31.5633 82.6151 31.6251C82.4427 31.6629 82.283 31.7464 82.1519 31.8672C82.107 31.9137 82.0718 31.9691 82.0484 32.0299C82.025 32.0907 82.0139 32.1558 82.0156 32.2211C82.0166 32.3119 82.0452 32.4001 82.0972 32.4735C82.1493 32.547 82.2224 32.602 82.3063 32.6309C82.7005 32.8036 83.1075 32.9437 83.5234 33.05L84.9404 33.4226C85.8059 33.6121 86.6134 34.0149 87.293 34.5961C87.5761 34.8859 87.7955 35.2345 87.9365 35.6184C88.0775 36.0023 88.1368 36.4127 88.1105 36.822C88.1481 37.6734 87.9361 38.5169 87.5019 39.2436C87.1094 39.8678 86.5384 40.3525 85.8669 40.6313C85.4721 40.7951 85.0609 40.9137 84.6407 40.9852V42.5779H82.5697V41.0039ZM27.6886 83.0082V48.6224H42.7759C49.1342 49.7959 55.5652 53.3537 61.9598 57.4796H73.6772C78.9818 57.8056 81.7522 63.3192 76.602 66.9422C72.4964 70.025 67.0737 69.8574 61.5238 69.3451C57.6907 69.1495 57.5181 74.4303 61.5238 74.449C62.9044 74.5607 64.4123 74.2254 65.7384 74.2254C72.6689 74.2254 78.3823 72.8563 81.8794 67.2402L83.6324 63.0398L101.063 54.1733C109.783 51.2302 115.978 60.5903 109.556 67.0912C97.4028 76.1914 84.402 84.0374 70.7433 90.5149C61.1332 96.5129 51.514 96.308 41.8949 90.5149L27.6886 83.0082ZM51.3051 5.60288C53.1537 5.60288 54.9608 6.16495 56.4979 7.21802C58.0349 8.27109 59.2329 9.76786 59.9403 11.519C60.6478 13.2702 60.8328 15.1972 60.4722 17.0563C60.1116 18.9153 59.2214 20.623 57.9142 21.9633C56.6071 23.3036 54.9416 24.2163 53.1286 24.5861C51.3155 24.9559 49.4362 24.7661 47.7283 24.0407C46.0204 23.3154 44.5607 22.087 43.5336 20.511C42.5066 18.9349 41.9584 17.082 41.9584 15.1866C41.9584 12.6448 42.9432 10.2072 44.696 8.40987C46.4489 6.61258 48.8262 5.60288 51.3051 5.60288ZM51.3051 0.499025C54.6191 0.498562 57.8308 1.67635 60.3929 3.83172C62.9549 5.98709 64.7088 8.98666 65.3558 12.3193C66.0027 15.652 65.5027 19.1116 63.9408 22.1087C62.3789 25.1057 59.8519 27.4547 56.7903 28.7554C53.7287 30.0562 50.3219 30.2282 47.1505 29.2421C43.979 28.2561 41.2392 26.173 39.3977 23.3478C37.5562 20.5226 36.7271 17.1302 37.0516 13.7484C37.3761 10.3667 38.8341 7.20493 41.1773 4.80191C42.5066 3.43716 44.0854 2.35463 45.8233 1.61628C47.5611 0.877935 49.424 0.498273 51.3051 0.499025ZM60.2703 5.98473C58.1961 3.86531 55.4696 2.54853 52.555 2.2586C49.6405 1.96867 46.718 2.7235 44.2852 4.39459C41.8523 6.06567 40.0596 8.5497 39.2121 11.4237C38.3647 14.2978 38.5149 17.3841 39.6373 20.1574C40.7597 22.9306 42.7848 25.2192 45.3678 26.6336C47.9508 28.0479 50.9321 28.5006 53.804 27.9145C56.676 27.3284 59.261 25.7397 61.119 23.419C62.9771 21.0984 63.9932 18.1891 63.9944 15.1866C63.9971 13.4766 63.6694 11.783 63.0302 10.2036C62.391 8.62422 61.453 7.19033 60.2703 5.98473ZM50.6693 20.2811C50.4059 20.2811 50.1334 20.2066 49.87 20.1507C49.353 20.0347 48.8503 19.8598 48.3712 19.6292C47.9338 19.423 47.5295 19.1498 47.1722 18.8189L48.3258 16.537C48.6073 16.829 48.9362 17.0685 49.2977 17.2449C49.6917 17.4482 50.1058 17.6074 50.533 17.7199C50.8955 17.8148 51.2672 17.8679 51.6412 17.8782C51.9113 17.8883 52.1812 17.8537 52.4405 17.7757C52.5234 17.7474 52.5949 17.6919 52.6441 17.6179C52.6933 17.5439 52.7175 17.4554 52.713 17.3659C52.7111 17.2935 52.6886 17.2231 52.6483 17.1636C52.6079 17.104 52.5515 17.0578 52.4859 17.0307C52.2699 16.9159 52.0412 16.8283 51.8047 16.7699L50.1515 16.3321C49.7135 16.2102 49.2923 16.0318 48.898 15.8013C48.504 15.5779 48.1701 15.2579 47.9261 14.8699C47.6702 14.4526 47.5435 13.9655 47.5628 13.4729C47.5513 12.8412 47.7117 12.2187 48.0261 11.6753C48.3544 11.1456 48.8286 10.7275 49.3885 10.4739C49.7951 10.2871 50.2269 10.1646 50.6693 10.1107V8.79744H52.3679V10.0827C52.8231 10.1365 53.271 10.2428 53.7031 10.3994C54.3357 10.633 54.9163 10.994 55.4107 11.4611L54.2935 13.5381C53.8921 13.2107 53.4527 12.9354 52.9855 12.7185C52.4849 12.5048 51.9473 12.3971 51.405 12.4018C51.1758 12.3971 50.9469 12.4222 50.7238 12.4763C50.5815 12.5044 50.4496 12.5721 50.3423 12.6719C50.3043 12.7091 50.2742 12.7539 50.2538 12.8036C50.2335 12.8533 50.2234 12.9067 50.2242 12.9606C50.227 13.0366 50.2518 13.1099 50.2955 13.1713C50.3392 13.2327 50.3998 13.2793 50.4695 13.3052C50.7957 13.4483 51.1329 13.5636 51.4777 13.6498L52.6494 13.9665C53.3648 14.1087 54.0354 14.4285 54.6023 14.8978C54.8341 15.1429 55.0124 15.4357 55.1251 15.7569C55.2379 16.0781 55.2826 16.4203 55.2563 16.7606C55.2869 17.467 55.1131 18.1669 54.7568 18.7723C54.4223 19.2832 53.9484 19.6817 53.3943 19.9179C53.0704 20.0544 52.732 20.1513 52.386 20.2066V21.5291H50.6693V20.2811Z" fill="#00D4BB"></path></svg>
