<svg width="20" height="20" viewBox="0 0 78 70" fill="none" xmlns="http://www.w3.org/2000/svg"><path fill-rule="evenodd" clip-rule="evenodd" d="M0.79895 30.5051H16.2373V63.2484H0.79895V30.5051ZM23.1824 8.71582L44.9503 0.0742125C45.2114 -0.0295461 45.485 -0.0221348 45.7212 0.0816238V0.0742125L67.7751 9.07898C68.3161 9.30132 68.6456 9.92387 68.5959 10.5761C68.6021 10.6057 68.6021 10.6428 68.6021 10.6798V38.1314L69.572 37.5607C75.5409 35.2187 79.7876 42.6597 75.3855 47.8402C66.743 55.3331 57.8829 61.4993 48.8176 66.4797C42.2332 71.2526 35.6487 71.0896 29.0705 66.4797L19.3523 60.4988V33.1361H22.1378V10.1536C22.1316 9.4199 22.5855 8.81217 23.1824 8.71582ZM29.6736 33.1361C34.0508 34.07 38.428 36.9011 42.8052 40.1843H43.7192V25.1097L25.029 15.6009V33.1361H29.6736ZM47.0767 40.1843H50.8321C54.4632 40.4437 56.3658 44.8312 52.8342 47.7142C51.1741 49.1669 49.2031 49.7153 47.0767 49.8339V53.458C51.056 53.1912 54.3326 51.8794 56.4404 47.9514L57.6404 44.6089L65.7047 39.8434V15.4008L47.0767 25.1245V40.1843ZM43.7254 49.7449C43.3212 49.7079 42.9109 49.6708 42.5067 49.6264C39.8829 49.4707 39.771 53.6729 42.5067 53.6878C42.9047 53.7248 43.315 53.7026 43.7254 53.6581V52.5464V49.7449ZM45.3171 4.06892L26.7762 11.4358L45.4041 21.5078L64.0383 11.7174L45.3171 4.06892Z" fill="#00D4BB"></path></svg>
