<svg width="20" height="20" viewBox="0 0 28 28" fill="none" xmlns="http://www.w3.org/2000/svg"><path d="M12.8333 17.5H19.8333V19.8333H12.8333V17.5ZM10.5 8.16667H8.16667V10.5H10.5V8.16667ZM12.8333 15.1667H19.8333V12.8333H12.8333V15.1667ZM12.8333 10.5H19.8333V8.16667H12.8333V10.5ZM10.5 12.8333H8.16667V15.1667H10.5V12.8333ZM24.5 5.83333V22.1667C24.5 23.45 23.45 24.5 22.1667 24.5H5.83333C4.55 24.5 3.5 23.45 3.5 22.1667V5.83333C3.5 4.55 4.55 3.5 5.83333 3.5H22.1667C23.45 3.5 24.5 4.55 24.5 5.83333ZM22.1667 5.83333H5.83333V22.1667H22.1667V5.83333ZM10.5 17.5H8.16667V19.8333H10.5V17.5Z" fill="#00D4BB"></path></svg>
