<svg width="20" height="20" viewBox="0 0 50 50" fill="none" xmlns="http://www.w3.org/2000/svg"><path d="M41.6666 4.16669H8.33329C6.04163 4.16669 4.16663 6.04169 4.16663 8.33335V40.8125C4.16663 42.6667 6.41663 43.6042 7.72913 42.2917L12.5 37.5H41.6666C43.9583 37.5 45.8333 35.625 45.8333 33.3334V8.33335C45.8333 6.04169 43.9583 4.16669 41.6666 4.16669ZM28.2708 24.1042L25.9375 29.1875C25.8546 29.3694 25.7212 29.5236 25.5531 29.6317C25.385 29.7398 25.1894 29.7973 24.9895 29.7973C24.7897 29.7973 24.5941 29.7398 24.426 29.6317C24.2579 29.5236 24.1245 29.3694 24.0416 29.1875L21.7083 24.1042L16.625 21.7709C16.4431 21.688 16.2889 21.5546 16.1808 21.3865C16.0727 21.2184 16.0152 21.0228 16.0152 20.8229C16.0152 20.6231 16.0727 20.4275 16.1808 20.2594C16.2889 20.0913 16.4431 19.9579 16.625 19.875L21.7083 17.5417L24.0416 12.4584C24.1245 12.2765 24.2579 12.1223 24.426 12.0142C24.5941 11.9061 24.7897 11.8486 24.9895 11.8486C25.1894 11.8486 25.385 11.9061 25.5531 12.0142C25.7212 12.1223 25.8546 12.2765 25.9375 12.4584L28.2708 17.5417L33.3541 19.875C33.536 19.9579 33.6902 20.0913 33.7983 20.2594C33.9064 20.4275 33.9639 20.6231 33.9639 20.8229C33.9639 21.0228 33.9064 21.2184 33.7983 21.3865C33.6902 21.5546 33.536 21.688 33.3541 21.7709L28.2708 24.1042Z" fill="#00D4BB"></path></svg>
