<svg width="20" height="20" viewBox="0 0 82 74" fill="none" xmlns="http://www.w3.org/2000/svg"><path fill-rule="evenodd" clip-rule="evenodd" d="M65.1281 64.1128C64.081 62.0326 63.7298 61.2294 62.1858 59.5771C65.0883 60.6896 67.5534 60.8279 69.7468 62.2103C71.1451 63.0793 73.2192 63.7376 73.7825 64.7843C75.1741 67.3781 74.9687 70.2549 75.7108 73.0132H53.1802V70.9329V70.3404V70.1824V69.8599V69.6953V69.4649V69.2279V69.0765V68.6288V68.4182V68.2075L53.147 67.9244V67.7862L55.0224 69.4188L62.1394 64.0404L65.1612 64.1128H65.1281ZM19.4769 7.74604e-10H42.4317C43.1646 -1.22576e-05 43.89 0.14547 44.5655 0.427902C45.254 0.704016 45.8802 1.11355 46.4077 1.63261C46.925 2.14823 47.3368 2.75854 47.6204 3.4298C47.9033 4.10123 48.0497 4.82166 48.0511 5.54956V17.906C48.0511 18.6341 47.9047 19.3548 47.6204 20.0258C47.3368 20.6971 46.925 21.3074 46.4077 21.823C45.8834 22.3431 45.2622 22.7567 44.5787 23.0409C43.9019 23.318 43.177 23.4612 42.445 23.4622H38.4557L31.3718 28.6365L28.5157 23.4556H19.4769C18.7452 23.4567 18.0204 23.3158 17.3431 23.0409C16.6655 22.7592 16.0489 22.3501 15.5274 21.8361C15.0101 21.3205 14.5983 20.7102 14.3147 20.039C14.0304 19.3679 13.884 18.6472 13.884 17.9192V5.54956C13.8893 4.07947 14.4801 2.67123 15.5274 1.63261C16.0471 1.11644 16.6641 0.707068 17.3431 0.427902C18.0186 0.14547 18.744 -1.22576e-05 19.4769 7.74604e-10ZM38.4888 9.49942C38.9043 9.49942 39.3104 9.62181 39.6559 9.85111C40.0013 10.0804 40.2706 10.4063 40.4296 10.7877C40.5886 11.169 40.6302 11.5886 40.5491 11.9934C40.4681 12.3982 40.268 12.77 39.9742 13.0619C39.6804 13.3537 39.3061 13.5525 38.8986 13.633C38.4912 13.7135 38.0688 13.6722 37.6849 13.5143C37.3011 13.3563 36.973 13.0888 36.7422 12.7456C36.5114 12.4025 36.3882 11.999 36.3882 11.5863C36.3882 11.0328 36.6095 10.502 37.0034 10.1106C37.3974 9.71928 37.9317 9.49942 38.4888 9.49942ZM23.433 9.49942C23.8485 9.49942 24.2546 9.62181 24.6001 9.85111C24.9455 10.0804 25.2148 10.4063 25.3738 10.7877C25.5328 11.169 25.5744 11.5886 25.4933 11.9934C25.4123 12.3982 25.2122 12.77 24.9184 13.0619C24.6246 13.3537 24.2503 13.5525 23.8428 13.633C23.4354 13.7135 23.013 13.6722 22.6291 13.5143C22.2453 13.3563 21.9172 13.0888 21.6864 12.7456C21.4556 12.4025 21.3324 11.999 21.3324 11.5863C21.3324 11.0328 21.5537 10.502 21.9476 10.1106C22.3416 9.71928 22.8759 9.49942 23.433 9.49942ZM30.9609 9.49942C31.3764 9.49942 31.7825 9.62181 32.128 9.85111C32.4734 10.0804 32.7427 10.4063 32.9017 10.7877C33.0607 11.169 33.1023 11.5886 33.0212 11.9934C32.9402 12.3982 32.7401 12.77 32.4463 13.0619C32.1525 13.3537 31.7782 13.5525 31.3707 13.633C30.9633 13.7135 30.5409 13.6722 30.157 13.5143C29.7732 13.3563 29.4451 13.0888 29.2143 12.7456C28.9835 12.4025 28.8603 11.999 28.8603 11.5863C28.8603 11.0328 29.0816 10.502 29.4755 10.1106C29.8695 9.71928 30.4038 9.49942 30.9609 9.49942ZM41.7094 2.258H19.4769C18.5982 2.258 17.7554 2.60479 17.134 3.22208C16.5127 3.83936 16.1636 4.67658 16.1636 5.54956V17.906C16.1636 18.3383 16.2493 18.7663 16.4158 19.1657C16.5823 19.565 16.8264 19.9279 17.134 20.2335C17.4417 20.5392 17.807 20.7816 18.2089 20.947C18.6109 21.1125 19.0418 21.1976 19.4769 21.1976H29.5296C29.7535 21.2128 29.9622 21.3156 30.1101 21.4834C30.2579 21.6512 30.3327 21.8704 30.3181 22.0929L32.1007 25.3054L37.4021 21.4346C37.4805 21.357 37.5735 21.2956 37.6758 21.2538C37.7782 21.212 37.8878 21.1907 37.9985 21.191H42.4317C43.3104 21.191 44.1532 20.8442 44.7746 20.2269C45.396 19.6096 45.745 18.7724 45.745 17.8995V5.54956C45.745 4.67658 45.396 3.83936 44.7746 3.22208C44.1532 2.60479 43.3104 2.258 42.4317 2.258H41.7094ZM0.0209961 73C1.015 60.1893 3.44699 64.9884 14.4473 58.1485C17.4823 65.9759 32.061 66.5025 35.2616 58.1485C44.7577 64.1787 49.4957 59.6232 49.4361 73H0.0209961ZM17.8733 57.5363C17.9256 56.9471 18.0897 56.373 18.357 55.8445C17.5682 55.2505 16.917 54.4954 16.4471 53.63C15.9773 52.7646 15.6998 51.8091 15.6334 50.8281H15.4876C15.1422 50.825 14.8029 50.7368 14.5003 50.5714C14.0042 50.2609 13.6229 49.7989 13.4135 49.2548C12.9165 48.1093 12.5189 45.1074 13.778 44.2516L13.546 44.1068V43.771C13.493 43.172 13.4798 42.4544 13.4731 41.671C13.4002 38.8403 13.3406 36.918 11.0544 36.2071L10.0737 35.9108L10.7363 35.1143C12.428 32.9889 14.3478 31.053 16.4618 29.3409C18.3592 27.7307 20.6409 26.6314 23.0884 26.1481C24.2286 25.9639 25.3954 26.0287 26.5077 26.3379C27.6201 26.6471 28.6513 27.1934 29.5296 27.9387C30.1659 28.4512 30.7457 29.0294 31.2591 29.6635C36.196 30.1374 38.787 33.8964 38.5485 38.3531C38.481 40.6739 37.5344 42.8839 35.8978 44.5413C36.1883 44.55 36.4733 44.6219 36.7328 44.7519C37.6804 45.2588 37.7135 46.3648 37.4617 47.2864C37.2165 48.0566 36.8984 48.9519 36.6069 49.7024C36.2424 50.7162 35.7189 50.9071 34.6984 50.7952C34.6454 53.3034 33.4791 54.5344 31.9085 56.009L32.2266 57.273C31.2393 62.0523 20.7161 62.5724 17.8733 57.5429V57.5363ZM77.3808 9.82857H54.638C53.762 9.83715 52.9242 10.1867 52.3047 10.8021C51.6852 11.4176 51.3333 12.2498 51.3247 13.1201V27.7412C51.3333 28.6115 51.6852 29.4438 52.3047 30.0592C52.9242 30.6746 53.762 31.0242 54.638 31.0327H57.9514C58.062 31.0394 58.1701 31.0678 58.2697 31.1161C58.3692 31.1644 58.4582 31.2318 58.5315 31.3144C58.6047 31.397 58.6609 31.4931 58.6966 31.5973C58.7324 31.7015 58.7471 31.8116 58.7399 31.9215L59.164 34.9365L65.8371 31.2697C65.9155 31.1922 66.0086 31.1307 66.1109 31.089C66.2132 31.0472 66.3229 31.0258 66.4335 31.0262H78.1428C79.0189 31.0176 79.8567 30.668 80.4762 30.0526C81.0957 29.4372 81.4475 28.6049 81.4562 27.7346V13.1662C81.4475 12.2959 81.0957 11.4636 80.4762 10.8482C79.8567 10.2328 79.0189 9.88323 78.1428 9.87465L77.3808 9.82857ZM66.3805 17.7744C66.7642 17.7809 67.1375 17.8995 67.4539 18.1153C67.7702 18.3312 68.0156 18.6348 68.1595 18.9883C68.3033 19.3418 68.3392 19.7295 68.2627 20.1031C68.1862 20.4767 68.0008 20.8197 67.7294 21.0893C67.458 21.3589 67.1127 21.5432 66.7366 21.6192C66.3605 21.6952 65.9703 21.6595 65.6144 21.5166C65.2586 21.3737 64.953 21.1299 64.7357 20.8156C64.5184 20.5014 64.3991 20.1305 64.3925 19.7493C64.388 19.4887 64.4364 19.2299 64.5347 18.9883C64.633 18.7467 64.7793 18.5272 64.9648 18.3429C65.1503 18.1586 65.3712 18.0133 65.6144 17.9156C65.8577 17.818 66.1182 17.7699 66.3805 17.7744ZM73.4644 17.7744C73.8481 17.7809 74.2215 17.8995 74.5378 18.1153C74.8542 18.3312 75.0995 18.6348 75.2434 18.9883C75.3872 19.3418 75.4231 19.7295 75.3466 20.1031C75.2702 20.4767 75.0847 20.8197 74.8133 21.0893C74.5419 21.3589 74.1966 21.5432 73.8205 21.6192C73.4445 21.6952 73.0542 21.6595 72.6984 21.5166C72.3425 21.3737 72.0369 21.1299 71.8196 20.8156C71.6023 20.5014 71.483 20.1305 71.4764 19.7493C71.4719 19.4887 71.5203 19.2299 71.6186 18.9883C71.7169 18.7467 71.8632 18.5272 72.0487 18.3429C72.2342 18.1586 72.4551 18.0133 72.6984 17.9156C72.9416 17.818 73.2021 17.7699 73.4644 17.7744ZM59.29 17.7744C59.6737 17.7809 60.047 17.8995 60.3634 18.1153C60.6797 18.3312 60.9251 18.6348 61.0689 18.9883C61.2128 19.3418 61.2487 19.7295 61.1722 20.1031C61.0957 20.4767 60.9102 20.8197 60.6388 21.0893C60.3675 21.3589 60.0222 21.5432 59.6461 21.6192C59.27 21.6952 58.8797 21.6595 58.5239 21.5166C58.1681 21.3737 57.8625 21.1299 57.6452 20.8156C57.4279 20.5014 57.3085 20.1305 57.302 19.7493C57.2975 19.4887 57.3458 19.2299 57.4441 18.9883C57.5425 18.7467 57.6887 18.5272 57.8742 18.3429C58.0597 18.1586 58.2807 18.0133 58.5239 17.9156C58.7671 17.818 59.0277 17.7699 59.29 17.7744ZM48.0246 59.6232L48.1306 59.5837L48.071 59.6429H48.0379L48.0246 59.6232ZM50.2247 56.6739V58.4843L49.3301 60.3868L49.3831 60.4263L49.4891 60.5053L49.5421 60.5448L49.6216 60.6106L49.6747 60.6567L49.7277 60.6962L49.8072 60.762L49.8801 60.8213L49.9331 60.8674L49.9795 60.9134L50.0325 60.9595L50.0789 60.999L50.1319 61.0451L50.1783 61.0912L50.2247 61.1373L50.2909 61.2031L50.3373 61.2492L50.3837 61.2953L50.4301 61.3479L50.4699 61.4006L50.5162 61.4467L50.556 61.4928L50.6024 61.5454L50.6421 61.5981L50.715 61.6903L50.7548 61.7429L50.7946 61.7956L50.8409 61.8548L50.8807 61.9075L50.9205 61.9667L51.0066 62.0787L51.0464 62.1379L51.1193 62.2432L51.159 62.3025V62.3617L51.2253 62.4736V62.5395L51.2916 62.658V62.7238V62.7896L51.3313 62.8555V62.9213V62.9937L51.709 63.1978V63.2636L51.7687 63.3887V63.4611L51.8018 63.5335L51.8681 63.6849V63.7639L51.9277 63.9153L55.0489 66.3182L61.3972 61.3808L59.4092 58.2605V56.6147C61.3058 56.5441 63.1937 56.3239 65.0552 55.9564C66.3781 55.7065 67.6119 55.1163 68.6336 54.2448C67.9979 53.9291 67.4346 53.4868 66.9786 52.9455C66.5225 52.4041 66.1836 51.7752 65.9829 51.098C64.8497 47.8065 65.9232 45.3905 65.4196 41.8027C64.757 36.9905 61.4966 35.2854 58.3291 36.003C54.8633 32.7114 47.2294 34.3572 45.2878 39.9528C44.4197 42.7902 44.9962 44.2187 44.8968 47.0758C44.7577 50.9203 43.7438 53.1256 41.5835 53.9419C42.4559 54.9173 43.5886 55.6271 44.8504 55.9893C46.6201 56.4094 48.4318 56.6303 50.2512 56.6476L50.2247 56.6739Z" fill="#00D4BB"></path></svg>
