<svg width="20" height="20" viewBox="0 0 53 61" fill="none" xmlns="http://www.w3.org/2000/svg"><path fill-rule="evenodd" clip-rule="evenodd" d="M16.8309 6.06624C21.368 6.06624 25.0432 9.66528 25.0432 14.1082C25.0432 18.5512 21.368 22.1502 16.8309 22.1502C12.2938 22.1502 8.61857 18.5512 8.61857 14.1082C8.61857 9.66528 12.2938 6.06624 16.8309 6.06624ZM9.14578 28.5243C8.59322 28.5243 8.14205 28.0824 8.14205 27.5314C8.14205 26.9804 8.58815 26.5386 9.14578 26.5386H24.4197C24.9723 26.5386 25.4234 26.9804 25.4234 27.5314C25.4234 28.0824 24.9773 28.5243 24.4197 28.5243H9.14578ZM28.318 28.5243C27.7655 28.5243 27.3143 28.0824 27.3143 27.5314C27.3143 26.9804 27.7604 26.5386 28.318 26.5386H44.7934C45.346 26.5386 45.7971 26.9804 45.7971 27.5314C45.7971 28.0824 45.351 28.5243 44.7934 28.5243H28.318ZM1.21732 60.5681C0.867538 60.4093 0.619141 60.0667 0.619141 59.6597V0.992839C0.619141 0.446777 1.07031 0 1.63301 0H11.4675H51.8804C52.438 0 52.8942 0.441813 52.8942 0.992839V54.4721C52.8942 54.5267 52.8892 54.5763 52.8841 54.626C52.7421 56.5769 52.0933 58.0959 50.9273 59.1831C49.7614 60.2653 48.124 60.8709 45.9999 60.9901C45.9543 60.995 45.9137 61 45.8681 61H2.05377C1.70905 61 1.39982 60.8263 1.21732 60.5681ZM50.8716 54.4473V1.98071H11.4675H2.64181V59.0193H45.863H45.8833C47.5106 58.9299 48.7272 58.503 49.5332 57.7534C50.3291 57.0138 50.7702 55.9067 50.8716 54.4473ZM9.14578 44.7125C8.59322 44.7125 8.14205 44.2707 8.14205 43.7196C8.14205 43.1736 8.58815 42.7268 9.14578 42.7268H44.8847C45.4372 42.7268 45.8884 43.1686 45.8884 43.7196C45.8884 44.2657 45.4423 44.7125 44.8847 44.7125H9.14578ZM9.308 36.6208C8.75544 36.6208 8.30427 36.179 8.30427 35.628C8.30427 35.077 8.75037 34.6352 9.308 34.6352H44.7934C45.346 34.6352 45.7971 35.077 45.7971 35.628C45.7971 36.179 45.351 36.6208 44.7934 36.6208H9.308ZM29.9757 20.4326C29.4232 20.4326 28.972 19.9908 28.972 19.4398C28.972 18.8937 29.4181 18.4469 29.9757 18.4469H44.7934C45.346 18.4469 45.7971 18.8888 45.7971 19.4398C45.7971 19.9858 45.351 20.4326 44.7934 20.4326H29.9757ZM36.3428 52.8041C35.7903 52.8041 35.3391 52.3623 35.3391 51.8113C35.3391 51.2652 35.7852 50.8184 36.3428 50.8184H44.7985C45.351 50.8184 45.8022 51.2603 45.8022 51.8113C45.8022 52.3573 45.3561 52.8041 44.7985 52.8041H36.3428ZM36.3428 12.341C35.7903 12.341 35.3391 11.8992 35.3391 11.3481C35.3391 10.8021 35.7852 10.3553 36.3428 10.3553H44.7985C45.351 10.3553 45.8022 10.7971 45.8022 11.3481C45.8022 11.8942 45.3561 12.341 44.7985 12.341H36.3428ZM13.1759 14.9224C13.0745 14.833 13.0137 14.7039 13.0086 14.5699C13.0036 14.4408 13.0441 14.3118 13.1404 14.2026C13.1404 14.2026 13.1404 14.1976 13.1455 14.1976C13.2367 14.0983 13.3685 14.0387 13.5054 14.0338C13.6372 14.0288 13.7741 14.0685 13.8805 14.1678L15.6143 15.7067L19.7661 11.4474C19.8624 11.3481 19.9942 11.2935 20.1311 11.2886C20.2679 11.2836 20.3947 11.3283 20.5011 11.4325C20.6025 11.5269 20.6583 11.6559 20.6633 11.79C20.6684 11.924 20.6228 12.0481 20.5163 12.1573L16.0097 16.774L15.9995 16.7839C15.9083 16.8733 15.7765 16.9279 15.6497 16.9329C15.5179 16.9378 15.3861 16.8931 15.2797 16.7988L13.1759 14.9323V14.9224Z" fill="#00D4BB"></path></svg>
