<svg width="24" height="24" viewBox="0 0 50 50" fill="none" xmlns="http://www.w3.org/2000/svg"><path d="M25.0245 19.0723C23.5645 19.0723 22.1973 19.6387 21.1622 20.6738C20.1319 21.709 19.5606 23.0762 19.5606 24.5361C19.5606 25.9961 20.1319 27.3633 21.1622 28.3984C22.1973 29.4287 23.5645 30 25.0245 30C26.4844 30 27.8516 29.4287 28.8868 28.3984C29.917 27.3633 30.4883 25.9961 30.4883 24.5361C30.4883 23.0762 29.917 21.709 28.8868 20.6738C28.3812 20.1643 27.7794 19.7604 27.1163 19.4855C26.4533 19.2105 25.7422 19.0701 25.0245 19.0723ZM45.1563 30.5713L41.9629 27.8418C42.1143 26.9141 42.1924 25.9668 42.1924 25.0244C42.1924 24.082 42.1143 23.1299 41.9629 22.207L45.1563 19.4775C45.3975 19.271 45.5702 18.996 45.6513 18.689C45.7324 18.3819 45.7182 18.0575 45.6104 17.7588L45.5665 17.6318C44.6876 15.1743 43.3708 12.8963 41.6797 10.9082L41.5918 10.8057C41.3865 10.5642 41.1128 10.3907 40.8069 10.3078C40.5009 10.225 40.1771 10.2369 39.878 10.3418L35.9131 11.7529C34.4483 10.5518 32.8174 9.60449 31.0499 8.94531L30.2833 4.7998C30.2254 4.48751 30.0739 4.20021 29.8489 3.97606C29.6239 3.75192 29.336 3.60155 29.0235 3.54492L28.8917 3.52051C26.3526 3.06152 23.6768 3.06152 21.1377 3.52051L21.0059 3.54492C20.6934 3.60155 20.4055 3.75192 20.1805 3.97606C19.9555 4.20021 19.804 4.48751 19.7461 4.7998L18.9747 8.96484C17.2238 9.62928 15.5928 10.5742 14.1456 11.7627L10.1514 10.3418C9.85243 10.236 9.52833 10.2238 9.2222 10.3066C8.91607 10.3895 8.6424 10.5635 8.43755 10.8057L8.34966 10.9082C6.66164 12.8984 5.34513 15.1758 4.46294 17.6318L4.419 17.7588C4.19927 18.3691 4.37994 19.0527 4.8731 19.4775L8.10552 22.2363C7.95416 23.1543 7.88091 24.0918 7.88091 25.0195C7.88091 25.957 7.95416 26.8945 8.10552 27.8027L4.88287 30.5615C4.64163 30.768 4.46898 31.0431 4.38787 31.3501C4.30675 31.6571 4.32102 31.9816 4.42876 32.2803L4.47271 32.4072C5.3565 34.8633 6.66021 37.1338 8.35943 39.1309L8.44732 39.2334C8.65266 39.4748 8.92634 39.6484 9.23229 39.7312C9.53824 39.814 9.8621 39.8022 10.1612 39.6973L14.1553 38.2764C15.6104 39.4727 17.2315 40.4199 18.9844 41.0742L19.7559 45.2393C19.8138 45.5516 19.9652 45.8389 20.1903 46.063C20.4153 46.2871 20.7032 46.4375 21.0157 46.4941L21.1475 46.5186C23.7116 46.98 26.3374 46.98 28.9014 46.5186L29.0333 46.4941C29.3458 46.4375 29.6337 46.2871 29.8587 46.063C30.0837 45.8389 30.2352 45.5516 30.293 45.2393L31.0596 41.0938C32.8272 40.4297 34.4581 39.4873 35.9229 38.2861L39.8877 39.6973C40.1867 39.803 40.5108 39.8153 40.817 39.7324C41.1231 39.6496 41.3968 39.4755 41.6016 39.2334L41.6895 39.1309C43.3887 37.124 44.6924 34.8633 45.5762 32.4072L45.6202 32.2803C45.8301 31.6748 45.6495 30.9961 45.1563 30.5713ZM25.0245 33.1201C20.2833 33.1201 16.4405 29.2773 16.4405 24.5361C16.4405 19.7949 20.2833 15.9521 25.0245 15.9521C29.7657 15.9521 33.6084 19.7949 33.6084 24.5361C33.6084 29.2773 29.7657 33.1201 25.0245 33.1201Z" fill="#00D4BB"></path></svg>
