<svg width="24" height="24" viewBox="0 0 50 50" fill="none" xmlns="http://www.w3.org/2000/svg"><path d="M45.8334 10.4166H4.16671C3.61417 10.4166 3.08427 10.6361 2.69357 11.0268C2.30287 11.4175 2.08337 11.9474 2.08337 12.5V20.8333C2.087 22.1228 2.48937 23.3796 3.23533 24.4314C3.98129 25.4832 5.03431 26.2785 6.25004 26.7083V45.8333C6.25004 46.3858 6.46953 46.9158 6.86023 47.3065C7.25094 47.6972 7.78084 47.9166 8.33337 47.9166H41.6667C42.2192 47.9166 42.7491 47.6972 43.1398 47.3065C43.5305 46.9158 43.75 46.3858 43.75 45.8333V26.7083C44.9658 26.2785 46.0188 25.4832 46.7648 24.4314C47.5107 23.3796 47.9131 22.1228 47.9167 20.8333V12.5C47.9167 11.9474 47.6972 11.4175 47.3065 11.0268C46.9158 10.6361 46.3859 10.4166 45.8334 10.4166ZM31.25 14.5833H35.4167V20.8333C35.4167 21.3858 35.1972 21.9158 34.8065 22.3065C34.4158 22.6972 33.8859 22.9166 33.3334 22.9166C32.7808 22.9166 32.2509 22.6972 31.8602 22.3065C31.4695 21.9158 31.25 21.3858 31.25 20.8333V14.5833ZM22.9167 14.5833H27.0834V20.8333C27.0834 21.3858 26.8639 21.9158 26.4732 22.3065C26.0825 22.6972 25.5526 22.9166 25 22.9166C24.4475 22.9166 23.9176 22.6972 23.5269 22.3065C23.1362 21.9158 22.9167 21.3858 22.9167 20.8333V14.5833ZM14.5834 14.5833H18.75V20.8333C18.75 21.3858 18.5305 21.9158 18.1398 22.3065C17.7491 22.6972 17.2192 22.9166 16.6667 22.9166C16.1142 22.9166 15.5843 22.6972 15.1936 22.3065C14.8029 21.9158 14.5834 21.3858 14.5834 20.8333V14.5833ZM8.33337 22.9166C7.78084 22.9166 7.25094 22.6972 6.86023 22.3065C6.46953 21.9158 6.25004 21.3858 6.25004 20.8333V14.5833H10.4167V20.8333C10.4167 21.3858 10.1972 21.9158 9.80651 22.3065C9.41581 22.6972 8.88591 22.9166 8.33337 22.9166ZM29.1667 43.75H20.8334V39.5833C20.8334 38.4782 21.2724 37.4184 22.0538 36.637C22.8352 35.8556 23.895 35.4166 25 35.4166C26.1051 35.4166 27.1649 35.8556 27.9463 36.637C28.7277 37.4184 29.1667 38.4782 29.1667 39.5833V43.75ZM39.5834 43.75H33.3334V39.5833C33.3334 37.3732 32.4554 35.2536 30.8926 33.6908C29.3298 32.128 27.2102 31.25 25 31.25C22.7899 31.25 20.6703 32.128 19.1075 33.6908C17.5447 35.2536 16.6667 37.3732 16.6667 39.5833V43.75H10.4167V26.7083C11.1825 26.4241 11.8889 26.0002 12.5 25.4583C13.6459 26.4832 15.1293 27.0498 16.6667 27.0498C18.2041 27.0498 19.6875 26.4832 20.8334 25.4583C21.9793 26.4832 23.4627 27.0498 25 27.0498C26.5374 27.0498 28.0208 26.4832 29.1667 25.4583C30.3126 26.4832 31.796 27.0498 33.3334 27.0498C34.8707 27.0498 36.3542 26.4832 37.5 25.4583C38.1112 26.0002 38.8176 26.4241 39.5834 26.7083V43.75ZM43.75 20.8333C43.75 21.3858 43.5305 21.9158 43.1398 22.3065C42.7491 22.6972 42.2192 22.9166 41.6667 22.9166C41.1142 22.9166 40.5843 22.6972 40.1936 22.3065C39.8029 21.9158 39.5834 21.3858 39.5834 20.8333V14.5833H43.75V20.8333ZM8.95837 6.24998H41.6667C42.2192 6.24998 42.7491 6.03049 43.1398 5.63979C43.5305 5.24908 43.75 4.71918 43.75 4.16665C43.75 3.61411 43.5305 3.08421 43.1398 2.69351C42.7491 2.30281 42.2192 2.08331 41.6667 2.08331H8.95837C8.40584 2.08331 7.87594 2.30281 7.48523 2.69351C7.09453 3.08421 6.87504 3.61411 6.87504 4.16665C6.87504 4.71918 7.09453 5.24908 7.48523 5.63979C7.87594 6.03049 8.40584 6.24998 8.95837 6.24998Z" fill="#00D4BB"></path></svg>
