<svg width="20" height="20" viewBox="0 0 86 96" fill="none" xmlns="http://www.w3.org/2000/svg"><path fill-rule="evenodd" clip-rule="evenodd" d="M23.4225 0H61.1678C63.93 0.00687808 66.5773 1.18891 68.5305 3.28753C70.4837 5.38614 71.5839 8.2305 71.5903 11.1984V36.1668C71.5839 39.1347 70.4837 41.9791 68.5305 44.0777C66.5773 46.1763 63.93 47.3583 61.1678 47.3652H41.4316L25.61 61.9817C25.3481 62.2299 25.0232 62.3886 24.6769 62.4375C24.3306 62.4864 23.9786 62.4234 23.6659 62.2564C23.3531 62.0894 23.0937 61.8261 22.9209 61.5C22.748 61.1739 22.6695 60.7999 22.6954 60.4257L23.5376 47.3587H23.4225C20.6613 47.3518 18.0149 46.1707 16.0619 44.0735C14.1088 41.9763 13.008 39.1336 13 36.1668V11.1984C13.0064 8.2305 14.1065 5.38614 16.0598 3.28753C18.013 1.18891 20.6603 0.00687808 23.4225 0V0ZM44.8735 29.0702H38.0201V28.7707C37.9878 27.7362 38.121 26.7033 38.414 25.7172C38.6902 24.9283 39.1012 24.2018 39.6259 23.5752C40.7232 22.3635 41.8932 21.2304 43.1283 20.1831C44.1019 19.315 44.5887 18.5337 44.5887 17.8393C44.6023 17.5323 44.5553 17.2257 44.4509 16.9396C44.3464 16.6535 44.1869 16.3943 43.9827 16.1791C43.4803 15.7459 42.8435 15.5341 42.2012 15.5866C41.8087 15.5736 41.418 15.6485 41.0539 15.8065C40.6898 15.9646 40.3603 16.2023 40.0864 16.5046C39.5229 17.1036 39.1654 18.1713 39.0139 19.6753L32.0271 18.7182C32.1631 16.1998 33.155 13.8227 34.8146 12.0383C36.4305 10.3542 38.9331 9.51211 42.3224 9.51211C44.9462 9.51211 47.055 10.0981 48.6729 11.27C49.6865 11.9335 50.5221 12.8687 51.0979 13.9838C51.6737 15.099 51.9698 16.3558 51.9572 17.6309C51.9585 18.762 51.6669 19.8711 51.1149 20.8342C50.1706 22.2867 49.0001 23.5531 47.6549 24.5778C46.757 25.2574 45.9776 26.1015 45.3522 27.0714C45.0124 27.6794 44.8459 28.3811 44.8735 29.0897V29.0702ZM37.7838 31.4596H45.1159V37.1109H37.7838V31.4596ZM77.7105 18.2299C80.0392 18.7181 82.1382 20.0588 83.6498 22.0237C85.1614 23.9886 85.992 26.4559 86 29.0051V53.9605C85.992 56.8675 84.9137 59.6529 83.0006 61.7084C81.0875 63.7639 78.4951 64.9225 75.7896 64.9311H75.4139L76.2743 78.2389C76.294 78.5631 76.2243 78.8863 76.0741 79.1682C75.9238 79.4501 75.6996 79.6782 75.4294 79.824C75.1592 79.9698 74.8551 80.0269 74.5549 79.9882C74.2547 79.9495 73.9718 79.8166 73.7414 79.6061L57.841 64.5013H36.9294L47.2307 53.2379H69.0452C71.3414 53.231 73.5418 52.2479 75.1654 50.5034C76.7891 48.7588 77.7041 46.3947 77.7105 43.9276V18.9526C77.7105 18.7052 77.7105 18.4578 77.7105 18.2169V18.2299ZM61.1617 3.7762H23.4225C21.5924 3.78306 19.839 4.56724 18.5449 5.95769C17.2508 7.34813 16.521 9.232 16.5146 11.1984V36.1668C16.513 38.1389 17.2393 40.0311 18.5342 41.4286C19.8292 42.826 21.5871 43.6147 23.4225 43.6216H25.5616C26.0247 43.6567 26.4561 43.8873 26.7615 44.263C27.0669 44.6387 27.2216 45.1291 27.1916 45.6269L26.5068 56.1937L39.5592 44.1359C39.8811 43.7903 40.3161 43.594 40.7711 43.589H61.1617C62.9918 43.5822 64.7452 42.798 66.0393 41.4075C67.3334 40.0171 68.0633 38.1332 68.0696 36.1668V11.1984C68.0633 9.232 67.3334 7.34813 66.0393 5.95769C64.7452 4.56724 62.9918 3.78306 61.1617 3.7762Z" fill="#00D4BB"></path></svg>
