<svg width="20" height="20" viewBox="0 0 50 50" fill="none" xmlns="http://www.w3.org/2000/svg"><path d="M17.7084 35.4167H12.3209L12.9313 34.8063C13.3108 34.4133 13.5208 33.8871 13.516 33.3408C13.5113 32.7946 13.2922 32.2721 12.9059 31.8858C12.5196 31.4995 11.9971 31.2804 11.4509 31.2757C10.9046 31.2709 10.3784 31.4809 9.98546 31.8604L5.81879 36.0271C5.43025 36.4188 5.21225 36.9483 5.21225 37.5C5.21225 38.0518 5.43025 38.5812 5.81879 38.9729L9.98546 43.1396C10.3784 43.5191 10.9046 43.7291 11.4509 43.7243C11.9971 43.7196 12.5196 43.5005 12.9059 43.1142C13.2922 42.7279 13.5113 42.2054 13.516 41.6592C13.5208 41.1129 13.3108 40.5867 12.9313 40.1938L12.3209 39.5833H17.7084C18.2609 39.5833 18.7908 39.3639 19.1815 38.9732C19.5722 38.5824 19.7917 38.0525 19.7917 37.5C19.7917 36.9475 19.5722 36.4176 19.1815 36.0269C18.7908 35.6362 18.2609 35.4167 17.7084 35.4167ZM44.1813 36.0271L40.0146 31.8604C39.6217 31.4809 39.0954 31.2709 38.5492 31.2757C38.003 31.2804 37.4804 31.4995 37.0942 31.8858C36.7079 32.2721 36.4888 32.7946 36.4841 33.3408C36.4793 33.8871 36.6893 34.4133 37.0688 34.8063L37.6792 35.4167H32.2917C31.7392 35.4167 31.2093 35.6362 30.8186 36.0269C30.4279 36.4176 30.2084 36.9475 30.2084 37.5C30.2084 38.0525 30.4279 38.5824 30.8186 38.9732C31.2093 39.3639 31.7392 39.5833 32.2917 39.5833H37.6792L37.0688 40.1938C36.8698 40.3859 36.7111 40.6158 36.6019 40.87C36.4927 41.1242 36.4353 41.3976 36.4328 41.6742C36.4304 41.9508 36.4832 42.2251 36.5879 42.4812C36.6927 42.7372 36.8474 42.9698 37.043 43.1654C37.2386 43.361 37.4712 43.5157 37.7272 43.6205C37.9833 43.7252 38.2576 43.7779 38.5342 43.7755C38.8108 43.7731 39.0842 43.7157 39.3384 43.6065C39.5926 43.4973 39.8224 43.3386 40.0146 43.1396L44.1813 38.9729C44.5698 38.5812 44.7878 38.0518 44.7878 37.5C44.7878 36.9483 44.5698 36.4188 44.1813 36.0271ZM43 20.3583C44.1484 19.0482 44.7847 17.3672 44.7917 15.625C44.7917 13.6911 44.0235 11.8365 42.656 10.469C41.2886 9.10157 39.4339 8.33334 37.5 8.33334C35.5662 8.33334 33.7115 9.10157 32.3441 10.469C30.9766 11.8365 30.2084 13.6911 30.2084 15.625C30.2154 17.3672 30.8517 19.0482 32 20.3583C30.5 21.2882 29.2614 22.5848 28.4012 24.1259C27.541 25.667 27.0875 27.4018 27.0834 29.1667C27.0834 29.7192 27.3029 30.2491 27.6936 30.6398C28.0843 31.0305 28.6142 31.25 29.1667 31.25C29.7192 31.25 30.2491 31.0305 30.6398 30.6398C31.0305 30.2491 31.25 29.7192 31.25 29.1667C31.25 27.5091 31.9085 25.9194 33.0806 24.7473C34.2527 23.5752 35.8424 22.9167 37.5 22.9167C39.1576 22.9167 40.7474 23.5752 41.9195 24.7473C43.0916 25.9194 43.75 27.5091 43.75 29.1667C43.75 29.7192 43.9695 30.2491 44.3602 30.6398C44.7509 31.0305 45.2808 31.25 45.8334 31.25C46.3859 31.25 46.9158 31.0305 47.3065 30.6398C47.6972 30.2491 47.9167 29.7192 47.9167 29.1667C47.9126 27.4018 47.4591 25.667 46.5989 24.1259C45.7387 22.5848 44.5001 21.2882 43 20.3583ZM37.5 18.75C36.882 18.75 36.2778 18.5667 35.7639 18.2234C35.25 17.88 34.8494 17.3919 34.6129 16.8209C34.3764 16.2499 34.3145 15.6215 34.4351 15.0154C34.5557 14.4092 34.8533 13.8523 35.2903 13.4153C35.7274 12.9783 36.2842 12.6806 36.8904 12.5601C37.4966 12.4395 38.1249 12.5014 38.6959 12.7379C39.2669 12.9744 39.755 13.3749 40.0984 13.8889C40.4418 14.4028 40.625 15.0069 40.625 15.625C40.6239 16.4535 40.2943 17.2477 39.7085 17.8335C39.1227 18.4193 38.3285 18.7489 37.5 18.75ZM18 20.3583C19.1484 19.0482 19.7847 17.3672 19.7917 15.625C19.7917 13.6911 19.0235 11.8365 17.656 10.469C16.2886 9.10157 14.4339 8.33334 12.5 8.33334C10.5662 8.33334 8.71151 9.10157 7.34405 10.469C5.9766 11.8365 5.20837 13.6911 5.20837 15.625C5.21538 17.3672 5.85166 19.0482 7.00004 20.3583C5.49995 21.2882 4.26141 22.5848 3.4012 24.1259C2.54099 25.667 2.08746 27.4018 2.08337 29.1667C2.08337 29.7192 2.30287 30.2491 2.69357 30.6398C3.08427 31.0305 3.61417 31.25 4.16671 31.25C4.71924 31.25 5.24915 31.0305 5.63985 30.6398C6.03055 30.2491 6.25004 29.7192 6.25004 29.1667C6.25004 27.5091 6.90852 25.9194 8.08062 24.7473C9.25273 23.5752 10.8424 22.9167 12.5 22.9167C14.1576 22.9167 15.7474 23.5752 16.9195 24.7473C18.0916 25.9194 18.75 27.5091 18.75 29.1667C18.75 29.7192 18.9695 30.2491 19.3602 30.6398C19.7509 31.0305 20.2808 31.25 20.8334 31.25C21.3859 31.25 21.9158 31.0305 22.3065 30.6398C22.6972 30.2491 22.9167 29.7192 22.9167 29.1667C22.9126 27.4018 22.4591 25.667 21.5989 24.1259C20.7387 22.5848 19.5001 21.2882 18 20.3583ZM12.5 18.75C11.882 18.75 11.2778 18.5667 10.7639 18.2234C10.25 17.88 9.84944 17.3919 9.61292 16.8209C9.37639 16.2499 9.31451 15.6215 9.43509 15.0154C9.55567 14.4092 9.85329 13.8523 10.2903 13.4153C10.7274 12.9783 11.2842 12.6806 11.8904 12.5601C12.4966 12.4395 13.1249 12.5014 13.6959 12.7379C14.2669 12.9744 14.755 13.3749 15.0984 13.8889C15.4418 14.4028 15.625 15.0069 15.625 15.625C15.6239 16.4535 15.2943 17.2477 14.7085 17.8335C14.1227 18.4193 13.3285 18.7489 12.5 18.75Z" fill="#00D4BB"></path></svg>
