<svg width="24" height="24" viewBox="0 0 50 50" fill="none" xmlns="http://www.w3.org/2000/svg"><path fill-rule="evenodd" clip-rule="evenodd" d="M8.33333 22.9167H20.8333C21.3859 22.9167 21.9158 22.6972 22.3065 22.3065C22.6972 21.9158 22.9167 21.3859 22.9167 20.8333V8.33333C22.9167 7.7808 22.6972 7.25089 22.3065 6.86019C21.9158 6.46949 21.3859 6.25 20.8333 6.25H8.33333C7.7808 6.25 7.25089 6.46949 6.86019 6.86019C6.46949 7.25089 6.25 7.7808 6.25 8.33333V20.8333C6.25 21.3859 6.46949 21.9158 6.86019 22.3065C7.25089 22.6972 7.7808 22.9167 8.33333 22.9167ZM29.1667 22.9167H41.6667C42.2192 22.9167 42.7491 22.6972 43.1398 22.3065C43.5305 21.9158 43.75 21.3859 43.75 20.8333V8.33333C43.75 7.7808 43.5305 7.25089 43.1398 6.86019C42.7491 6.46949 42.2192 6.25 41.6667 6.25H29.1667C28.6141 6.25 28.0842 6.46949 27.6935 6.86019C27.3028 7.25089 27.0833 7.7808 27.0833 8.33333V20.8333C27.0833 21.3859 27.3028 21.9158 27.6935 22.3065C28.0842 22.6972 28.6141 22.9167 29.1667 22.9167ZM8.33333 43.75H20.8333C21.3859 43.75 21.9158 43.5305 22.3065 43.1398C22.6972 42.7491 22.9167 42.2192 22.9167 41.6667V29.1667C22.9167 28.6141 22.6972 28.0842 22.3065 27.6935C21.9158 27.3028 21.3859 27.0833 20.8333 27.0833H8.33333C7.7808 27.0833 7.25089 27.3028 6.86019 27.6935C6.46949 28.0842 6.25 28.6141 6.25 29.1667V41.6667C6.25 42.2192 6.46949 42.7491 6.86019 43.1398C7.25089 43.5305 7.7808 43.75 8.33333 43.75ZM35.4167 43.75C40.0125 43.75 43.75 40.0125 43.75 35.4167C43.75 30.8208 40.0125 27.0833 35.4167 27.0833C30.8208 27.0833 27.0833 30.8208 27.0833 35.4167C27.0833 40.0125 30.8208 43.75 35.4167 43.75Z" fill="#00D4BB"></path></svg>
