<svg width="24" height="24" viewBox="0 0 47 69" fill="none" xmlns="http://www.w3.org/2000/svg"><g clip-path="url(#clip0_18_174)"><path d="M1.12102 41.4236C0.73351 40.25 0.456714 39.374 0.269876 38.1892C0.0830388 37.0212 0 35.6062 0 33.377V23.4492V18.7998C0 17.5645 0.581272 16.447 1.52238 15.6328C2.31125 14.9478 3.34923 14.4817 4.49794 14.3525V2.60547C4.49794 1.88672 4.85777 1.23535 5.43905 0.763672C6.02032 0.291992 6.82303 0 7.70878 0H39.2013C40.0939 0 40.9036 0.297607 41.4918 0.774902C42.0799 1.2522 42.4467 1.90918 42.4467 2.63354V14.3582C43.5677 14.5042 44.578 14.9646 45.3461 15.6328C46.2872 16.447 46.8754 17.5757 46.8754 18.811V33.4219C47.09 35.5276 47.0208 37.2234 46.7924 38.6777C46.564 40.1658 46.1765 41.3843 45.7613 42.5354C43.72 48.1731 43.8445 53.1426 43.976 58.696C44.0106 60.2178 44.0521 61.7844 44.0521 63.1826C44.0521 63.1938 44.0521 63.2107 44.0521 63.2219C44.1144 65.0637 43.63 66.5125 42.5159 67.5232C41.388 68.5452 39.6857 69.0562 37.3467 68.9944H9.18271C9.16196 68.9944 9.14811 68.9944 9.12736 68.9944C6.90607 69.0449 5.36985 68.5227 4.36646 67.5513C3.36307 66.5855 2.96172 65.2322 2.96864 63.6094V53.0527C2.96864 50.6326 2.8856 48.8582 2.6088 47.1399C2.33893 45.4216 1.87529 43.7146 1.12102 41.4236ZM9.23115 38.1387H16.0749V44.2649H9.23115V38.1387ZM20.0816 57.4607H26.9254V63.5869H20.0816V57.4607ZM9.23115 57.4607H16.0749V63.5869H9.23115V57.4607ZM30.932 47.7969H37.7758V63.5588H30.932V47.7969ZM20.0816 47.7969H26.9254V53.9231H20.0816V47.7969ZM9.23115 47.7969H16.0749V53.9231H9.23115V47.7969ZM30.932 38.1387H37.7758V44.2649H30.932V38.1387ZM20.0816 38.1387H26.9254V44.2649H20.0816V38.1387ZM8.09629 20.3777H38.9037C39.4227 20.3777 39.9002 20.563 40.2323 20.855C40.2669 20.8831 40.3015 20.9167 40.3292 20.9504C40.5852 21.2144 40.7444 21.5513 40.7444 21.9106V32.9334C40.7444 33.3376 40.5437 33.7083 40.2323 33.989C39.8933 34.281 39.4227 34.4663 38.9037 34.4663H8.09629C7.5773 34.4663 7.10674 34.281 6.76767 33.989C6.44935 33.7139 6.24867 33.3376 6.24867 32.9334V21.905C6.24867 21.5007 6.44935 21.1245 6.76767 20.8494C7.11366 20.5574 7.5773 20.3777 8.09629 20.3777ZM38.3086 22.3599H8.69832V32.4785H38.3086V22.3599ZM32.226 8.8103C31.6378 8.8103 31.1603 8.42285 31.1603 7.94556C31.1603 7.46826 31.6378 7.08081 32.226 7.08081H36.4402C37.0284 7.08081 37.5059 7.46826 37.5059 7.94556C37.5059 8.42285 37.0284 8.8103 36.4402 8.8103H32.226ZM28.9044 5.25024C28.3163 5.25024 27.8388 4.86279 27.8388 4.3855C27.8388 3.9082 28.3163 3.52075 28.9044 3.52075H36.4402C37.0284 3.52075 37.5059 3.9082 37.5059 4.3855C37.5059 4.86279 37.0284 5.25024 36.4402 5.25024H28.9044ZM9.56331 6.16553C9.56331 5.13232 10.5944 4.29565 11.8676 4.29565C12.4489 4.29565 12.9817 4.46973 13.3831 4.76172C13.7914 4.47534 14.3173 4.29565 14.8986 4.29565C16.1718 4.29565 17.2029 5.13232 17.2029 6.16553C17.2029 7.19873 16.1718 8.0354 14.8986 8.0354C14.3173 8.0354 13.7845 7.86133 13.3831 7.57495C12.9817 7.86133 12.4558 8.0354 11.8746 8.0354C10.6013 8.0354 9.56331 7.19873 9.56331 6.16553ZM6.38707 10.7532H40.5576V2.63354C40.5576 2.33032 40.4053 2.06079 40.1562 1.85864C39.914 1.66211 39.5749 1.53296 39.2013 1.53296H7.70878C7.34894 1.53296 7.01678 1.65649 6.77459 1.84741C6.53931 2.04395 6.38707 2.31348 6.38707 2.60547V10.7532ZM40.5576 12.0671H6.38707V14.1111H40.5576V12.0671ZM2.27665 37.959C2.44273 39.0034 2.70568 39.8345 3.07244 40.9463C3.85439 43.2991 4.33186 45.0735 4.6225 46.9041C4.91313 48.7346 5.00309 50.5708 5.00309 53.0527V63.6094H4.99617V63.615C4.98925 64.8167 5.24529 65.7769 5.875 66.3889C6.47703 66.9729 7.5081 67.2874 9.072 67.2537C9.1066 67.248 9.14812 67.248 9.18271 67.248H37.3398V67.2537H37.3744C39.1182 67.2986 40.3223 66.9785 41.0489 66.3215C41.7685 65.6758 42.0799 64.6482 42.0315 63.2837C42.0246 63.25 42.0246 63.2163 42.0246 63.1826C42.0246 61.498 41.99 60.0942 41.9554 58.7297C41.817 53.0247 41.6924 47.9148 43.8238 42.0132C44.2182 40.9294 44.578 39.7952 44.7856 38.4531C44.9932 37.1111 45.0555 35.5444 44.8548 33.5791C44.841 33.5286 44.841 33.478 44.841 33.4219V18.811C44.841 18.053 44.4812 17.3623 43.9068 16.8625C43.3324 16.3684 42.5436 16.0596 41.6717 16.0596H40.004H20.3238H5.18301C4.31802 16.0596 3.52915 16.3684 2.9548 16.8625C2.38045 17.3567 2.02753 18.0417 2.02753 18.7998V23.4492V33.377C2.02753 35.55 2.10365 36.8921 2.27665 37.959Z" fill="#00D4BB"></path></g><defs><clipPath id="clip0_18_174"><rect width="47" height="69" fill="white"></rect></clipPath></defs></svg>
