<svg width="20" height="20" viewBox="0 0 56 57" fill="none" xmlns="http://www.w3.org/2000/svg"><g clip-path="url(#clip0_15_170)"><path d="M28.0001 -1.22444e-05C34.4805 -0.00189772 40.7611 2.28354 45.7715 6.46684C50.782 10.6501 54.2123 16.4724 55.4779 22.9416C56.7434 29.4107 55.766 36.1264 52.7121 41.9442C49.6582 47.762 44.7168 52.322 38.73 54.847C32.7432 57.372 26.0814 57.7059 19.8798 55.7917C13.6783 53.8775 8.32073 49.8337 4.72012 44.3494C1.11951 38.8651 -0.501335 32.2796 0.133786 25.7152C0.768907 19.1508 3.62069 13.0137 8.20318 8.3496C10.7999 5.69909 13.8857 3.59699 17.2831 2.1641C20.6805 0.731199 24.3225 -0.0042574 28.0001 -1.22444e-05ZM26.9428 16.6992C26.9369 16.1965 27.0315 15.6978 27.2208 15.2334C27.409 14.7737 27.6883 14.3584 28.0411 14.0134C28.3831 13.6613 28.7885 13.3794 29.2351 13.1831C30.1275 12.8121 31.1272 12.8121 32.0196 13.1831C32.4612 13.3787 32.8607 13.6609 33.1954 14.0134C33.5432 14.3598 33.8177 14.775 34.002 15.2334C34.1837 15.6998 34.275 16.1975 34.2709 16.6992C34.2742 17.1918 34.1828 17.6803 34.002 18.1372C33.8157 18.5961 33.5433 19.0137 33.1999 19.3664C32.8645 19.7237 32.4635 20.0105 32.0196 20.2107C31.5796 20.3984 31.1067 20.4931 30.6296 20.489C30.1421 20.4939 29.6586 20.3993 29.2077 20.2107C28.7595 20.0177 28.3548 19.7336 28.0183 19.3757C27.6723 19.026 27.3981 18.6097 27.2116 18.1511C27.0308 17.6894 26.9395 17.1963 26.9428 16.6992ZM28.351 38.8721L28.2735 39.1643L28.2188 39.3916L28.196 39.5493V39.6745C28.1938 39.7751 28.2076 39.8754 28.237 39.9714C28.258 40.0418 28.2937 40.1067 28.3419 40.1616C28.3856 40.21 28.4404 40.2467 28.5014 40.2683C28.5817 40.2975 28.6667 40.3117 28.752 40.3101C28.9973 40.2817 29.2288 40.18 29.4174 40.0178C29.7751 39.7341 30.1034 39.4139 30.3972 39.0622C30.8164 38.5755 31.2075 38.0644 31.5684 37.5315C31.974 36.947 32.3978 36.2744 32.8399 35.5229C32.8626 35.4846 32.8992 35.4569 32.9418 35.4456C32.9843 35.4343 33.0296 35.4404 33.0678 35.4626L34.5625 36.5945C34.5981 36.6198 34.6224 36.6583 34.6301 36.7018C34.6378 36.7453 34.6283 36.7901 34.6036 36.8264C33.9846 37.9388 33.2871 39.0038 32.5163 40.0132C31.8836 40.8491 31.1605 41.61 30.3607 42.2815C29.6866 42.8483 28.9303 43.3052 28.1185 43.636C27.3658 43.9404 26.5633 44.0978 25.7533 44.0998C25.1259 44.1106 24.5006 44.0246 23.8985 43.8447C23.393 43.6927 22.9263 43.4299 22.5313 43.0747C22.1555 42.7276 21.8651 42.2954 21.6836 41.813C21.4892 41.2757 21.3949 40.7062 21.4057 40.1338C21.4057 39.925 21.4057 39.707 21.4421 39.4751C21.4786 39.2432 21.5059 39.0112 21.556 38.7422C21.6016 38.4917 21.67 38.2087 21.752 37.8979C21.834 37.5871 21.9389 37.2346 22.0573 36.8496L24.655 28.5788L24.8692 27.8042C24.9239 27.5862 24.9695 27.396 25.0059 27.229C25.0361 27.0912 25.0589 26.9518 25.0743 26.8115C25.0912 26.6932 25.1004 26.5739 25.1016 26.4543C25.1034 26.2814 25.0725 26.1097 25.0105 25.9487C24.9495 25.807 24.8611 25.6793 24.7507 25.573C24.6266 25.459 24.4808 25.3722 24.3223 25.3179C24.1336 25.2576 23.9368 25.2279 23.739 25.2297H21.6244C21.5805 25.2297 21.5382 25.2123 21.5068 25.1811C21.4753 25.1499 21.457 25.1074 21.4558 25.0627V25.0024L22.0118 22.9475C22.0218 22.9112 22.0433 22.8792 22.0729 22.8566C22.1026 22.8339 22.1388 22.8219 22.1758 22.8223L32.9629 22.4744C33.0073 22.4743 33.0501 22.4916 33.0823 22.5227C33.1145 22.5537 33.1338 22.5962 33.1361 22.6413V22.697L28.351 38.8628V38.8721ZM44.2058 12.0049C40.4563 8.18512 35.5215 5.80696 30.2424 5.27565C24.9633 4.74435 19.6665 6.09277 15.2547 9.09114C10.8429 12.0895 7.5891 16.5523 6.04776 21.7189C4.50643 26.8856 4.77296 32.4364 6.80193 37.4254C8.8309 42.4145 12.4968 46.533 17.1748 49.0792C21.8528 51.6254 27.2536 52.4416 32.4566 51.3889C37.6597 50.3361 42.3431 47.4795 45.7087 43.3058C49.0744 39.1321 50.914 33.8996 50.9141 28.5C50.9179 25.4364 50.3272 22.4022 49.176 19.5715C48.0248 16.7408 46.3358 14.1694 44.2058 12.0049Z" fill="#00D4BB"></path></g><defs><clipPath id="clip0_15_170"><rect width="56" height="57" fill="white"></rect></clipPath></defs></svg>
