<svg width="24" height="24" viewBox="0 0 50 50" fill="none" xmlns="http://www.w3.org/2000/svg"><path fill-rule="evenodd" clip-rule="evenodd" d="M6.25 6.25H38.5417V11.4583H36.4583V8.33333H8.33333V32.2917H30.6115V34.375H6.25V6.25ZM37.5 19.7917C38.3288 19.7917 39.1237 19.4624 39.7097 18.8764C40.2958 18.2903 40.625 17.4955 40.625 16.6667C40.625 15.8379 40.2958 15.043 39.7097 14.457C39.1237 13.8709 38.3288 13.5417 37.5 13.5417C36.6712 13.5417 35.8763 13.8709 35.2903 14.457C34.7042 15.043 34.375 15.8379 34.375 16.6667C34.375 17.4955 34.7042 18.2903 35.2903 18.8764C35.8763 19.4624 36.6712 19.7917 37.5 19.7917ZM39.6156 21.8854C40.9688 21.8854 42.0396 22.4937 42.7406 23.4333C43.3958 24.3135 43.6729 25.4021 43.7354 26.4073C43.799 27.4271 43.6521 28.4958 43.3219 29.449C43.0094 30.3552 42.4812 31.2927 41.6667 31.9354V42.1875C41.6674 42.5801 41.5204 42.9586 41.2548 43.2476C40.9892 43.5367 40.6245 43.7152 40.2332 43.7477C39.842 43.7801 39.4529 43.6641 39.1433 43.4226C38.8337 43.1812 38.6264 42.8321 38.5625 42.4448L37.2187 34.375H36.9083L35.3896 42.475C35.3175 42.8573 35.1053 43.1989 34.7947 43.4331C34.484 43.6673 34.0971 43.7771 33.7098 43.7412C33.3224 43.7052 32.9624 43.526 32.7001 43.2387C32.4378 42.9514 32.2922 42.5765 32.2917 42.1875V27.326C32.0834 27.6434 31.8778 27.9625 31.675 28.2833L31.5937 28.4115L31.5729 28.4448L31.5677 28.4542C31.4273 28.6796 31.2318 28.8655 30.9996 28.9943C30.7674 29.1232 30.5062 29.1908 30.2406 29.1906H25.0323C24.6179 29.1906 24.2205 29.026 23.9274 28.733C23.6344 28.44 23.4698 28.0425 23.4698 27.6281C23.4698 27.2137 23.6344 26.8163 23.9274 26.5233C24.2205 26.2302 24.6179 26.0656 25.0323 26.0656H29.3833C29.6365 25.674 29.9698 25.1656 30.3198 24.6552C30.6844 24.1229 31.0865 23.5594 31.4448 23.1177C31.6187 22.9021 31.8135 22.6771 32.0094 22.4927C32.1052 22.4021 32.2385 22.2844 32.401 22.1802C32.6878 21.992 33.0226 21.89 33.3656 21.8865H39.6156V21.8854Z" fill="#00D4BB"></path></svg>
