<svg width="20" height="20" viewBox="0 0 48 50" fill="none" xmlns="http://www.w3.org/2000/svg"><path d="M0.730225 48.2802C0.730225 49.2299 1.43434 50 2.30263 50H46.4065C47.2748 50 47.9789 49.2299 47.9789 48.2802V1.7196C47.9789 0.770103 47.2748 0 46.4065 0H2.30263C1.43434 0 0.730225 0.770103 0.730225 1.7196V48.2802ZM3.87489 3.43937H44.8344V31.2123H23.3324V25.1359L29.3664 18.5897C29.6633 18.2676 29.8306 17.8297 29.8314 17.3724C29.8322 16.9151 29.6666 16.4763 29.3709 16.1527L29.3278 16.1055L38.2698 8.77058C38.9644 8.20075 39.1052 7.12267 38.5844 6.36284C38.0633 5.60317 37.0778 5.44919 36.3829 6.01885L27.0815 13.6485L26.7766 13.3152C26.2687 12.7599 25.4809 12.6516 24.8632 13.0519L21.726 15.0857C21.8925 14.4444 21.9835 13.7688 21.9835 13.0697C21.9835 8.99225 18.9505 5.67503 15.2225 5.67503C11.4943 5.67503 8.4615 8.99225 8.4615 13.0697C8.4615 14.7609 8.98442 16.3201 9.86099 17.5673C8.31562 19.0427 7.89723 21.2814 7.72732 22.1935C7.28586 24.5627 7.22572 27.6508 7.21745 31.2125H3.87489V3.43937ZM15.2227 17.0249C13.2285 17.0249 11.6063 15.2507 11.6063 13.0697C11.6063 10.8888 13.2285 9.11457 15.2227 9.11457C17.2167 9.11457 18.8389 10.8888 18.8389 13.0697C18.8389 15.2507 17.2167 17.0249 15.2227 17.0249ZM10.8087 22.88C11.0323 21.6795 11.3317 20.9337 11.6704 20.4641H19.1658C19.4477 20.4641 19.7248 20.3811 19.9674 20.2238L25.4161 16.6914L26.0308 17.3637L20.6528 23.1985C20.355 23.5214 20.1876 23.9609 20.1876 24.4194V31.2122H10.362C10.3699 27.8405 10.4246 24.9408 10.8087 22.88ZM44.8342 34.6517V46.5606H3.87489V34.6517H44.8342Z" fill="#00D4BB"></path><path d="M41.7749 38.6929H13.4754V38.1638C13.4754 37.2141 12.7714 36.444 11.903 36.444C11.0347 36.444 10.3307 37.2141 10.3307 38.1638V38.6929H6.93358C6.06529 38.6929 5.36133 39.463 5.36133 40.4127C5.36133 41.3624 6.06529 42.1325 6.93358 42.1325H10.3307V42.6616C10.3307 43.6112 11.0347 44.3813 11.903 44.3813C12.7714 44.3813 13.4754 43.6112 13.4754 42.6616V42.1325H41.7749C42.6434 42.1325 43.3474 41.3624 43.3474 40.4127C43.3474 39.463 42.6434 38.6929 41.7749 38.6929Z" fill="#00D4BB"></path></svg>
