<svg width="20" height="20" viewBox="0 0 69 67" fill="none" xmlns="http://www.w3.org/2000/svg"><g clip-path="url(#clip0_15_168)"><path fill-rule="evenodd" clip-rule="evenodd" d="M12.314 2.70217e-06C13.4648 3.23614e-06 14.5897 0.323121 15.5465 0.928479C16.5032 1.53384 17.2488 2.39424 17.689 3.40083C18.1291 4.40741 18.2439 5.51497 18.019 6.58337C17.7941 7.65177 17.2395 8.63302 16.4254 9.40297C15.6112 10.1729 14.5742 10.697 13.4454 10.9088C12.3166 11.1207 11.1467 11.0109 10.0839 10.5932C9.02102 10.1756 8.1129 9.46889 7.47439 8.56256C6.83588 7.65622 6.49568 6.59096 6.49682 5.50155C6.49682 4.77862 6.64733 4.06277 6.93974 3.39494C7.23215 2.7271 7.66073 2.12038 8.20099 1.60944C8.74124 1.0985 9.38256 0.693375 10.0883 0.417217C10.794 0.141059 11.5504 -0.000713782 12.314 2.70217e-06ZM56.254 46.984C57.2533 46.9829 58.2304 47.2624 59.0618 47.7872C59.8933 48.312 60.5416 49.0584 60.9248 49.9321C61.308 50.8058 61.4088 51.7674 61.2146 52.6953C61.0203 53.6233 60.5397 54.4758 59.8335 55.1451C59.1273 55.8144 58.2273 56.2704 57.2473 56.4553C56.2673 56.6403 55.2514 56.5459 54.3281 56.1841C53.4048 55.8224 52.6156 55.2095 52.0603 54.423C51.505 53.6365 51.2086 52.7118 51.2086 51.7658C51.2086 50.4985 51.74 49.2831 52.686 48.3865C53.632 47.4898 54.9153 46.9854 56.254 46.984ZM16.0923 46.984C17.0916 46.9829 18.0687 47.2624 18.9002 47.7872C19.7316 48.312 20.3799 49.0584 20.7631 49.9321C21.1463 50.8058 21.2471 51.7674 21.0529 52.6953C20.8586 53.6233 20.378 54.4758 19.6718 55.1451C18.9656 55.8144 18.0656 56.2704 17.0856 56.4553C16.1056 56.6403 15.0897 56.5459 14.1664 56.1841C13.2431 55.8224 12.4539 55.2095 11.8986 54.423C11.3433 53.6365 11.0469 52.7118 11.0469 51.7658C11.0469 50.4985 11.5783 49.2831 12.5243 48.3865C13.4704 47.4898 14.7537 46.9854 16.0923 46.984ZM12.9188 57.251C11.7499 57.3694 10.638 57.79 9.70492 58.4669C8.51434 59.3955 7.55965 60.5658 6.91151 61.891C6.20041 63.3173 5.80824 64.8673 5.75959 66.4438L5.6732 66.9891H10.0044L10.0735 66.2639C10.0884 65.5374 10.2466 64.8198 10.5401 64.1484C10.6802 63.8147 10.8746 63.5038 11.116 63.2269L11.1967 66.9891H20.9419L20.988 64.4864V64.65L21.0168 63.2269C21.2582 63.5038 21.4525 63.8147 21.5927 64.1484C21.8862 64.8198 22.0444 65.5374 22.0593 66.2639L22.1284 66.9891H22.4624C22.4538 66.8747 22.4538 66.7599 22.4624 66.6456L22.5431 66.1003C22.6072 65.1835 22.742 64.2723 22.9462 63.3741C23.2004 62.3872 23.5714 61.4306 24.0521 60.5225L24.2133 60.2117C23.6745 59.3905 22.9444 58.6968 22.0789 58.1836C21.2134 57.6705 20.2355 57.3515 19.2198 57.251C17.4919 57.1201 14.6121 57.251 12.9188 57.251ZM36.176 45.5173C37.2482 45.5173 38.2963 45.8183 39.1877 46.3823C40.0791 46.9463 40.7738 47.748 41.1838 48.6858C41.5939 49.6237 41.7008 50.6556 41.4913 51.651C41.2817 52.6464 40.7649 53.5606 40.0064 54.278C39.2478 54.9953 38.2816 55.4835 37.2298 55.6809C36.1781 55.8782 35.0882 55.7759 34.098 55.3867C33.1077 54.9975 32.2617 54.339 31.6668 53.4946C31.072 52.6501 30.7551 51.6576 30.7563 50.6426C30.7563 49.969 30.8965 49.3021 31.1689 48.6799C31.4414 48.0578 31.8407 47.4925 32.344 47.0165C32.8474 46.5405 33.4449 46.1631 34.1024 45.9058C34.7599 45.6486 35.4646 45.5165 36.176 45.5173ZM32.7664 56.5149C31.5097 56.6437 30.3144 57.0963 29.3106 57.8235C28.0354 58.8271 27.014 60.0884 26.3214 61.5148C25.5558 63.0523 25.1342 64.723 25.083 66.422L24.9909 67.0164H29.6446L29.7195 66.2366C29.7376 65.4578 29.9075 64.6888 30.2206 63.9684C30.3743 63.6089 30.5861 63.2741 30.8484 62.9761L30.9348 67.0164H41.377L41.4288 64.3337V64.5082L41.4633 62.9761C41.7216 63.2768 41.933 63.6109 42.0911 63.9684C42.4016 64.6896 42.5713 65.4581 42.5922 66.2366L42.6671 67.0164H47.3151L47.2287 66.4057C47.1802 64.7063 46.7585 63.0351 45.9904 61.4985C44.4756 58.4669 42.5346 56.8638 39.5339 56.5312C37.6966 56.3895 34.6152 56.5312 32.7721 56.4985L32.7664 56.5149ZM53.0805 57.251C51.9095 57.3681 50.7954 57.7889 49.8608 58.4669C49.2028 58.9787 48.6214 59.573 48.133 60.2335L48.277 60.517C48.7513 61.4396 49.1108 62.4112 49.3482 63.4123C49.5533 64.3102 49.6862 65.2215 49.7457 66.1385L49.809 66.5311C49.8394 66.6857 49.8548 66.8427 49.8551 67H50.1891L50.2583 66.2748C50.278 65.5483 50.438 64.8312 50.7305 64.1593C50.8706 63.8255 51.0649 63.5146 51.3065 63.2378L51.3871 67H61.1093L61.1554 64.4973V64.6609L61.19 63.2378C61.4296 63.5159 61.6237 63.8266 61.7659 64.1593C62.0594 64.8307 62.2176 65.5483 62.2325 66.2748L62.3016 67H66.6386L66.5522 66.4547C66.5067 64.8778 66.1144 63.3272 65.4002 61.9019C63.9891 59.0775 62.1633 57.5836 59.3872 57.2728C57.6593 57.1419 54.7795 57.2728 53.092 57.2728L53.0805 57.251ZM29.5755 20.2505L36.0896 13.7784C36.2737 13.5948 36.5273 13.4878 36.7946 13.4812C37.062 13.4745 37.3211 13.5687 37.5151 13.743C37.7091 13.9172 37.8221 14.1573 37.8291 14.4104C37.8361 14.6634 37.7366 14.9088 37.5526 15.0924L31.4128 21.1883C31.7462 21.5698 31.9575 22.0335 32.0221 22.5248C32.0867 23.0161 32.0018 23.5147 31.7774 23.9619C31.553 24.4091 31.1984 24.7864 30.7553 25.0494C30.3122 25.3124 29.799 25.4503 29.276 25.4467V33.0256H61.3167V8.54403H29.276V20.1742L29.5755 20.2287V20.2505ZM43.7211 39.4323V35.0049H22.6755C22.5317 35.015 22.3873 34.9969 22.2512 34.9518C22.1151 34.9066 21.9903 34.8354 21.8846 34.7425C21.779 34.6496 21.6947 34.5371 21.637 34.4119C21.5794 34.2868 21.5496 34.1518 21.5496 34.0153C21.5496 33.8787 21.5794 33.7437 21.637 33.6186C21.6947 33.4934 21.779 33.3809 21.8846 33.288C21.9903 33.1952 22.1151 33.1239 22.2512 33.0788C22.3873 33.0336 22.5317 33.0155 22.6755 33.0256H27.1853V25.1086L21.9671 24.1599C21.2713 24.0391 20.652 23.6678 20.2392 23.1239L17.9987 20.2287V20.305L17.8202 29.9559L20.0607 42.104L20.6366 46.1388C20.6421 46.2023 20.6421 46.2662 20.6366 46.3297C19.7946 45.6972 18.8152 45.249 17.7687 45.0171C16.7221 44.7852 15.6343 44.7754 14.5833 44.9884L12.3083 32.6603L9.79131 46.4278C9.21535 49.4049 4.10659 49.4267 4.06627 45.8171L6.91151 30.0595L6.68113 20.4849L6.64081 18.8492C6.36125 19.1787 6.136 19.5464 5.9727 19.9397C5.63751 20.7067 5.454 21.5254 5.43129 22.3551L4.93597 28.4892V28.5873V28.6309V28.6637V28.7509V28.9308V28.9799V29.0072V29.0617C3.96835 30.3267 1.5666 30.6974 0.668104 29.0617V29.0126V28.9744V28.9417V28.9036V28.8545V28.8054V28.7673V28.7127V28.8981V28.8381V28.8V28.7509V28.7073V28.6255V28.5492V28.5055C0.662746 26.5163 0.816777 24.5295 1.12887 22.5623C0.852411 17.4479 3.59974 12.2735 9.47453 11.8591C11.2024 11.7392 12.9649 11.9028 14.6582 11.9028C15.7976 11.8886 16.9301 12.0735 17.9987 12.448C18.6352 12.5887 19.1971 12.9408 19.5826 13.4403L24.0175 19.2363L27.1795 19.8143V8.54403H22.6755C22.5317 8.55414 22.3873 8.53605 22.2512 8.4909C22.1151 8.44576 21.9903 8.37451 21.8846 8.28163C21.779 8.18874 21.6947 8.07622 21.637 7.95109C21.5794 7.82596 21.5496 7.69091 21.5496 7.5544C21.5496 7.41789 21.5794 7.28285 21.637 7.15772C21.6947 7.03259 21.779 6.92007 21.8846 6.82718C21.9903 6.7343 22.1151 6.66305 22.2512 6.6179C22.3873 6.57275 22.5317 6.55467 22.6755 6.56478H43.5541V3.68587C43.5434 3.54974 43.5625 3.41298 43.6102 3.28415C43.6579 3.15532 43.7332 3.0372 43.8313 2.93716C43.9294 2.83712 44.0482 2.75732 44.1804 2.70275C44.3126 2.64818 44.4552 2.62002 44.5994 2.62002C44.7436 2.62002 44.8863 2.64818 45.0185 2.70275C45.1507 2.75732 45.2695 2.83712 45.3676 2.93716C45.4657 3.0372 45.541 3.15532 45.5887 3.28415C45.6364 3.41298 45.6555 3.54974 45.6448 3.68587V6.54297H67.8423C67.9861 6.53286 68.1306 6.55094 68.2667 6.59609C68.4027 6.64124 68.5275 6.71249 68.6332 6.80537C68.7389 6.89826 68.8232 7.01078 68.8808 7.13591C68.9385 7.26104 68.9682 7.39608 68.9682 7.53259C68.9682 7.66911 68.9385 7.80415 68.8808 7.92928C68.8232 8.05441 68.7389 8.16693 68.6332 8.25982C68.5275 8.3527 68.4027 8.42395 68.2667 8.4691C68.1306 8.51425 67.9861 8.53233 67.8423 8.52222H63.3901V33.0038H67.9633C68.1071 32.9937 68.2515 33.0118 68.3876 33.0569C68.5237 33.1021 68.6485 33.1733 68.7542 33.2662C68.8598 33.3591 68.9441 33.4716 69.0018 33.5968C69.0594 33.7219 69.0892 33.8569 69.0892 33.9934C69.0892 34.13 69.0594 34.265 69.0018 34.3901C68.9441 34.5153 68.8598 34.6278 68.7542 34.7207C68.6485 34.8136 68.5237 34.8848 68.3876 34.9299C68.2515 34.9751 68.1071 34.9932 67.9633 34.9831H45.7888V39.5141C45.8464 39.5468 45.881 39.585 45.9386 39.6177L52.4642 45.5063C52.5406 45.5721 52.6048 45.6495 52.6543 45.7353C52.1512 46.0169 51.6836 46.3516 51.2604 46.7332L51.1049 46.864L51.0531 46.9185L45.7888 42.224V46.4987C45.7692 46.7485 45.6506 46.982 45.4567 47.1524C45.2628 47.3228 45.008 47.4175 44.7434 47.4175C44.4789 47.4175 44.2241 47.3228 44.0302 47.1524C43.8363 46.982 43.7177 46.7485 43.6981 46.4987V42.0331L40.8931 44.5849C40.3039 44.181 39.6585 43.8562 38.9752 43.6198L43.7211 39.4377V39.4323Z" fill="#00D4BB"></path></g><defs><clipPath id="clip0_15_168"><rect width="69" height="67" fill="white"></rect></clipPath></defs></svg>
