<svg width="20" height="20" viewBox="0 0 63 50" fill="none" xmlns="http://www.w3.org/2000/svg"><g clip-path="url(#clip0_11_66)"><path d="M0 21.8749V48.4374C0 49.3007 0.699219 49.9999 1.5625 49.9999H9.375V18.7499H3.125C1.39941 18.7499 0 20.1493 0 21.8749ZM35.1562 17.1874H32.8125V13.2812C32.8125 12.8495 32.4629 12.4999 32.0312 12.4999H30.4688C30.0371 12.4999 29.6875 12.8495 29.6875 13.2812V19.5312C29.6875 19.9628 30.0371 20.3124 30.4688 20.3124H35.1562C35.5879 20.3124 35.9375 19.9628 35.9375 19.5312V17.9687C35.9375 17.537 35.5879 17.1874 35.1562 17.1874ZM48.6084 10.9413L32.9834 0.524331C32.47 0.18237 31.8669 -9.15527e-05 31.25 -9.15527e-05C30.6331 -9.15527e-05 30.03 0.18237 29.5166 0.524331L13.8916 10.9413C13.4636 11.2267 13.1127 11.6132 12.8699 12.0667C12.6272 12.5202 12.5001 13.0266 12.5 13.5409V49.9999H25V35.9374C25 35.0741 25.6992 34.3749 26.5625 34.3749H35.9375C36.8008 34.3749 37.5 35.0741 37.5 35.9374V49.9999H50V13.5419C50 12.497 49.4775 11.5204 48.6084 10.9413ZM31.25 24.9999C26.9355 24.9999 23.4375 21.5019 23.4375 17.1874C23.4375 12.873 26.9355 9.37492 31.25 9.37492C35.5645 9.37492 39.0625 12.873 39.0625 17.1874C39.0625 21.5019 35.5645 24.9999 31.25 24.9999ZM59.375 18.7499H53.125V49.9999H60.9375C61.8008 49.9999 62.5 49.3007 62.5 48.4374V21.8749C62.5 20.1493 61.1006 18.7499 59.375 18.7499Z" fill="#00D4BB"></path></g><defs><clipPath id="clip0_11_66"><rect width="62.5" height="50" fill="white"></rect></clipPath></defs></svg>
