<svg width="20" height="20" viewBox="0 0 56 57" fill="none" xmlns="http://www.w3.org/2000/svg"><g clip-path="url(#clip0_12_141)"><path d="M27.9999 1.82732e-05C34.4804 -0.0018672 40.7609 2.28357 45.7714 6.46687C50.7818 10.6502 54.2121 16.4725 55.4777 22.9416C56.7433 29.4108 55.7659 36.1264 52.712 41.9442C49.6581 47.7621 44.7167 52.322 38.7299 54.847C32.7431 57.3721 26.0813 57.7059 19.8797 55.7917C13.6782 53.8775 8.3206 49.8337 4.72 44.3494C1.11939 38.8651 -0.501457 32.2796 0.133664 25.7152C0.768785 19.1508 3.62057 13.0137 8.20306 8.34963C10.7998 5.69912 13.8856 3.59703 17.2829 2.16413C20.6803 0.731229 24.3224 -0.00422688 27.9999 1.82732e-05ZM26.9426 16.6992C26.9368 16.1965 27.0314 15.6978 27.2206 15.2334C27.4089 14.7738 27.6881 14.3585 28.0409 14.0134C28.383 13.6614 28.7884 13.3795 29.235 13.1831C30.1273 12.8122 31.1271 12.8122 32.0195 13.1831C32.4611 13.3788 32.8606 13.6609 33.1952 14.0134C33.543 14.3599 33.8175 14.775 34.0019 15.2334C34.1836 15.6998 34.2749 16.1975 34.2708 16.6992C34.274 17.1918 34.1827 17.6803 34.0019 18.1372C33.8156 18.5962 33.5432 19.0137 33.1998 19.3665C32.8643 19.7237 32.4633 20.0105 32.0195 20.2107C31.5795 20.3985 31.1066 20.4931 30.6295 20.489C30.142 20.494 29.6585 20.3993 29.2076 20.2107C28.7594 20.0177 28.3546 19.7336 28.0182 19.3758C27.6722 19.026 27.398 18.6097 27.2115 18.1511C27.0306 17.6894 26.9393 17.1963 26.9426 16.6992ZM28.3508 38.8721L28.2734 39.1643L28.2187 39.3916L28.1959 39.5493V39.6746C28.1937 39.7751 28.2075 39.8754 28.2369 39.9715C28.2578 40.0419 28.2936 40.1068 28.3417 40.1616C28.3854 40.21 28.4402 40.2467 28.5012 40.2683C28.5816 40.2975 28.6665 40.3117 28.7519 40.3101C28.9972 40.2818 29.2287 40.1801 29.4172 40.0178C29.775 39.7341 30.1033 39.414 30.3971 39.0623C30.8163 38.5756 31.2074 38.0644 31.5683 37.5315C31.9739 36.947 32.3977 36.2744 32.8398 35.523C32.8625 35.4847 32.8991 35.4569 32.9417 35.4456C32.9842 35.4344 33.0294 35.4405 33.0676 35.4627L34.5624 36.5945C34.598 36.6198 34.6223 36.6584 34.63 36.7018C34.6377 36.7453 34.6281 36.7901 34.6034 36.8264C33.9845 37.9388 33.2869 39.0039 32.5162 40.0132C31.8835 40.8492 31.1604 41.61 30.3606 42.2815C29.6865 42.8483 28.9301 43.3052 28.1184 43.636C27.3656 43.9405 26.5632 44.0978 25.7532 44.0999C25.1258 44.1107 24.5004 44.0247 23.8984 43.8447C23.3929 43.6928 22.9262 43.4299 22.5312 43.0747C22.1553 42.7276 21.865 42.2954 21.6835 41.813C21.489 41.2758 21.3948 40.7063 21.4055 40.1338C21.4055 39.9251 21.4055 39.7071 21.442 39.4751C21.4784 39.2432 21.5058 39.0112 21.5559 38.7422C21.6015 38.4917 21.6699 38.2088 21.7519 37.898C21.8339 37.5872 21.9387 37.2346 22.0572 36.8496L24.6549 28.5789L24.8691 27.8042C24.9238 27.5862 24.9693 27.396 25.0058 27.229C25.036 27.0912 25.0588 26.9519 25.0742 26.8115C25.0911 26.6932 25.1003 26.5739 25.1015 26.4544C25.1033 26.2814 25.0724 26.1098 25.0103 25.9487C24.9494 25.8071 24.861 25.6793 24.7506 25.573C24.6264 25.459 24.4806 25.3722 24.3222 25.3179C24.1335 25.2576 23.9366 25.2279 23.7389 25.2298H21.6243C21.5803 25.2298 21.5381 25.2123 21.5066 25.1811C21.4751 25.1499 21.4569 25.1075 21.4557 25.0628V25.0025L22.0117 22.9475C22.0217 22.9112 22.0432 22.8792 22.0728 22.8566C22.1025 22.834 22.1386 22.8219 22.1757 22.8223L32.9628 22.4744C33.0072 22.4743 33.0499 22.4916 33.0822 22.5227C33.1144 22.5538 33.1337 22.5963 33.136 22.6414V22.697L28.3508 38.8628V38.8721ZM44.2057 12.0049C40.4562 8.18515 35.5214 5.80699 30.2423 5.27568C24.9632 4.74438 19.6664 6.0928 15.2546 9.09117C10.8428 12.0895 7.58897 16.5523 6.04764 21.719C4.50631 26.8856 4.77284 32.4364 6.80181 37.4255C8.83078 42.4145 12.4966 46.533 17.1747 49.0792C21.8527 51.6254 27.2534 52.4417 32.4565 51.3889C37.6595 50.3361 42.343 47.4795 45.7086 43.3058C49.0743 39.1321 50.9139 33.8996 50.914 28.5C50.9178 25.4364 50.3271 22.4022 49.1759 19.5715C48.0247 16.7409 46.3357 14.1695 44.2057 12.0049Z" fill="#00D4BB"></path></g><defs><clipPath id="clip0_12_141"><rect width="56" height="57" fill="white"></rect></clipPath></defs></svg>
