<svg width="24" height="24" viewBox="0 0 51 50" fill="none" xmlns="http://www.w3.org/2000/svg"><path d="M25.3278 0C11.4583 0.015 0.222168 11.203 0.222168 25C0.229246 28.916 1.16104 32.7757 2.94247 36.2678C4.7239 39.76 7.30512 42.787 10.4781 45.105C10.3449 44.0895 10.3711 43.041 10.537 42.004C8.87861 40.572 7.43763 38.9086 6.25894 37.0655H12.5144C13.1085 36.143 13.7207 35.2305 14.7888 34.5655C14.163 32.0155 13.7805 29.2075 13.7102 26.25H14.3867C14.5874 25.3746 14.9142 24.5325 15.3568 23.75H13.7267C13.8333 20.7825 14.251 17.973 14.9145 15.435H24.0978V19.879C24.9866 20.0142 25.8403 20.3206 26.6111 20.781V15.435H36.2593C36.39 15.9335 36.5081 16.445 36.6187 16.9635C37.4645 16.8346 38.3234 16.815 39.1742 16.905C39.0768 16.413 38.9697 15.9229 38.853 15.435H45.8347C46.88 17.6489 47.5533 20.0183 47.8277 22.449C48.1193 24.9735 48.1248 27.9365 47.2014 30.8345C46.9019 31.9417 46.5178 33.0245 46.0524 34.0735C46.6194 34.667 47.306 35.228 47.9961 35.8005C49.628 32.431 50.4792 28.7402 50.4867 25C50.4867 11.193 39.2345 0 25.3544 0H25.3278ZM26.6111 2.841C29.259 3.289 31.7893 5.459 33.7828 9.0595C34.4252 10.22 34.9992 11.523 35.4958 12.9345H26.6111V2.841ZM24.0978 2.9395V12.9345H15.6785C16.1751 11.523 16.7492 10.22 17.3915 9.0595C19.2674 5.6705 21.6203 3.551 24.0978 2.94V2.9395ZM18.3074 3.616C17.1392 4.792 16.0907 6.226 15.1894 7.8535C14.345 9.3785 13.6187 11.087 13.022 12.9345H6.25894C9.04108 8.5815 13.2834 5.2495 18.3074 3.616V3.616ZM33.0902 3.8475C37.814 5.554 41.796 8.7815 44.4499 12.9345H38.1493C37.5542 11.087 36.8288 9.3785 35.9844 7.8535C35.142 6.331 34.1683 4.979 33.0907 3.8475H33.0902ZM4.87516 15.435H12.3183C11.6925 18.016 11.309 20.815 11.211 23.7505H2.77159C2.9277 20.87 3.64181 18.0466 4.87465 15.4355L4.87516 15.435ZM2.77159 26.25H11.1969C11.2618 29.178 11.6091 31.977 12.1992 34.565H4.87465C3.64181 31.9539 2.9277 29.1305 2.77159 26.25V26.25Z" fill="#00D4BB"></path><path d="M38.4232 18.8845C34.2588 18.8845 30.8836 22.2425 30.8836 26.3845C30.8836 30.5265 34.2588 33.8845 38.4232 33.8845C42.5866 33.8845 45.9629 30.5265 45.9629 26.3845C45.9629 22.2425 42.5866 18.8845 38.4232 18.8845V18.8845ZM38.4232 34.996C30.0944 34.996 26.3597 38.7115 26.3597 46.996V47.996C26.3974 49.966 27.273 50.024 29.1243 49.996H47.7222C50.0821 49.994 50.5028 49.9985 50.4867 47.996V46.996C50.4867 38.7115 46.7511 34.996 38.4232 34.996Z" fill="#00D4BB"></path><path d="M22.3386 21.695C18.9272 21.695 16.1606 24.447 16.1606 27.841C16.1606 31.2345 18.9272 33.9855 22.3386 33.9855C25.7501 33.9855 28.5161 31.2345 28.5161 27.8405C28.5161 24.447 25.7501 21.6955 22.3386 21.6955V21.695ZM22.3386 34.8955C15.5152 34.8955 12.4546 37.9405 12.4546 44.7275V45.547C12.4858 47.161 13.203 47.2085 14.7195 47.1855H24.3316C24.0863 43.1415 25.2871 38.8465 28.2779 36.116C26.7639 35.293 24.7971 34.8955 22.3386 34.8955Z" fill="#00D4BB"></path></svg>
