<svg width="20" height="20" viewBox="0 0 50 50" fill="none" xmlns="http://www.w3.org/2000/svg"><path d="M12.4999 27.3437C12.5026 27.5497 12.4639 27.754 12.3863 27.9448C12.3088 28.1355 12.1938 28.3088 12.0481 28.4544C11.9025 28.6001 11.7292 28.7151 11.5385 28.7926C11.3477 28.8702 11.1434 28.9089 10.9374 28.9062H2.34369C2.05342 28.9039 1.76924 28.8227 1.52154 28.6713C1.27385 28.5199 1.07195 28.3041 0.93744 28.0469C0.812357 27.7849 0.760821 27.4939 0.788343 27.2049C0.815864 26.9159 0.921409 26.6399 1.09369 26.4062C2.47648 24.5501 4.32165 23.0887 6.44525 22.168C5.53274 21.3327 4.83164 20.2926 4.39965 19.1334C3.96766 17.9742 3.81713 16.7289 3.96045 15.5001C4.10378 14.2714 4.53686 13.0942 5.22405 12.0655C5.91124 11.0369 6.8329 10.1861 7.91316 9.58321C8.99342 8.98035 10.2014 8.64265 11.4377 8.59789C12.674 8.55313 13.9032 8.80261 15.0243 9.32578C16.1453 9.84895 17.1261 10.6309 17.8858 11.6071C18.6456 12.5834 19.1627 13.7262 19.3945 14.9414C19.4523 15.2579 19.4122 15.5845 19.2796 15.8776C19.147 16.1707 18.9281 16.4165 18.6523 16.582C16.1262 18.08 14.2049 20.4159 13.2226 23.1836C12.7384 24.5169 12.4937 25.9253 12.4999 27.3437ZM48.9062 26.4062C47.5234 24.5501 45.6782 23.0887 43.5546 22.168C44.4671 21.3327 45.1682 20.2926 45.6002 19.1334C46.0322 17.9742 46.1828 16.7289 46.0394 15.5001C45.8961 14.2714 45.463 13.0942 44.7758 12.0655C44.0886 11.0369 43.167 10.1861 42.0867 9.58321C41.0065 8.98035 39.7985 8.64265 38.5622 8.59789C37.3259 8.55313 36.0966 8.80261 34.9756 9.32578C33.8546 9.84895 32.8738 10.6309 32.1141 11.6071C31.3543 12.5834 30.8372 13.7262 30.6054 14.9414C30.5476 15.2579 30.5877 15.5845 30.7203 15.8776C30.8529 16.1707 31.0717 16.4165 31.3476 16.582C33.877 18.0761 35.7994 20.4134 36.7773 23.1836C37.2615 24.5169 37.5062 25.9253 37.4999 27.3437C37.4973 27.5497 37.5359 27.754 37.6135 27.9448C37.6911 28.1355 37.8061 28.3088 37.9517 28.4544C38.0974 28.6001 38.2706 28.7151 38.4614 28.7926C38.6522 28.8702 38.8565 28.9089 39.0624 28.9062H47.6562C47.9464 28.9062 48.2308 28.8254 48.4776 28.6729C48.7245 28.5203 48.924 28.3021 49.0537 28.0425C49.1835 27.783 49.2384 27.4924 49.2124 27.2034C49.1863 26.9144 49.0803 26.6384 48.9062 26.4062ZM30.7031 34.7851C32.2581 33.5933 33.4006 31.9441 33.9702 30.0694C34.5397 28.1948 34.5075 26.1888 33.8782 24.3333C33.2489 22.4778 32.0541 20.8661 30.4617 19.7247C28.8693 18.5832 26.9592 17.9694 24.9999 17.9694C23.0407 17.9694 21.1306 18.5832 19.5382 19.7247C17.9457 20.8661 16.7509 22.4778 16.1217 24.3333C15.4924 26.1888 15.4602 28.1948 16.0297 30.0694C16.5992 31.9441 17.7418 33.5933 19.2968 34.7851C16.2588 36.1339 13.7958 38.5139 12.3437 41.5039C12.2282 41.7415 12.1764 42.0051 12.1935 42.2688C12.2106 42.5324 12.296 42.7871 12.4413 43.0078C12.5766 43.2342 12.7683 43.4216 12.9976 43.5517C13.227 43.6818 13.4862 43.7501 13.7499 43.75H36.2499C36.5136 43.7501 36.7729 43.6818 37.0022 43.5517C37.2316 43.4216 37.4233 43.2342 37.5585 43.0078C37.7038 42.7871 37.7892 42.5324 37.8064 42.2688C37.8235 42.0051 37.7717 41.7415 37.6562 41.5039C36.2041 38.5139 33.7411 36.1339 30.7031 34.7851Z" fill="#00D4BB"></path></svg>
