<svg width="24" height="24" viewBox="0 0 43 42" fill="none" xmlns="http://www.w3.org/2000/svg"><path d="M18.0166 26.0437V41.6646H11.744V26.0437H18.0166ZM32.1744 22.9187H24.8421C24.4255 22.9187 24.0259 23.0834 23.7314 23.3764C23.4368 23.6694 23.2713 24.0668 23.2713 24.4812V31.7771C23.2713 32.6396 23.9729 33.3396 24.8421 33.3396H32.1744C32.591 33.3396 32.9905 33.175 33.2851 32.8819C33.5797 32.5889 33.7452 32.1915 33.7452 31.7771V24.4812C33.7452 24.0668 33.5797 23.6694 33.2851 23.3764C32.9905 23.0834 32.591 22.9187 32.1744 22.9187ZM30.6036 26.0437V30.2146H26.4107V26.0437H30.6015H30.6036ZM13.1367 10.4208H3.36862V12.8479C3.36862 15.3062 5.20747 17.3417 7.59294 17.6625L7.91966 17.6958L8.25476 17.7062C10.8413 17.7062 12.9566 15.7083 13.1283 13.1792L13.1409 12.8458V10.4229L13.1367 10.4208ZM26.0484 10.4208H16.2803V12.8479C16.2803 15.3062 18.1192 17.3417 20.5046 17.6625L20.8314 17.6958L21.1665 17.7062C23.753 17.7062 25.8683 15.7083 26.04 13.1792L26.0526 12.8458V10.4229L26.0484 10.4208ZM38.9643 10.4208H29.1941L29.1962 12.8479C29.1962 15.3062 31.0351 17.3417 33.4184 17.6625L33.7473 17.6958L34.0824 17.7062C36.6668 17.7062 38.7842 15.7083 38.9559 13.1792L38.9664 12.8458V10.4229L38.9643 10.4208ZM15.0132 3.125H9.28518L5.39806 7.29583H13.7273L15.0132 3.125ZM24.0357 3.125H18.3014L17.0113 7.29583H25.3259L24.0357 3.125ZM33.0498 3.125H27.326L28.614 7.29583H36.9412L33.0498 3.125ZM0.648056 7.79583L7.45052 0.500001C7.6964 0.236022 8.02634 0.064561 8.38461 0.014584L8.60242 7.25074e-07H33.7347C34.0972 -0.000346529 34.4487 0.124047 34.7295 0.352084L34.8866 0.497917L41.7414 7.85208L41.8043 7.93125C42.0179 8.21458 42.1142 8.53542 42.1142 8.84792L42.11 12.8479C42.11 14.9187 41.3184 16.8062 40.0157 18.2229V40.1042C40.0157 40.4817 39.8782 40.8465 39.6287 41.1311C39.3792 41.4157 39.0346 41.6007 38.6585 41.6521L38.4449 41.6667L21.1602 41.6646V24.4812C21.1602 24.0668 20.9947 23.6694 20.7001 23.3764C20.4055 23.0834 20.006 22.9187 19.5894 22.9187H10.1732C9.75659 22.9187 9.35706 23.0834 9.06249 23.3764C8.76791 23.6694 8.60242 24.0668 8.60242 24.4812V41.6646L3.89431 41.6667C3.51437 41.6671 3.14713 41.5306 2.86063 41.2824C2.57413 41.0342 2.38778 40.6911 2.33611 40.3167L2.32354 40.1042L2.31935 18.225C1.06567 16.8606 0.328843 15.1045 0.235468 13.2583L0.224996 12.8479V8.9375C0.206798 8.64069 0.276716 8.3451 0.426054 8.0875L0.530772 7.92917L0.645962 7.79375L0.648056 7.79583Z" fill="#00D4BB"></path></svg>
